  0
SECTION
  2
HEADER
  9
$ACADVER
  1
AC1018
  9
$ACADMAINTVER
 70
     0
  9
$DWGCODEPAGE
  3
ANSI_1250
  9
$INSBASE
 10
0.0
 20
0.0
 30
0.0
  9
$EXTMIN
 10
-244.25
 20
0.0
 30
0.0
  9
$EXTMAX
 10
244.25
 20
385.0
 30
0.0
  9
$LIMMIN
 10
0.0
 20
0.0
  9
$LIMMAX
 10
12.0
 20
9.0
  9
$ORTHOMODE
 70
     0
  9
$REGENMODE
 70
     1
  9
$FILLMODE
 70
     1
  9
$QTEXTMODE
 70
     0
  9
$MIRRTEXT
 70
     1
  9
$LTSCALE
 40
1.0
  9
$ATTMODE
 70
     1
  9
$TEXTSIZE
 40
0.2
  9
$TRACEWID
 40
0.05
  9
$TEXTSTYLE
  7
Standard
  9
$CLAYER
  8
0
  9
$CELTYPE
  6
ByBlock
  9
$CECOLOR
 62
   256
  9
$CELTSCALE
 40
1.0
  9
$DISPSILH
 70
     0
  9
$DIMSCALE
 40
1.0
  9
$DIMASZ
 40
0.18
  9
$DIMEXO
 40
0.0625
  9
$DIMDLI
 40
0.38
  9
$DIMRND
 40
0.0
  9
$DIMDLE
 40
0.0
  9
$DIMEXE
 40
0.18
  9
$DIMTP
 40
0.0
  9
$DIMTM
 40
0.0
  9
$DIMTXT
 40
0.18
  9
$DIMCEN
 40
0.09
  9
$DIMTSZ
 40
0.0
  9
$DIMTOL
 70
     0
  9
$DIMLIM
 70
     0
  9
$DIMTIH
 70
     1
  9
$DIMTOH
 70
     1
  9
$DIMSE1
 70
     0
  9
$DIMSE2
 70
     0
  9
$DIMTAD
 70
     0
  9
$DIMZIN
 70
     0
  9
$DIMBLK
  1

  9
$DIMASO
 70
     1
  9
$DIMSHO
 70
     1
  9
$DIMPOST
  1

  9
$DIMAPOST
  1

  9
$DIMALT
 70
     0
  9
$DIMALTD
 70
     2
  9
$DIMALTF
 40
25.4
  9
$DIMLFAC
 40
1.0
  9
$DIMTOFL
 70
     0
  9
$DIMTVP
 40
0.0
  9
$DIMTIX
 70
     0
  9
$DIMSOXD
 70
     0
  9
$DIMSAH
 70
     0
  9
$DIMBLK1
  1

  9
$DIMBLK2
  1

  9
$DIMSTYLE
  2
Standard
  9
$DIMCLRD
 70
     0
  9
$DIMCLRE
 70
     0
  9
$DIMCLRT
 70
     0
  9
$DIMTFAC
 40
1.0
  9
$DIMGAP
 40
0.09
  9
$DIMJUST
 70
     0
  9
$DIMSD1
 70
     0
  9
$DIMSD2
 70
     0
  9
$DIMTOLJ
 70
     1
  9
$DIMTZIN
 70
     0
  9
$DIMALTZ
 70
     0
  9
$DIMALTTZ
 70
     0
  9
$DIMUPT
 70
     0
  9
$DIMDEC
 70
     4
  9
$DIMTDEC
 70
     4
  9
$DIMALTU
 70
     2
  9
$DIMALTTD
 70
     2
  9
$DIMTXSTY
  7
Standard
  9
$DIMAUNIT
 70
     0
  9
$DIMADEC
 70
     0
  9
$DIMALTRND
 40
0.0
  9
$DIMAZIN
 70
     0
  9
$DIMDSEP
 70
    46
  9
$DIMATFIT
 70
     3
  9
$DIMFRAC
 70
     0
  9
$DIMLDRBLK
  1

  9
$DIMLUNIT
 70
     2
  9
$DIMLWD
 70
    -2
  9
$DIMLWE
 70
    -2
  9
$DIMTMOVE
 70
     2
  9
$LUNITS
 70
     2
  9
$LUPREC
 70
     4
  9
$SKETCHINC
 40
0.1
  9
$FILLETRAD
 40
25.0
  9
$AUNITS
 70
     0
  9
$AUPREC
 70
     0
  9
$MENU
  1
.
  9
$ELEVATION
 40
0.0
  9
$PELEVATION
 40
0.0
  9
$THICKNESS
 40
0.0
  9
$LIMCHECK
 70
     0
  9
$CHAMFERA
 40
0.0
  9
$CHAMFERB
 40
0.0
  9
$CHAMFERC
 40
0.0
  9
$CHAMFERD
 40
0.0
  9
$SKPOLY
 70
     0
  9
$TDCREATE
 40
2456699.461597199
  9
$TDUCREATE
 40
2456699.419930544
  9
$TDUPDATE
 40
2456734.618622674
  9
$TDUUPDATE
 40
2456734.576956018
  9
$TDINDWG
 40
0.0000115741
  9
$TDUSRTIMER
 40
2456734.573807871
  9
$USRTIMER
 70
     1
  9
$ANGBASE
 50
0.0
  9
$ANGDIR
 70
     0
  9
$PDMODE
 70
     0
  9
$PDSIZE
 40
0.0
  9
$PLINEWID
 40
0.0
  9
$SPLFRAME
 70
     0
  9
$SPLINETYPE
 70
     6
  9
$SPLINESEGS
 70
     8
  9
$HANDSEED
  5
1CE7
  9
$SURFTAB1
 70
     6
  9
$SURFTAB2
 70
     6
  9
$SURFTYPE
 70
     6
  9
$SURFU
 70
     6
  9
$SURFV
 70
     6
  9
$UCSBASE
  2

  9
$UCSNAME
  2

  9
$UCSORG
 10
0.0
 20
0.0
 30
0.0
  9
$UCSXDIR
 10
1.0
 20
0.0
 30
0.0
  9
$UCSYDIR
 10
0.0
 20
1.0
 30
0.0
  9
$UCSORTHOREF
  2

  9
$UCSORTHOVIEW
 70
     0
  9
$UCSORGTOP
 10
0.0
 20
0.0
 30
0.0
  9
$UCSORGBOTTOM
 10
0.0
 20
0.0
 30
0.0
  9
$UCSORGLEFT
 10
0.0
 20
0.0
 30
0.0
  9
$UCSORGRIGHT
 10
0.0
 20
0.0
 30
0.0
  9
$UCSORGFRONT
 10
0.0
 20
0.0
 30
0.0
  9
$UCSORGBACK
 10
0.0
 20
0.0
 30
0.0
  9
$PUCSBASE
  2

  9
$PUCSNAME
  2

  9
$PUCSORG
 10
0.0
 20
0.0
 30
0.0
  9
$PUCSXDIR
 10
1.0
 20
0.0
 30
0.0
  9
$PUCSYDIR
 10
0.0
 20
1.0
 30
0.0
  9
$PUCSORTHOREF
  2

  9
$PUCSORTHOVIEW
 70
     0
  9
$PUCSORGTOP
 10
0.0
 20
0.0
 30
0.0
  9
$PUCSORGBOTTOM
 10
0.0
 20
0.0
 30
0.0
  9
$PUCSORGLEFT
 10
0.0
 20
0.0
 30
0.0
  9
$PUCSORGRIGHT
 10
0.0
 20
0.0
 30
0.0
  9
$PUCSORGFRONT
 10
0.0
 20
0.0
 30
0.0
  9
$PUCSORGBACK
 10
0.0
 20
0.0
 30
0.0
  9
$USERI1
 70
     0
  9
$USERI2
 70
     0
  9
$USERI3
 70
     0
  9
$USERI4
 70
     0
  9
$USERI5
 70
     0
  9
$USERR1
 40
0.0
  9
$USERR2
 40
0.0
  9
$USERR3
 40
0.0
  9
$USERR4
 40
0.0
  9
$USERR5
 40
0.0
  9
$WORLDVIEW
 70
     1
  9
$SHADEDGE
 70
     3
  9
$SHADEDIF
 70
    70
  9
$TILEMODE
 70
     1
  9
$MAXACTVP
 70
    64
  9
$PINSBASE
 10
0.0
 20
0.0
 30
0.0
  9
$PLIMCHECK
 70
     0
  9
$PEXTMIN
 10
1.000000000000000E+20
 20
1.000000000000000E+20
 30
1.000000000000000E+20
  9
$PEXTMAX
 10
-1.000000000000000E+20
 20
-1.000000000000000E+20
 30
-1.000000000000000E+20
  9
$PLIMMIN
 10
0.0
 20
0.0
  9
$PLIMMAX
 10
0.0
 20
0.0
  9
$UNITMODE
 70
     0
  9
$VISRETAIN
 70
     1
  9
$PLINEGEN
 70
     0
  9
$PSLTSCALE
 70
     1
  9
$TREEDEPTH
 70
  3020
  9
$CMLSTYLE
  2
Standard
  9
$CMLJUST
 70
     0
  9
$CMLSCALE
 40
1.0
  9
$PROXYGRAPHICS
 70
     1
  9
$MEASUREMENT
 70
     0
  9
$CELWEIGHT
370
    -1
  9
$ENDCAPS
280
     0
  9
$JOINSTYLE
280
     0
  9
$LWDISPLAY
290
     0
  9
$INSUNITS
 70
     0
  9
$HYPERLINKBASE
  1

  9
$STYLESHEET
  1

  9
$XEDIT
290
     1
  9
$CEPSNTYPE
380
     0
  9
$PSTYLEMODE
290
     1
  9
$FINGERPRINTGUID
  2
{B8E10796-818D-0EF5-97AE-02325FC20536}
  9
$VERSIONGUID
  2
{FAEB1C32-E019-11D5-929B-00C0DF256EC4}
  9
$EXTNAMES
290
     1
  9
$PSVPSCALE
 40
0.0
  9
$OLESTARTUP
290
     0
  9
$SORTENTS
280
   127
  9
$INDEXCTL
280
     0
  9
$HIDETEXT
280
     1
  9
$XCLIPFRAME
290
     0
  9
$HALOGAP
280
     0
  9
$OBSCOLOR
 70
   257
  9
$OBSLTYPE
280
     0
  9
$INTERSECTIONDISPLAY
280
     0
  9
$INTERSECTIONCOLOR
 70
   257
  9
$DIMASSOC
280
     2
  9
$PROJECTNAME
  1

  0
ENDSEC
  0
SECTION
  2
CLASSES
  0
CLASS
  1
ACDBDICTIONARYWDFLT
  2
AcDbDictionaryWithDefault
  3
ObjectDBX Classes
 90
        0
 91
        5
280
     0
281
     0
  0
CLASS
  1
SCALE
  2
AcDbScale
  3
ObjectDBX Classes
 90
     1153
 91
        5
280
     0
281
     0
  0
CLASS
  1
VISUALSTYLE
  2
AcDbVisualStyle
  3
ObjectDBX Classes
 90
     4095
 91
        5
280
     0
281
     0
  0
CLASS
  1
MATERIAL
  2
AcDbMaterial
  3
ObjectDBX Classes
 90
     1153
 91
        5
280
     0
281
     0
  0
CLASS
  1
TABLESTYLE
  2
AcDbTableStyle
  3
ObjectDBX Classes
 90
     4095
 91
        5
280
     0
281
     0
  0
CLASS
  1
SUN
  2
AcDbSun
  3
SCENEOE
 90
     1153
 91
        5
280
     0
281
     0
  0
CLASS
  1
RASTERVARIABLES
  2
AcDbRasterVariables
  3
ISM
 90
        0
 91
        5
280
     0
281
     0
  0
CLASS
  1
DICTIONARYVAR
  2
AcDbDictionaryVar
  3
ObjectDBX Classes
 90
        0
 91
        5
280
     0
281
     0
  0
CLASS
  1
DIMASSOC
  2
AcDbDimAssoc
  3
"AcDbDimAssoc|Product Desc:     AcDim ARX App For Dimension|Company:          Autodesk, Inc.|WEB Address:      www.autodesk.com"
 90
        0
 91
        5
280
     0
281
     0
  0
CLASS
  1
SORTENTSTABLE
  2
AcDbSortentsTable
  3
ObjectDBX Classes
 90
        0
 91
        5
280
     0
281
     0
  0
CLASS
  1
CELLSTYLEMAP
  2
AcDbCellStyleMap
  3
ObjectDBX Classes
 90
     1152
 91
        5
280
     0
281
     0
  0
ENDSEC
  0
SECTION
  2
TABLES
  0
TABLE
  2
VPORT
  5
8
330
0
100
AcDbSymbolTable
 70
     1
  0
VPORT
  5
29F
330
8
100
AcDbSymbolTableRecord
100
AcDbViewportTableRecord
  2
*Active
 70
     0
 10
0.0
 20
0.0
 11
1.0
 21
1.0
 12
563.3160252079126
 22
306.7291190722211
 13
0.0
 23
0.0
 14
0.5
 24
0.5
 15
0.5
 25
0.5
 16
0.0
 26
0.0
 36
1.0
 17
0.0
 27
0.0
 37
0.0
 40
803.4200916197053
 41
1.91699604743083
 42
50.0
 43
0.0
 44
0.0
 50
0.0
 51
0.0
 71
    16
 72
   100
 73
     1
 74
     3
 75
     0
 76
     0
 77
     0
 78
     0
281
     0
 65
     1
110
0.0
120
0.0
130
0.0
111
1.0
121
0.0
131
0.0
112
0.0
122
1.0
132
0.0
 79
     0
146
0.0
  0
ENDTAB
  0
TABLE
  2
LTYPE
  5
5
330
0
100
AcDbSymbolTable
 70
     1
  0
LTYPE
  5
14
330
5
100
AcDbSymbolTableRecord
100
AcDbLinetypeTableRecord
  2
ByBlock
 70
     0
  3

 72
    65
 73
     0
 40
0.0
  0
LTYPE
  5
15
330
5
100
AcDbSymbolTableRecord
100
AcDbLinetypeTableRecord
  2
ByLayer
 70
     0
  3

 72
    65
 73
     0
 40
0.0
  0
LTYPE
  5
16
330
5
100
AcDbSymbolTableRecord
100
AcDbLinetypeTableRecord
  2
Continuous
 70
     0
  3
Solid line
 72
    65
 73
     0
 40
0.0
  0
ENDTAB
  0
TABLE
  2
LAYER
  5
2
102
{ACAD_XDICTIONARY
360
66B
102
}
330
0
100
AcDbSymbolTable
 70
     5
  0
LAYER
  5
10
330
2
100
AcDbSymbolTableRecord
100
AcDbLayerTableRecord
  2
0
 70
     0
 62
     7
  6
Continuous
370
    -3
390
F
  0
LAYER
  5
66E
330
2
100
AcDbSymbolTableRecord
100
AcDbLayerTableRecord
  2
montaz-ramy
 70
     0
 62
     4
  6
Continuous
370
    -3
390
F
1001
AcAecLayerStandard
1000

1000

  0
LAYER
  5
9E7
330
2
100
AcDbSymbolTableRecord
100
AcDbLayerTableRecord
  2
wpust
 70
     0
 62
     1
  6
Continuous
370
    -3
390
F
1001
AcAecLayerStandard
1000

1000

  0
LAYER
  5
9F2
330
2
100
AcDbSymbolTableRecord
100
AcDbLayerTableRecord
  2
Defpoints
 70
     0
 62
     7
  6
Continuous
290
     0
370
    -3
390
F
  0
LAYER
  5
A23
330
2
100
AcDbSymbolTableRecord
100
AcDbLayerTableRecord
  2
helpline
 70
     0
 62
     6
  6
Continuous
290
     0
370
    -3
390
F
1001
AcAecLayerStandard
1000

1000

  0
ENDTAB
  0
TABLE
  2
STYLE
  5
3
330
0
100
AcDbSymbolTable
 70
     1
  0
STYLE
  5
11
330
3
100
AcDbSymbolTableRecord
100
AcDbTextStyleTableRecord
  2
Standard
 70
     0
 40
0.0
 41
1.0
 50
0.0
 71
     0
 42
0.2
  3
txt
  4

  0
ENDTAB
  0
TABLE
  2
VIEW
  5
6
330
0
100
AcDbSymbolTable
 70
     0
  0
ENDTAB
  0
TABLE
  2
UCS
  5
7
330
0
100
AcDbSymbolTable
 70
     0
  0
ENDTAB
  0
TABLE
  2
APPID
  5
9
330
0
100
AcDbSymbolTable
 70
     2
  0
APPID
  5
12
330
9
100
AcDbSymbolTableRecord
100
AcDbRegAppTableRecord
  2
ACAD
 70
     0
  0
APPID
  5
66F
330
9
100
AcDbSymbolTableRecord
100
AcDbRegAppTableRecord
  2
AcAecLayerStandard
 70
     0
  0
ENDTAB
  0
TABLE
  2
DIMSTYLE
  5
A
330
0
100
AcDbSymbolTable
 70
     2
100
AcDbDimStyleTable
  0
DIMSTYLE
105
20
330
A
100
AcDbSymbolTableRecord
100
AcDbDimStyleTableRecord
  2
Standard
 70
     0
178
     0
340
11
  0
DIMSTYLE
105
C41
330
A
100
AcDbSymbolTableRecord
100
AcDbDimStyleTableRecord
  2
ISO-25
 70
     0
 41
2.5
 42
0.625
 43
3.75
 44
1.25
 73
     0
 74
     0
 77
     1
 78
     8
140
2.5
141
2.5
143
0.03937007874016
147
0.625
171
     3
172
     1
178
     0
271
     2
272
     2
274
     3
278
    44
283
     0
284
     8
340
11
  0
ENDTAB
  0
TABLE
  2
BLOCK_RECORD
  5
1
330
0
100
AcDbSymbolTable
 70
     4
  0
BLOCK_RECORD
  5
1D
102
{ACAD_XDICTIONARY
360
16DB
102
}
330
1
100
AcDbSymbolTableRecord
100
AcDbBlockTableRecord
  2
*Model_Space
340
1E
  0
BLOCK_RECORD
  5
1B
330
1
100
AcDbSymbolTableRecord
100
AcDbBlockTableRecord
  2
*Paper_Space
340
1C
  0
BLOCK_RECORD
  5
1718
330
1
100
AcDbSymbolTableRecord
100
AcDbBlockTableRecord
  2
brama
340
0
  0
BLOCK_RECORD
  5
1B5B
330
1
100
AcDbSymbolTableRecord
100
AcDbBlockTableRecord
  2
spod
340
0
  0
BLOCK_RECORD
  5
1BB5
330
1
100
AcDbSymbolTableRecord
100
AcDbBlockTableRecord
  2
bok
340
0
  0
BLOCK_RECORD
  5
1C05
330
1
100
AcDbSymbolTableRecord
100
AcDbBlockTableRecord
  2
bok 1
340
0
  0
ENDTAB
  0
ENDSEC
  0
SECTION
  2
BLOCKS
  0
BLOCK
  5
2C2
330
1D
100
AcDbEntity
  8
0
100
AcDbBlockBegin
  2
*Model_Space
 70
     0
 10
0.0
 20
0.0
 30
0.0
  3
*Model_Space
  1
*Model_Space
  0
ENDBLK
  5
2C3
330
1D
100
AcDbEntity
  8
0
100
AcDbBlockEnd
  0
BLOCK
  5
2C4
330
1B
100
AcDbEntity
 67
     1
  8
0
100
AcDbBlockBegin
  2
*Paper_Space
 70
     0
 10
0.0
 20
0.0
 30
0.0
  3
*Paper_Space
  1
*Paper_Space
  0
ENDBLK
  5
2C5
330
1B
100
AcDbEntity
 67
     1
  8
0
100
AcDbBlockEnd
  0
BLOCK
  5
1719
330
1718
100
AcDbEntity
  8
0
100
AcDbBlockBegin
  2
brama
 70
     0
 10
0.0
 20
0.0
 30
0.0
  3
brama
  1
brama
  0
LINE
  5
1C58
330
1718
100
AcDbEntity
  8
0
100
AcDbLine
 10
841.2230745645824
 20
1131.33607210992
 30
0.0
 11
1201.223074564582
 21
1131.33607210992
 31
0.0
  0
LINE
  5
1C59
330
1718
100
AcDbEntity
  8
0
100
AcDbLine
 10
1201.223074564582
 20
642.8360721099198
 30
0.0
 11
841.2230745645822
 21
642.8360721099198
 31
0.0
  0
LINE
  5
1C5A
330
1718
100
AcDbEntity
  8
0
100
AcDbLine
 10
841.2230745645822
 20
692.0787127970391
 30
0.0
 11
841.2230745645822
 21
703.8360721099198
 31
0.0
  0
LINE
  5
1C5B
330
1718
100
AcDbEntity
  8
0
100
AcDbLine
 10
841.2230745645822
 20
768.8360721099198
 30
0.0
 11
1099.323074564582
 21
768.8360721099198
 31
0.0
  0
LINE
  5
1C5C
330
1718
100
AcDbEntity
  8
0
100
AcDbLine
 10
1124.323074564582
 20
793.8360721099198
 30
0.0
 11
1124.323074564582
 21
993.83607210992
 31
0.0
  0
LINE
  5
1C5D
330
1718
100
AcDbEntity
  8
0
100
AcDbLine
 10
1099.323074564582
 20
1018.83607210992
 30
0.0
 11
841.2230745645824
 21
1018.83607210992
 31
0.0
  0
LINE
  5
1C5E
330
1718
100
AcDbEntity
  8
0
  6
ByBlock
100
AcDbLine
 10
841.2230745645824
 20
1018.83607210992
 30
0.0
 11
825.2230745645824
 21
1018.83607210992
 31
0.0
  0
LINE
  5
1C5F
330
1718
100
AcDbEntity
  8
0
  6
ByBlock
100
AcDbLine
 10
825.2230745645824
 20
1018.83607210992
 30
0.0
 11
825.2230745645824
 21
1063.83607210992
 31
0.0
  0
LINE
  5
1C60
330
1718
100
AcDbEntity
  8
0
  6
ByBlock
100
AcDbLine
 10
841.2230745645824
 20
1131.33607210992
 30
0.0
 11
825.2230745645824
 21
1131.33607210992
 31
0.0
  0
LINE
  5
1C61
330
1718
100
AcDbEntity
  8
0
  6
ByBlock
100
AcDbLine
 10
825.2230745645824
 20
1131.33607210992
 30
0.0
 11
825.2230745645824
 21
1086.33607210992
 31
0.0
  0
LINE
  5
1C62
330
1718
100
AcDbEntity
  8
0
  6
ByBlock
100
AcDbLine
 10
825.2230745645824
 20
1086.33607210992
 30
0.0
 11
836.980433877463
 21
1086.33607210992
 31
0.0
  0
LINE
  5
1C63
330
1718
100
AcDbEntity
  8
0
  6
ByBlock
100
AcDbLine
 10
841.2230745645824
 20
1082.093431422801
 30
0.0
 11
841.2230745645824
 21
1077.08607210992
 31
0.0
  0
LINE
  5
1C64
330
1718
100
AcDbEntity
  8
0
  6
ByBlock
100
AcDbLine
 10
825.2230745645824
 20
768.8360721099198
 30
0.0
 11
841.2230745645822
 21
768.8360721099198
 31
0.0
  0
LINE
  5
1C65
330
1718
100
AcDbEntity
  8
0
  6
ByBlock
100
AcDbLine
 10
825.2230745645824
 20
723.8360721099198
 30
0.0
 11
836.9804338774629
 21
723.8360721099198
 31
0.0
  0
LINE
  5
1C66
330
1718
100
AcDbEntity
  8
0
  6
ByBlock
100
AcDbLine
 10
825.2230745645822
 20
687.8360721099202
 30
0.0
 11
836.9804338774625
 21
687.8360721099202
 31
0.0
  0
LINE
  5
1C67
330
1718
100
AcDbEntity
  8
0
  6
ByBlock
100
AcDbLine
 10
825.2230745645822
 20
642.8360721099202
 30
0.0
 11
841.2230745645822
 21
642.8360721099202
 31
0.0
  0
LINE
  5
1C68
330
1718
100
AcDbEntity
  8
0
  6
ByBlock
100
AcDbLine
 10
825.2230745645822
 20
768.8360721099198
 30
0.0
 11
825.2230745645822
 21
723.8360721099198
 31
0.0
  0
LINE
  5
1C69
330
1718
100
AcDbEntity
  8
0
  6
ByBlock
100
AcDbLine
 10
825.2230745645822
 20
687.8360721099202
 30
0.0
 11
825.2230745645822
 21
642.8360721099202
 31
0.0
  0
LINE
  5
1C6A
330
1718
100
AcDbEntity
  8
0
100
AcDbLine
 10
851.2230626050272
 20
1069.014197110104
 30
0.0
 11
847.2230626050272
 21
1069.014197110104
 31
0.0
  0
LINE
  5
1C6B
330
1718
100
AcDbEntity
  8
0
100
AcDbLine
 10
858.985562605027
 20
1073.08607210992
 30
0.0
 11
851.2230626050272
 21
1073.08607210992
 31
0.0
  0
LINE
  5
1C6C
330
1718
100
AcDbEntity
  8
0
100
AcDbLine
 10
851.2230626050272
 20
1077.08607210992
 30
0.0
 11
851.2230626050272
 21
1081.157947109735
 31
0.0
  0
LINE
  5
1C6D
330
1718
100
AcDbEntity
  8
0
100
AcDbLine
 10
847.2230626050272
 20
1081.157947109735
 30
0.0
 11
847.2230626050272
 21
1077.08607210992
 31
0.0
  0
LINE
  5
1C6E
330
1718
100
AcDbEntity
  8
0
100
AcDbLine
 10
847.2230626050272
 20
1077.08607210992
 30
0.0
 11
841.2230745645824
 21
1077.08607210992
 31
0.0
  0
LINE
  5
1C6F
330
1718
100
AcDbEntity
  8
0
100
AcDbLine
 10
847.2230626050272
 20
1073.08607210992
 30
0.0
 11
841.2230745645824
 21
1073.08607210992
 31
0.0
  0
LINE
  5
1C70
330
1718
100
AcDbEntity
  8
0
100
AcDbLine
 10
847.2230626050272
 20
1069.014197110104
 30
0.0
 11
847.2230626050272
 21
1073.08607210992
 31
0.0
  0
LINE
  5
1C71
330
1718
100
AcDbEntity
  8
0
100
AcDbLine
 10
858.985562605027
 20
1077.08607210992
 30
0.0
 11
851.2230626050272
 21
1077.08607210992
 31
0.0
  0
LINE
  5
1C72
330
1718
100
AcDbEntity
  8
0
100
AcDbLine
 10
851.2230626050272
 20
1081.157947109735
 30
0.0
 11
847.2230626050272
 21
1081.157947109735
 31
0.0
  0
LINE
  5
1C73
330
1718
100
AcDbEntity
  8
0
100
AcDbLine
 10
858.985562605027
 20
1077.08607210992
 30
0.0
 11
858.985562605027
 21
1073.08607210992
 31
0.0
  0
LINE
  5
1C74
330
1718
100
AcDbEntity
  8
0
100
AcDbLine
 10
851.2230626050272
 20
1069.014197110104
 30
0.0
 11
851.2230626050272
 21
1073.08607210992
 31
0.0
  0
LINE
  5
1C75
330
1718
100
AcDbEntity
  8
0
100
AcDbLine
 10
851.223062605027
 20
699.7641971101043
 30
0.0
 11
847.223062605027
 21
699.7641971101043
 31
0.0
  0
LINE
  5
1C76
330
1718
100
AcDbEntity
  8
0
100
AcDbLine
 10
858.9855626050269
 20
703.8360721099198
 30
0.0
 11
851.223062605027
 21
703.8360721099198
 31
0.0
  0
LINE
  5
1C77
330
1718
100
AcDbEntity
  8
0
100
AcDbLine
 10
851.223062605027
 20
707.8360721099198
 30
0.0
 11
851.223062605027
 21
711.9079471097352
 31
0.0
  0
LINE
  5
1C78
330
1718
100
AcDbEntity
  8
0
100
AcDbLine
 10
847.223062605027
 20
711.9079471097352
 30
0.0
 11
847.223062605027
 21
707.8360721099198
 31
0.0
  0
LINE
  5
1C79
330
1718
100
AcDbEntity
  8
0
100
AcDbLine
 10
847.223062605027
 20
707.8360721099198
 30
0.0
 11
841.2230745645822
 21
707.8360721099198
 31
0.0
  0
LINE
  5
1C7A
330
1718
100
AcDbEntity
  8
0
100
AcDbLine
 10
847.223062605027
 20
703.8360721099198
 30
0.0
 11
841.2230745645822
 21
703.8360721099198
 31
0.0
  0
LINE
  5
1C7B
330
1718
100
AcDbEntity
  8
0
100
AcDbLine
 10
847.223062605027
 20
699.7641971101043
 30
0.0
 11
847.223062605027
 21
703.8360721099198
 31
0.0
  0
LINE
  5
1C7C
330
1718
100
AcDbEntity
  8
0
100
AcDbLine
 10
858.9855626050269
 20
707.8360721099198
 30
0.0
 11
851.223062605027
 21
707.8360721099198
 31
0.0
  0
LINE
  5
1C7D
330
1718
100
AcDbEntity
  8
0
100
AcDbLine
 10
851.223062605027
 20
711.9079471097352
 30
0.0
 11
847.223062605027
 21
711.9079471097352
 31
0.0
  0
LINE
  5
1C7E
330
1718
100
AcDbEntity
  8
0
100
AcDbLine
 10
858.9855626050269
 20
707.8360721099198
 30
0.0
 11
858.9855626050269
 21
703.8360721099198
 31
0.0
  0
LINE
  5
1C7F
330
1718
100
AcDbEntity
  8
0
100
AcDbLine
 10
851.223062605027
 20
699.7641971101043
 30
0.0
 11
851.223062605027
 21
703.8360721099198
 31
0.0
  0
LINE
  5
1C80
330
1718
100
AcDbEntity
  8
0
100
AcDbLine
 10
841.2230745645822
 20
707.8360721099198
 30
0.0
 11
841.2230745645822
 21
719.5934314228004
 31
0.0
  0
CIRCLE
  5
1C81
330
1718
100
AcDbEntity
  8
montaz-ramy
  6
ByBlock
100
AcDbCircle
 10
959.9730745645825
 20
1038.324436714904
 30
0.0
 40
2.1
  0
CIRCLE
  5
1C82
330
1718
100
AcDbEntity
  8
helpline
  6
ByBlock
100
AcDbCircle
 10
1118.723074564582
 20
1038.324436714904
 30
0.0
 40
2.1
  0
CIRCLE
  5
1C83
330
1718
100
AcDbEntity
  8
montaz-ramy
  6
ByBlock
100
AcDbCircle
 10
1118.7231
 20
685.95307210992
 30
0.0
 40
2.1
  0
CIRCLE
  5
1C84
330
1718
100
AcDbEntity
  8
helpline
  6
ByBlock
100
AcDbCircle
 10
959.9730745645822
 20
685.95307210992
 30
0.0
 40
2.1
  0
CIRCLE
  5
1C85
330
1718
100
AcDbEntity
  8
helpline
  6
ByBlock
100
AcDbCircle
 10
902.2230745645824
 20
1082.836365880567
 30
0.0
 40
2.1
  0
CIRCLE
  5
1C86
330
1718
100
AcDbEntity
  8
helpline
  6
ByBlock
100
AcDbCircle
 10
902.199682424498
 20
1114.776316249619
 30
0.0
 40
2.1
  0
ARC
  5
1C87
330
1718
100
AcDbEntity
  8
0
100
AcDbCircle
 10
1201.223074564582
 20
667.8360721099198
 30
0.0
 40
25.0
100
AcDbArc
 50
270.0
 51
0.0
  0
ARC
  5
1C88
330
1718
100
AcDbEntity
  8
0
100
AcDbCircle
 10
1201.223074564582
 20
1106.33607210992
 30
0.0
 40
25.0
100
AcDbArc
 50
0.0
 51
90.0
  0
CIRCLE
  5
1C89
330
1718
100
AcDbEntity
  8
helpline
  6
ByBlock
100
AcDbCircle
 10
902.2230745645822
 20
703.8976462357828
 30
0.0
 40
2.1
  0
CIRCLE
  5
1C8A
330
1718
100
AcDbEntity
  8
helpline
  6
ByBlock
100
AcDbCircle
 10
902.1996824244978
 20
735.8375966048347
 30
0.0
 40
2.1
  0
CIRCLE
  5
1C8B
330
1718
100
AcDbEntity
  8
helpline
  6
ByBlock
100
AcDbCircle
 10
1217.725879066717
 20
754.814397670109
 30
0.0
 40
2.1
  0
CIRCLE
  5
1C8C
330
1718
100
AcDbEntity
  8
helpline
  6
ByBlock
100
AcDbCircle
 10
1217.712569356611
 20
719.8210192728211
 30
0.0
 40
2.1
  0
CIRCLE
  5
1C8D
330
1718
100
AcDbEntity
  8
helpline
  6
ByBlock
100
AcDbCircle
 10
1217.747056668585
 20
1056.834475176623
 30
0.0
 40
2.1
  0
CIRCLE
  5
1C8E
330
1718
100
AcDbEntity
  8
helpline
  6
ByBlock
100
AcDbCircle
 10
1217.760366378691
 20
1091.82785357391
 30
0.0
 40
2.1
  0
ARC
  5
1C8F
330
1718
100
AcDbEntity
  8
0
100
AcDbCircle
 10
1099.323074564582
 20
993.83607210992
 30
0.0
 40
25.0
100
AcDbArc
 50
0.0
 51
90.0
  0
ARC
  5
1C90
330
1718
100
AcDbEntity
  8
0
100
AcDbCircle
 10
1099.323074564582
 20
793.8360721099198
 30
0.0
 40
25.0
100
AcDbArc
 50
270.0
 51
0.0
  0
ARC
  5
1C91
330
1718
100
AcDbEntity
  8
0
  6
ByBlock
100
AcDbCircle
 10
839.1017542210227
 20
1084.21475176636
 30
0.0
 40
2.999999999999999
100
AcDbArc
 50
315.0000000000015
 51
134.9999999999969
  0
LINE
  5
1C92
330
1718
100
AcDbEntity
  8
0
  6
ByBlock
100
AcDbLine
 10
825.2230745645824
 20
1063.83607210992
 30
0.0
 11
836.980433877463
 21
1063.83607210992
 31
0.0
  0
LINE
  5
1C93
330
1718
100
AcDbEntity
  8
0
  6
ByBlock
100
AcDbLine
 10
841.2230745645824
 20
1068.078712797039
 30
0.0
 11
841.2230745645824
 21
1073.08607210992
 31
0.0
  0
ARC
  5
1C94
330
1718
100
AcDbEntity
  8
0
  6
ByBlock
100
AcDbCircle
 10
839.1017542210227
 20
1065.957392453479
 30
0.0
 40
2.999999999999999
100
AcDbArc
 50
224.9999999999984
 51
45.00000000000307
  0
ARC
  5
1C95
330
1718
100
AcDbEntity
  8
0
  6
ByBlock
100
AcDbCircle
 10
839.1017542210226
 20
721.7147517663601
 30
0.0
 40
2.999999999999999
100
AcDbArc
 50
315.0
 51
135.0
  0
ARC
  5
1C96
330
1718
100
AcDbEntity
  8
0
  6
ByBlock
100
AcDbCircle
 10
839.1017542210226
 20
689.9573924534794
 30
0.0
 40
2.999999999999999
100
AcDbArc
 50
224.9999999999877
 51
45.0
  0
ARC
  5
1C97
330
1718
100
AcDbEntity
  8
wpust
  6
ByBlock
100
AcDbCircle
 10
865.5943949081419
 20
1030.945757058463
 30
0.0
 40
2.999999999999999
100
AcDbArc
 50
135.0000000000016
 51
315.0000000000015
  0
ARC
  5
1C98
330
1718
100
AcDbEntity
  8
wpust
  6
ByBlock
100
AcDbCircle
 10
865.5943949081419
 20
1045.703116371344
 30
0.0
 40
2.999999999999999
100
AcDbArc
 50
45.00000000000307
 51
224.9999999999984
  0
ARC
  5
1C99
330
1718
100
AcDbEntity
  8
wpust
  6
ByBlock
100
AcDbCircle
 10
1054.351754221023
 20
1030.945757058463
 30
0.0
 40
2.999999999999999
100
AcDbArc
 50
225.000000000003
 51
44.99999999999693
  0
ARC
  5
1C9A
330
1718
100
AcDbEntity
  8
wpust
  6
ByBlock
100
AcDbCircle
 10
906.8517542210226
 20
1030.945757058463
 30
0.0
 40
2.999999999999999
100
AcDbArc
 50
224.9999999999984
 51
44.99999999999693
  0
LINE
  5
1C9B
330
1718
100
AcDbEntity
  8
wpust
  6
ByBlock
100
AcDbLine
 10
867.7157152517016
 20
1028.824436714904
 30
0.0
 11
904.7304338774629
 21
1028.824436714904
 31
0.0
  0
LINE
  5
1C9C
330
1718
100
AcDbEntity
  8
wpust
  6
ByBlock
100
AcDbLine
 10
908.9730745645824
 20
1033.067077402023
 30
0.0
 11
908.9730745645824
 21
1043.581796027784
 31
0.0
  0
LINE
  5
1C9D
330
1718
100
AcDbEntity
  8
wpust
  6
ByBlock
100
AcDbLine
 10
904.730433877463
 20
1047.824436714904
 30
0.0
 11
867.7157152517016
 21
1047.824436714904
 31
0.0
  0
ARC
  5
1C9E
330
1718
100
AcDbEntity
  8
wpust
  6
ByBlock
100
AcDbCircle
 10
906.8517542210226
 20
1045.703116371344
 30
0.0
 40
2.999999999999999
100
AcDbArc
 50
315.000000000003
 51
134.9999999999969
  0
LINE
  5
1C9F
330
1718
100
AcDbEntity
  8
wpust
  6
ByBlock
100
AcDbLine
 10
863.4730745645822
 20
1033.067077402023
 30
0.0
 11
863.4730745645822
 21
1043.581796027784
 31
0.0
  0
LINE
  5
1CA0
330
1718
100
AcDbEntity
  8
wpust
  6
ByBlock
100
AcDbLine
 10
1015.215715251702
 20
1028.824436714904
 30
0.0
 11
1052.230433877464
 21
1028.824436714904
 31
0.0
  0
LINE
  5
1CA1
330
1718
100
AcDbEntity
  8
wpust
  6
ByBlock
100
AcDbLine
 10
1056.473074564583
 20
1033.067077402023
 30
0.0
 11
1056.473074564583
 21
1043.581796027784
 31
0.0
  0
LINE
  5
1CA2
330
1718
100
AcDbEntity
  8
wpust
  6
ByBlock
100
AcDbLine
 10
1052.230433877464
 20
1047.824436714904
 30
0.0
 11
1015.215715251702
 21
1047.824436714904
 31
0.0
  0
ARC
  5
1CA3
330
1718
100
AcDbEntity
  8
wpust
  6
ByBlock
100
AcDbCircle
 10
1054.351754221023
 20
1045.703116371344
 30
0.0
 40
2.999999999999999
100
AcDbArc
 50
315.000000000003
 51
134.9999999999969
  0
LINE
  5
1CA4
330
1718
100
AcDbEntity
  8
wpust
  6
ByBlock
100
AcDbLine
 10
1010.973074564583
 20
1033.067077402023
 30
0.0
 11
1010.973074564583
 21
1043.581796027784
 31
0.0
  0
ARC
  5
1CA5
330
1718
100
AcDbEntity
  8
wpust
  6
ByBlock
100
AcDbCircle
 10
1013.094394908143
 20
1045.703116371344
 30
0.0
 40
2.999999999999999
100
AcDbArc
 50
45.00000000000307
 51
224.9999999999984
  0
ARC
  5
1CA6
330
1718
100
AcDbEntity
  8
wpust
  6
ByBlock
100
AcDbCircle
 10
1013.094394908143
 20
1030.945757058463
 30
0.0
 40
2.999999999999999
100
AcDbArc
 50
135.0000000000016
 51
315.0000000000015
  0
LINE
  5
1CA7
330
1718
100
AcDbEntity
  8
0
100
AcDbLine
 10
1226.223074564582
 20
1106.33607210992
 30
0.0
 11
1226.223074564582
 21
1047.824436714904
 31
0.0
  0
LINE
  5
1CA8
330
1718
100
AcDbEntity
  8
0
  6
ByBlock
100
AcDbLine
 10
1185.215715251701
 20
1028.824436714904
 30
0.0
 11
1226.223074564582
 21
1028.824436714904
 31
0.0
  0
ARC
  5
1CA9
330
1718
100
AcDbEntity
  8
0
  6
ByBlock
100
AcDbCircle
 10
1183.094394908142
 20
1030.945757058463
 30
0.0
 40
2.999999999999999
100
AcDbArc
 50
134.9999999999969
 51
314.999999999997
  0
LINE
  5
1CAA
330
1718
100
AcDbEntity
  8
0
  6
ByBlock
100
AcDbLine
 10
1180.973074564582
 20
1043.581796027784
 30
0.0
 11
1180.973074564582
 21
1033.067077402023
 31
0.0
  0
LINE
  5
1CAB
330
1718
100
AcDbEntity
  8
0
  6
ByBlock
100
AcDbLine
 10
1226.223074564582
 20
1047.824436714904
 30
0.0
 11
1185.215715251701
 21
1047.824436714904
 31
0.0
  0
ARC
  5
1CAC
330
1718
100
AcDbEntity
  8
0
  6
ByBlock
100
AcDbCircle
 10
1183.094394908142
 20
1045.703116371344
 30
0.0
 40
2.999999999999999
100
AcDbArc
 50
45.00000000000307
 51
225.000000000003
  0
LINE
  5
1CAD
330
1718
100
AcDbEntity
  8
0
  6
ByBlock
100
AcDbLine
 10
1185.215740687119
 20
676.45307210992
 30
0.0
 11
1226.2231
 21
676.45307210992
 31
0.0
  0
LINE
  5
1CAE
330
1718
100
AcDbEntity
  8
0
  6
ByBlock
100
AcDbLine
 10
1226.2231
 20
695.45307210992
 30
0.0
 11
1185.215740687119
 21
695.45307210992
 31
0.0
  0
ARC
  5
1CAF
330
1718
100
AcDbEntity
  8
0
  6
ByBlock
100
AcDbCircle
 10
1183.094420343559
 20
678.5743924534796
 30
0.0
 40
2.999999999999999
100
AcDbArc
 50
134.9999999999969
 51
314.999999999997
  0
ARC
  5
1CB0
330
1718
100
AcDbEntity
  8
0
  6
ByBlock
100
AcDbCircle
 10
1183.094420343559
 20
693.3317517663603
 30
0.0
 40
2.999999999999999
100
AcDbArc
 50
45.00000000000307
 51
225.000000000003
  0
LINE
  5
1CB1
330
1718
100
AcDbEntity
  8
0
  6
ByBlock
100
AcDbLine
 10
1180.9731
 20
691.2104314228006
 30
0.0
 11
1180.9731
 21
680.6957127970393
 31
0.0
  0
ARC
  5
1CB2
330
1718
100
AcDbEntity
  8
wpust
  6
ByBlock
100
AcDbCircle
 10
1054.351779656441
 20
678.5743924534796
 30
0.0
 40
2.999999999999999
100
AcDbArc
 50
225.000000000003
 51
44.99999999999693
  0
LINE
  5
1CB3
330
1718
100
AcDbEntity
  8
wpust
  6
ByBlock
100
AcDbLine
 10
1015.21574068712
 20
676.45307210992
 30
0.0
 11
1052.230459312882
 21
676.45307210992
 31
0.0
  0
LINE
  5
1CB4
330
1718
100
AcDbEntity
  8
wpust
  6
ByBlock
100
AcDbLine
 10
1056.473100000001
 20
680.695712797039
 30
0.0
 11
1056.473100000001
 21
691.2104314228009
 31
0.0
  0
LINE
  5
1CB5
330
1718
100
AcDbEntity
  8
wpust
  6
ByBlock
100
AcDbLine
 10
1052.230459312882
 20
695.45307210992
 30
0.0
 11
1015.21574068712
 21
695.45307210992
 31
0.0
  0
ARC
  5
1CB6
330
1718
100
AcDbEntity
  8
wpust
  6
ByBlock
100
AcDbCircle
 10
1054.351779656441
 20
693.3317517663603
 30
0.0
 40
2.999999999999999
100
AcDbArc
 50
315.000000000003
 51
134.9999999999969
  0
LINE
  5
1CB7
330
1718
100
AcDbEntity
  8
wpust
  6
ByBlock
100
AcDbLine
 10
1010.973100000001
 20
680.6957127970393
 30
0.0
 11
1010.973100000001
 21
691.2104314228006
 31
0.0
  0
ARC
  5
1CB8
330
1718
100
AcDbEntity
  8
wpust
  6
ByBlock
100
AcDbCircle
 10
1013.094420343561
 20
693.3317517663603
 30
0.0
 40
2.999999999999999
100
AcDbArc
 50
45.0
 51
225.0
  0
ARC
  5
1CB9
330
1718
100
AcDbEntity
  8
wpust
  6
ByBlock
100
AcDbCircle
 10
1013.094420343561
 20
678.5743924534796
 30
0.0
 40
2.999999999999999
100
AcDbArc
 50
135.0
 51
315.0
  0
ARC
  5
1CBA
330
1718
100
AcDbEntity
  8
wpust
  6
ByBlock
100
AcDbCircle
 10
906.8517796564405
 20
678.5743924534796
 30
0.0
 40
2.999999999999999
100
AcDbArc
 50
225.0
 51
44.99999999999693
  0
LINE
  5
1CBB
330
1718
100
AcDbEntity
  8
wpust
  6
ByBlock
100
AcDbLine
 10
867.7157406871195
 20
676.45307210992
 30
0.0
 11
904.7304593128808
 21
676.45307210992
 31
0.0
  0
LINE
  5
1CBC
330
1718
100
AcDbEntity
  8
wpust
  6
ByBlock
100
AcDbLine
 10
908.9731000000003
 20
680.695712797039
 30
0.0
 11
908.9731000000003
 21
691.2104314228009
 31
0.0
  0
LINE
  5
1CBD
330
1718
100
AcDbEntity
  8
wpust
  6
ByBlock
100
AcDbLine
 10
904.730459312881
 20
695.45307210992
 30
0.0
 11
867.7157406871195
 21
695.45307210992
 31
0.0
  0
ARC
  5
1CBE
330
1718
100
AcDbEntity
  8
wpust
  6
ByBlock
100
AcDbCircle
 10
906.8517796564405
 20
693.3317517663603
 30
0.0
 40
2.999999999999999
100
AcDbArc
 50
315.000000000003
 51
134.9999999999969
  0
LINE
  5
1CBF
330
1718
100
AcDbEntity
  8
wpust
  6
ByBlock
100
AcDbLine
 10
863.4731000000002
 20
680.6957127970393
 30
0.0
 11
863.4731000000002
 21
691.2104314228006
 31
0.0
  0
ARC
  5
1CC0
330
1718
100
AcDbEntity
  8
wpust
  6
ByBlock
100
AcDbCircle
 10
865.5944203435598
 20
693.3317517663603
 30
0.0
 40
2.999999999999999
100
AcDbArc
 50
45.0
 51
225.0
  0
ARC
  5
1CC1
330
1718
100
AcDbEntity
  8
wpust
  6
ByBlock
100
AcDbCircle
 10
865.5944203435598
 20
678.5743924534796
 30
0.0
 40
2.999999999999999
100
AcDbArc
 50
135.0
 51
315.0
  0
LINE
  5
1CC2
330
1718
100
AcDbEntity
  8
0
100
AcDbLine
 10
1226.223074564582
 20
1028.824436714904
 30
0.0
 11
1226.223074564582
 21
695.45307210992
 31
0.0
  0
LINE
  5
1CC3
330
1718
100
AcDbEntity
  8
0
100
AcDbLine
 10
1226.223074564582
 20
676.45307210992
 30
0.0
 11
1226.223074564582
 21
667.8360721099198
 31
0.0
  0
ENDBLK
  5
171A
330
1718
100
AcDbEntity
  8
0
100
AcDbBlockEnd
  0
BLOCK
  5
1B5C
330
1B5B
100
AcDbEntity
  8
0
100
AcDbBlockBegin
  2
spod
 70
     0
 10
0.0
 20
0.0
 30
0.0
  3
spod
  1
spod
  0
LINE
  5
1B5E
330
1B5B
100
AcDbEntity
  8
0
100
AcDbLine
 10
467.5
 20
642.8360721099202
 30
0.0
 11
29.0
 21
642.8360721099202
 31
0.0
  0
CIRCLE
  5
1B5F
330
1B5B
100
AcDbEntity
  8
helpline
  6
ByBlock
100
AcDbCircle
 10
60.25000000000003
 20
925.5426217623017
 30
0.0
 40
2.1
  0
CIRCLE
  5
1B60
330
1B5B
100
AcDbEntity
  8
helpline
  6
ByBlock
100
AcDbCircle
 10
429.5
 20
925.5360721099203
 30
0.0
 40
2.1
  0
CIRCLE
  5
1B61
330
1B5B
100
AcDbEntity
  8
montaz-ramy
  6
ByBlock
100
AcDbCircle
 10
449.383
 20
1015.68607210992
 30
0.0
 40
2.1
  0
CIRCLE
  5
1B62
330
1B5B
100
AcDbEntity
  8
montaz-ramy
  6
ByBlock
100
AcDbCircle
 10
97.0116353950165
 20
1015.706920515778
 30
0.0
 40
2.1
  0
ARC
  5
1B63
330
1B5B
100
AcDbEntity
  8
0
100
AcDbCircle
 10
467.5
 20
1053.83607210992
 30
0.0
 40
25.0
100
AcDbArc
 50
0.0
 51
90.0
  0
ARC
  5
1B64
330
1B5B
100
AcDbEntity
  8
0
100
AcDbCircle
 10
28.99999999986904
 20
1053.836072110051
 30
0.0
 40
24.99999999986903
100
AcDbArc
 50
89.99999999969987
 51
180.0000000003002
  0
ARC
  5
1B65
330
1B5B
100
AcDbEntity
  8
0
100
AcDbCircle
 10
29.0
 20
667.8360721099202
 30
0.0
 40
25.0
100
AcDbArc
 50
180.0
 51
270.0
  0
ARC
  5
1B66
330
1B5B
100
AcDbEntity
  8
0
100
AcDbCircle
 10
467.5
 20
667.8360721099202
 30
0.0
 40
25.0
100
AcDbArc
 50
270.0
 51
0.0
  0
CIRCLE
  5
1B67
330
1B5B
100
AcDbEntity
  8
helpline
  6
ByBlock
100
AcDbCircle
 10
143.9998744098249
 20
651.3360665208528
 30
0.0
 40
2.1
  0
CIRCLE
  5
1B68
330
1B5B
100
AcDbEntity
  8
helpline
  6
ByBlock
100
AcDbCircle
 10
179.0
 20
651.3360665129665
 30
0.0
 40
2.1
  0
CIRCLE
  5
1B69
330
1B5B
100
AcDbEntity
  8
helpline
  6
ByBlock
100
AcDbCircle
 10
228.49
 20
650.3070665129665
 30
0.0
 40
2.1
  0
CIRCLE
  5
1B6A
330
1B5B
100
AcDbEntity
  8
helpline
  6
ByBlock
100
AcDbCircle
 10
258.49
 20
650.3070665129665
 30
0.0
 40
2.1
  0
CIRCLE
  5
1B6B
330
1B5B
100
AcDbEntity
  8
montaz-ramy
  6
ByBlock
100
AcDbCircle
 10
228.49
 20
713.3070665129665
 30
0.0
 40
2.1
  0
CIRCLE
  5
1B6C
330
1B5B
100
AcDbEntity
  8
helpline
  6
ByBlock
100
AcDbCircle
 10
258.49
 20
713.3070665129665
 30
0.0
 40
2.1
  0
CIRCLE
  5
1B6D
330
1B5B
100
AcDbEntity
  8
helpline
  6
ByBlock
100
AcDbCircle
 10
304.000377019828
 20
717.3361641322904
 30
0.0
 40
2.1
  0
CIRCLE
  5
1B6E
330
1B5B
100
AcDbEntity
  8
helpline
  6
ByBlock
100
AcDbCircle
 10
339.000377019828
 20
717.3361641322904
 30
0.0
 40
2.1
  0
CIRCLE
  5
1B6F
330
1B5B
100
AcDbEntity
  8
helpline
  6
ByBlock
100
AcDbCircle
 10
36.50432876212327
 20
860.8397835190746
 30
0.0
 40
3.997423034875816
  0
CIRCLE
  5
1B70
330
1B5B
100
AcDbEntity
  8
helpline
  6
ByBlock
100
AcDbCircle
 10
415.5043287621232
 20
860.8397835190746
 30
0.0
 40
3.997423034875816
  0
CIRCLE
  5
1B71
330
1B5B
100
AcDbEntity
  8
helpline
  6
ByBlock
100
AcDbCircle
 10
304.0001833178038
 20
994.3361877188515
 30
0.0
 40
2.1
  0
CIRCLE
  5
1B72
330
1B5B
100
AcDbEntity
  8
helpline
  6
ByBlock
100
AcDbCircle
 10
339.0001833178038
 20
994.3361877188515
 30
0.0
 40
2.1
  0
CIRCLE
  5
1B73
330
1B5B
100
AcDbEntity
  8
helpline
  6
ByBlock
100
AcDbCircle
 10
143.9839121159509
 20
1070.347291740263
 30
0.0
 40
2.1
  0
CIRCLE
  5
1B74
330
1B5B
100
AcDbEntity
  8
helpline
  6
ByBlock
100
AcDbCircle
 10
178.9840377061259
 20
1070.347291732377
 30
0.0
 40
2.1
  0
CIRCLE
  5
1B75
330
1B5B
100
AcDbEntity
  8
helpline
  6
ByBlock
100
AcDbCircle
 10
209.9897401900915
 20
1056.336102182132
 30
0.0
 40
2.1
  0
CIRCLE
  5
1B76
330
1B5B
100
AcDbEntity
  8
helpline
  6
ByBlock
100
AcDbCircle
 10
220.4976791832188
 20
957.6153844908408
 30
0.0
 40
2.1
  0
CIRCLE
  5
1B77
330
1B5B
100
AcDbEntity
  8
helpline
  6
ByBlock
100
AcDbCircle
 10
262.5176791832188
 20
957.6153844908408
 30
0.0
 40
2.1
  0
CIRCLE
  5
1B78
330
1B5B
100
AcDbEntity
  8
helpline
  6
ByBlock
100
AcDbCircle
 10
268.2494679355287
 20
1010.108384490841
 30
0.0
 40
2.1
  0
LINE
  5
1B79
330
1B5B
100
AcDbEntity
  8
0
100
AcDbLine
 10
4.0
 20
667.8360721099202
 30
0.0
 11
4.0
 21
916.0426217623017
 31
0.0
  0
LINE
  5
1B7A
330
1B5B
100
AcDbEntity
  8
0
  6
ByBlock
100
AcDbLine
 10
4.0
 20
935.0426217623017
 30
0.0
 11
4.000000000000004
 21
1053.83607210992
 31
0.0
  0
LINE
  5
1B7B
330
1B5B
100
AcDbEntity
  8
0
  6
ByBlock
100
AcDbLine
 10
49.24999999999999
 20
930.7999810751824
 30
0.0
 11
49.24999999999999
 21
920.285262449421
 31
0.0
  0
LINE
  5
1B7C
330
1B5B
100
AcDbEntity
  8
0
  6
ByBlock
100
AcDbLine
 10
45.00735931288073
 20
935.0426217623017
 30
0.0
 11
4.0
 21
935.0426217623017
 31
0.0
  0
ARC
  5
1B7D
330
1B5B
100
AcDbEntity
  8
0
  6
ByBlock
100
AcDbCircle
 10
47.12867965644035
 20
932.921301418742
 30
0.0
 40
2.999999999999999
100
AcDbArc
 50
314.9999999999995
 51
134.9999999999995
  0
LINE
  5
1B7E
330
1B5B
100
AcDbEntity
  8
0
  6
ByBlock
100
AcDbLine
 10
45.00735931288073
 20
916.0426217623017
 30
0.0
 11
4.0
 21
916.0426217623017
 31
0.0
  0
ARC
  5
1B7F
330
1B5B
100
AcDbEntity
  8
0
  6
ByBlock
100
AcDbCircle
 10
47.12867965644035
 20
918.1639421058613
 30
0.0
 40
2.999999999999999
100
AcDbArc
 50
225.0000000000005
 51
45.00000000000039
  0
LINE
  5
1B80
330
1B5B
100
AcDbEntity
  8
wpust
  6
ByBlock
100
AcDbLine
 10
71.25000000000004
 20
930.7999810751824
 30
0.0
 11
71.25000000000006
 21
920.285262449421
 31
0.0
  0
ARC
  5
1B81
330
1B5B
100
AcDbEntity
  8
wpust
  6
ByBlock
100
AcDbCircle
 10
73.3713203435597
 20
932.921301418742
 30
0.0
 40
3.000000000000001
100
AcDbArc
 50
45.00000000000039
 51
225.0000000000004
  0
ARC
  5
1B82
330
1B5B
100
AcDbEntity
  8
wpust
  6
ByBlock
100
AcDbCircle
 10
73.3713203435597
 20
918.1639421058613
 30
0.0
 40
3.000000000000001
100
AcDbArc
 50
134.9999999999996
 51
314.9999999999997
  0
LINE
  5
1B83
330
1B5B
100
AcDbEntity
  8
wpust
  6
ByBlock
100
AcDbLine
 10
116.7500000000001
 20
930.7999810751824
 30
0.0
 11
116.7500000000001
 21
920.285262449421
 31
0.0
  0
ARC
  5
1B84
330
1B5B
100
AcDbEntity
  8
wpust
  6
ByBlock
100
AcDbCircle
 10
114.6286796564405
 20
918.1639421058613
 30
0.0
 40
2.999999999999999
100
AcDbArc
 50
225.0000000000006
 51
45.00000000000039
  0
ARC
  5
1B85
330
1B5B
100
AcDbEntity
  8
wpust
  6
ByBlock
100
AcDbCircle
 10
409.6286796564405
 20
918.1639421058613
 30
0.0
 40
3.000000000000001
100
AcDbArc
 50
225.0000000000008
 51
45.0
  0
ARC
  5
1B86
330
1B5B
100
AcDbEntity
  8
wpust
  6
ByBlock
100
AcDbCircle
 10
114.6286796564405
 20
932.921301418742
 30
0.0
 40
2.999999999999999
100
AcDbArc
 50
314.9999999999997
 51
134.9999999999994
  0
LINE
  5
1B87
330
1B5B
100
AcDbEntity
  8
wpust
  6
ByBlock
100
AcDbLine
 10
75.49264068711933
 20
916.0426217623017
 30
0.0
 11
112.5073593128809
 21
916.0426217623017
 31
0.0
  0
LINE
  5
1B88
330
1B5B
100
AcDbEntity
  8
wpust
  6
ByBlock
100
AcDbLine
 10
112.5073593128809
 20
935.0426217623017
 30
0.0
 11
75.49264068711933
 21
935.0426217623017
 31
0.0
  0
LINE
  5
1B89
330
1B5B
100
AcDbEntity
  8
wpust
  6
ByBlock
100
AcDbLine
 10
411.7500000000002
 20
930.7999810751824
 30
0.0
 11
411.7500000000002
 21
920.285262449421
 31
0.0
  0
ARC
  5
1B8A
330
1B5B
100
AcDbEntity
  8
wpust
  6
ByBlock
100
AcDbCircle
 10
409.6286796564405
 20
932.921301418742
 30
0.0
 40
3.000000000000001
100
AcDbArc
 50
315.0
 51
134.9999999999992
  0
LINE
  5
1B8B
330
1B5B
100
AcDbEntity
  8
wpust
  6
ByBlock
100
AcDbLine
 10
370.4926406871194
 20
935.0426217623017
 30
0.0
 11
407.5073593128809
 21
935.0426217623017
 31
0.0
  0
LINE
  5
1B8C
330
1B5B
100
AcDbEntity
  8
wpust
  6
ByBlock
100
AcDbLine
 10
407.5073593128809
 20
916.0426217623017
 30
0.0
 11
370.4926406871194
 21
916.0426217623017
 31
0.0
  0
ARC
  5
1B8D
330
1B5B
100
AcDbEntity
  8
wpust
  6
ByBlock
100
AcDbCircle
 10
368.3713203435598
 20
918.1639421058613
 30
0.0
 40
2.999999999999999
100
AcDbArc
 50
135.0
 51
314.9999999999993
  0
LINE
  5
1B8E
330
1B5B
100
AcDbEntity
  8
wpust
  6
ByBlock
100
AcDbLine
 10
366.2500000000001
 20
930.7999810751824
 30
0.0
 11
366.2500000000001
 21
920.285262449421
 31
0.0
  0
ARC
  5
1B8F
330
1B5B
100
AcDbEntity
  8
wpust
  6
ByBlock
100
AcDbCircle
 10
368.3713203435598
 20
932.921301418742
 30
0.0
 40
2.999999999999999
100
AcDbArc
 50
45.00000000000077
 51
225.0
  0
LINE
  5
1B90
330
1B5B
100
AcDbEntity
  8
0
  6
ByBlock
100
AcDbLine
 10
451.4926406871193
 20
916.0426217623017
 30
0.0
 11
492.5
 21
916.0426217623017
 31
0.0
  0
LINE
  5
1B91
330
1B5B
100
AcDbEntity
  8
0
  6
ByBlock
100
AcDbLine
 10
451.4926406871193
 20
935.0426217623017
 30
0.0
 11
492.5
 21
935.0426217623017
 31
0.0
  0
LINE
  5
1B92
330
1B5B
100
AcDbEntity
  8
0
  6
ByBlock
100
AcDbLine
 10
447.25
 20
930.7999810751824
 30
0.0
 11
447.25
 21
920.285262449421
 31
0.0
  0
ARC
  5
1B93
330
1B5B
100
AcDbEntity
  8
0
  6
ByBlock
100
AcDbCircle
 10
449.3713203435597
 20
932.921301418742
 30
0.0
 40
2.999999999999999
100
AcDbArc
 50
45.00000000000077
 51
225.0
  0
ARC
  5
1B94
330
1B5B
100
AcDbEntity
  8
0
  6
ByBlock
100
AcDbCircle
 10
449.3713203435597
 20
918.1639421058613
 30
0.0
 40
2.999999999999999
100
AcDbArc
 50
135.0
 51
314.9999999999993
  0
LINE
  5
1B95
330
1B5B
100
AcDbEntity
  8
0
100
AcDbLine
 10
492.5
 20
1053.83607210992
 30
0.0
 11
492.5
 21
935.0426217623017
 31
0.0
  0
LINE
  5
1B96
330
1B5B
100
AcDbEntity
  8
0
100
AcDbLine
 10
492.5
 20
916.0426217623017
 30
0.0
 11
492.5
 21
667.8360721099202
 31
0.0
  0
ARC
  5
1B97
330
1B5B
100
AcDbEntity
  8
wpust
  6
ByBlock
100
AcDbCircle
 10
104.3903150514569
 20
995.6856001722182
 30
0.0
 40
3.0
100
AcDbArc
 50
314.9999999999997
 51
134.9999999999992
  0
ARC
  5
1B98
330
1B5B
100
AcDbEntity
  8
wpust
  6
ByBlock
100
AcDbCircle
 10
89.63295573857616
 20
954.4282408593375
 30
0.0
 40
3.0
100
AcDbArc
 50
134.9999999999996
 51
314.9999999999997
  0
LINE
  5
1B99
330
1B5B
100
AcDbEntity
  8
wpust
  6
ByBlock
100
AcDbLine
 10
91.75427608213579
 20
952.3069205157778
 30
0.0
 11
102.2689947078972
 21
952.3069205157778
 31
0.0
  0
LINE
  5
1B9A
330
1B5B
100
AcDbEntity
  8
wpust
  6
ByBlock
100
AcDbLine
 10
87.51163539501657
 20
993.5642798286585
 30
0.0
 11
87.51163539501651
 21
956.5495612028972
 31
0.0
  0
ARC
  5
1B9B
330
1B5B
100
AcDbEntity
  8
wpust
  6
ByBlock
100
AcDbCircle
 10
104.3903150514569
 20
954.4282408593375
 30
0.0
 40
3.0
100
AcDbArc
 50
225.0000000000004
 51
45.00000000000039
  0
ARC
  5
1B9C
330
1B5B
100
AcDbEntity
  8
wpust
  6
ByBlock
100
AcDbCircle
 10
89.63295573857616
 20
995.6856001722182
 30
0.0
 40
3.0
100
AcDbArc
 50
45.00000000000346
 51
225.0000000000006
  0
LINE
  5
1B9D
330
1B5B
100
AcDbEntity
  8
wpust
  6
ByBlock
100
AcDbLine
 10
102.2689947078973
 20
997.8069205157778
 30
0.0
 11
91.75427608213568
 21
997.806920515778
 31
0.0
  0
ARC
  5
1B9E
330
1B5B
100
AcDbEntity
  8
wpust
  6
ByBlock
100
AcDbCircle
 10
456.7616796564403
 20
954.4073924534798
 30
0.0
 40
3.0
100
AcDbArc
 50
225.0000000000008
 51
45.00000000000077
  0
LINE
  5
1B9F
330
1B5B
100
AcDbEntity
  8
wpust
  6
ByBlock
100
AcDbLine
 10
106.5116353950165
 20
956.5495612028972
 30
0.0
 11
106.5116353950165
 21
993.5642798286585
 31
0.0
  0
LINE
  5
1BA0
330
1B5B
100
AcDbEntity
  8
wpust
  6
ByBlock
100
AcDbLine
 10
439.883
 20
993.5434314228007
 30
0.0
 11
439.883
 21
956.5287127970395
 31
0.0
  0
ARC
  5
1BA1
330
1B5B
100
AcDbEntity
  8
wpust
  6
ByBlock
100
AcDbCircle
 10
456.7616796564403
 20
995.6647517663605
 30
0.0
 40
3.0
100
AcDbArc
 50
314.9999999999993
 51
134.9999999999969
  0
ARC
  5
1BA2
330
1B5B
100
AcDbEntity
  8
wpust
  6
ByBlock
100
AcDbCircle
 10
442.0043203435596
 20
954.4073924534798
 30
0.0
 40
3.0
100
AcDbArc
 50
134.9999999999992
 51
315.0
  0
LINE
  5
1BA3
330
1B5B
100
AcDbEntity
  8
wpust
  6
ByBlock
100
AcDbLine
 10
444.1256406871192
 20
952.2860721099202
 30
0.0
 11
454.6403593128807
 21
952.2860721099202
 31
0.0
  0
ARC
  5
1BA4
330
1B5B
100
AcDbEntity
  8
wpust
  6
ByBlock
100
AcDbCircle
 10
442.0043203435596
 20
995.6647517663605
 30
0.0
 40
3.0
100
AcDbArc
 50
45.00000000000307
 51
225.000000000003
  0
LINE
  5
1BA5
330
1B5B
100
AcDbEntity
  8
wpust
  6
ByBlock
100
AcDbLine
 10
454.6403593128808
 20
997.7860721099203
 30
0.0
 11
444.1256406871191
 21
997.7860721099203
 31
0.0
  0
LINE
  5
1BA6
330
1B5B
100
AcDbEntity
  8
wpust
  6
ByBlock
100
AcDbLine
 10
458.883
 20
956.5287127970395
 30
0.0
 11
458.883
 21
993.5434314228008
 31
0.0
  0
LINE
  5
1BA7
330
1B5B
100
AcDbEntity
  8
0
  6
ByBlock
100
AcDbLine
 10
29.0
 20
1078.83607210992
 30
0.0
 11
87.51163539501647
 21
1078.83607210992
 31
0.0
  0
ARC
  5
1BA8
330
1B5B
100
AcDbEntity
  8
0
  6
ByBlock
100
AcDbCircle
 10
89.63295573857611
 20
1035.728240859338
 30
0.0
 40
2.999999999999999
100
AcDbArc
 50
135.0000000000023
 51
314.9999999999968
  0
LINE
  5
1BA9
330
1B5B
100
AcDbEntity
  8
0
  6
ByBlock
100
AcDbLine
 10
439.8829999999999
 20
1037.82871279704
 30
0.0
 11
439.8829999999999
 21
1078.83607210992
 31
0.0
  0
LINE
  5
1BAA
330
1B5B
100
AcDbEntity
  8
0
  6
ByBlock
100
AcDbLine
 10
87.51163539501647
 20
1037.849561202897
 30
0.0
 11
87.51163539501647
 21
1078.83607210992
 31
0.0
  0
LINE
  5
1BAB
330
1B5B
100
AcDbEntity
  8
0
  6
ByBlock
100
AcDbLine
 10
91.75427608213573
 20
1033.606920515778
 30
0.0
 11
102.2689947078972
 21
1033.606920515778
 31
0.0
  0
LINE
  5
1BAC
330
1B5B
100
AcDbEntity
  8
0
  6
ByBlock
100
AcDbLine
 10
106.5116353950165
 20
1078.83607210992
 30
0.0
 11
106.5116353950165
 21
1037.849561202897
 31
0.0
  0
ARC
  5
1BAD
330
1B5B
100
AcDbEntity
  8
0
  6
ByBlock
100
AcDbCircle
 10
104.3903150514568
 20
1035.728240859338
 30
0.0
 40
2.999999999999999
100
AcDbArc
 50
225.0000000000032
 51
44.9999999999977
  0
LINE
  5
1BAE
330
1B5B
100
AcDbEntity
  8
0
  6
ByBlock
100
AcDbLine
 10
458.8829999999999
 20
1078.83607210992
 30
0.0
 11
458.8829999999999
 21
1037.82871279704
 31
0.0
  0
ARC
  5
1BAF
330
1B5B
100
AcDbEntity
  8
0
  6
ByBlock
100
AcDbCircle
 10
456.7616796564403
 20
1035.70739245348
 30
0.0
 40
2.999999999999999
100
AcDbArc
 50
224.9999999999977
 51
45.00000000000307
  0
LINE
  5
1BB0
330
1B5B
100
AcDbEntity
  8
0
  6
ByBlock
100
AcDbLine
 10
444.1256406871192
 20
1033.58607210992
 30
0.0
 11
454.6403593128807
 21
1033.58607210992
 31
0.0
  0
ARC
  5
1BB1
330
1B5B
100
AcDbEntity
  8
0
  6
ByBlock
100
AcDbCircle
 10
442.0043203435596
 20
1035.70739245348
 30
0.0
 40
2.999999999999999
100
AcDbArc
 50
134.9999999999969
 51
315.0000000000022
  0
LINE
  5
1BB2
330
1B5B
100
AcDbEntity
  8
0
100
AcDbLine
 10
458.8829999999999
 20
1078.83607210992
 30
0.0
 11
467.5
 21
1078.83607210992
 31
0.0
  0
LINE
  5
1BB3
330
1B5B
100
AcDbEntity
  8
0
100
AcDbLine
 10
106.5116353950165
 20
1078.83607210992
 30
0.0
 11
439.8829999999999
 21
1078.83607210992
 31
0.0
  0
ENDBLK
  5
1B5D
330
1B5B
100
AcDbEntity
  8
0
100
AcDbBlockEnd
  0
BLOCK
  5
1BB6
330
1BB5
100
AcDbEntity
  8
0
100
AcDbBlockBegin
  2
bok
 70
     0
 10
0.0
 20
0.0
 30
0.0
  3
bok
  1
bok
  0
LINE
  5
1BB8
330
1BB5
100
AcDbEntity
  8
0
100
AcDbLine
 10
545.7235894530703
 20
659.8360721099202
 30
0.0
 11
557.630948765951
 21
659.8360721099202
 31
0.0
  0
LINE
  5
1BB9
330
1BB5
100
AcDbEntity
  8
0
  6
ByBlock
100
AcDbLine
 10
496.480948765951
 20
659.8360721099202
 30
0.0
 11
496.4809487659511
 21
969.8360721099202
 31
0.0
  0
LINE
  5
1BBA
330
1BB5
100
AcDbEntity
  8
0
  6
ByBlock
100
AcDbLine
 10
657.6520116652667
 20
1044.83607210992
 30
0.0
 11
657.6520116652666
 21
999.8256479069914
 31
0.0
  0
LINE
  5
1BBB
330
1BB5
100
AcDbEntity
  8
0
  6
ByBlock
100
AcDbLine
 10
657.6520116652666
 20
874.8256479069913
 30
0.0
 11
657.6520116652666
 21
829.8256479069913
 31
0.0
  0
LINE
  5
1BBC
330
1BB5
100
AcDbEntity
  8
0
  6
ByBlock
100
AcDbLine
 10
657.6520116652665
 20
727.3152237040626
 30
0.0
 11
657.6520116652665
 21
682.3152237040626
 31
0.0
  0
LINE
  5
1BBD
330
1BB5
100
AcDbEntity
  8
0
  6
ByBlock
100
AcDbLine
 10
622.7809487659509
 20
655.5934314228009
 30
0.0
 11
622.7809487659509
 21
642.8360721099202
 31
0.0
  0
LINE
  5
1BBE
330
1BB5
100
AcDbEntity
  8
0
  6
ByBlock
100
AcDbLine
 10
622.7809487659509
 20
642.8360721099202
 30
0.0
 11
577.7809487659509
 21
642.8360721099202
 31
0.0
  0
LINE
  5
1BBF
330
1BB5
100
AcDbEntity
  8
0
  6
ByBlock
100
AcDbLine
 10
577.7809487659509
 20
642.8360721099202
 30
0.0
 11
577.7809487659509
 21
655.5934314228009
 31
0.0
  0
LINE
  5
1BC0
330
1BB5
100
AcDbEntity
  8
0
  6
ByBlock
100
AcDbLine
 10
541.480948765951
 20
655.5934314228009
 30
0.0
 11
541.480948765951
 21
642.8360721099202
 31
0.0
  0
LINE
  5
1BC1
330
1BB5
100
AcDbEntity
  8
0
  6
ByBlock
100
AcDbLine
 10
541.480948765951
 20
642.8360721099202
 30
0.0
 11
496.480948765951
 21
642.8360721099202
 31
0.0
  0
LINE
  5
1BC2
330
1BB5
100
AcDbEntity
  8
0
  6
ByBlock
100
AcDbLine
 10
496.480948765951
 20
642.8360721099202
 30
0.0
 11
496.480948765951
 21
659.8360721099202
 31
0.0
  0
LINE
  5
1BC3
330
1BB5
100
AcDbEntity
  8
0
100
AcDbLine
 10
627.0235894530703
 20
659.8360721099202
 30
0.0
 11
640.6520116652665
 21
659.8360721099202
 31
0.0
  0
LINE
  5
1BC4
330
1BB5
100
AcDbEntity
  8
0
100
AcDbLine
 10
630.6520236248218
 20
784.6423108053425
 30
0.0
 11
634.6520236248218
 21
784.6423108053425
 31
0.0
  0
LINE
  5
1BC5
330
1BB5
100
AcDbEntity
  8
0
100
AcDbLine
 10
622.889523624822
 20
780.570435805527
 30
0.0
 11
630.6520236248218
 21
780.570435805527
 31
0.0
  0
LINE
  5
1BC6
330
1BB5
100
AcDbEntity
  8
0
100
AcDbLine
 10
630.6520236248218
 20
776.570435805527
 30
0.0
 11
630.6520236248218
 21
772.4985608057118
 31
0.0
  0
LINE
  5
1BC7
330
1BB5
100
AcDbEntity
  8
0
100
AcDbLine
 10
634.6520236248218
 20
772.4985608057118
 30
0.0
 11
634.6520236248218
 21
776.570435805527
 31
0.0
  0
LINE
  5
1BC8
330
1BB5
100
AcDbEntity
  8
0
100
AcDbLine
 10
634.6520236248218
 20
776.570435805527
 30
0.0
 11
640.6520116652666
 21
776.570435805527
 31
0.0
  0
LINE
  5
1BC9
330
1BB5
100
AcDbEntity
  8
0
100
AcDbLine
 10
634.6520236248218
 20
780.570435805527
 30
0.0
 11
640.6520116652666
 21
780.570435805527
 31
0.0
  0
LINE
  5
1BCA
330
1BB5
100
AcDbEntity
  8
0
100
AcDbLine
 10
634.6520236248218
 20
784.6423108053425
 30
0.0
 11
634.6520236248218
 21
780.570435805527
 31
0.0
  0
LINE
  5
1BCB
330
1BB5
100
AcDbEntity
  8
0
100
AcDbLine
 10
622.889523624822
 20
776.570435805527
 30
0.0
 11
630.6520236248218
 21
776.570435805527
 31
0.0
  0
LINE
  5
1BCC
330
1BB5
100
AcDbEntity
  8
0
100
AcDbLine
 10
630.6520236248218
 20
772.4985608057118
 30
0.0
 11
634.6520236248218
 21
772.4985608057118
 31
0.0
  0
LINE
  5
1BCD
330
1BB5
100
AcDbEntity
  8
0
100
AcDbLine
 10
622.889523624822
 20
776.570435805527
 30
0.0
 11
622.889523624822
 21
780.570435805527
 31
0.0
  0
LINE
  5
1BCE
330
1BB5
100
AcDbEntity
  8
0
100
AcDbLine
 10
630.6520236248218
 20
784.6423108053425
 30
0.0
 11
630.6520236248218
 21
780.570435805527
 31
0.0
  0
LINE
  5
1BCF
330
1BB5
100
AcDbEntity
  8
0
100
AcDbLine
 10
630.6520236248218
 20
943.3975229068069
 30
0.0
 11
634.6520236248218
 21
943.3975229068069
 31
0.0
  0
LINE
  5
1BD0
330
1BB5
100
AcDbEntity
  8
0
100
AcDbLine
 10
622.889523624822
 20
939.3256479069913
 30
0.0
 11
630.6520236248218
 21
939.3256479069913
 31
0.0
  0
LINE
  5
1BD1
330
1BB5
100
AcDbEntity
  8
0
100
AcDbLine
 10
630.6520236248218
 20
935.3256479069913
 30
0.0
 11
630.6520236248218
 21
931.2537729071762
 31
0.0
  0
LINE
  5
1BD2
330
1BB5
100
AcDbEntity
  8
0
100
AcDbLine
 10
634.6520236248218
 20
931.2537729071762
 30
0.0
 11
634.6520236248218
 21
935.3256479069913
 31
0.0
  0
LINE
  5
1BD3
330
1BB5
100
AcDbEntity
  8
0
100
AcDbLine
 10
634.6520236248218
 20
935.3256479069913
 30
0.0
 11
640.6520116652666
 21
935.3256479069913
 31
0.0
  0
LINE
  5
1BD4
330
1BB5
100
AcDbEntity
  8
0
100
AcDbLine
 10
634.6520236248218
 20
939.3256479069913
 30
0.0
 11
640.6520116652666
 21
939.3256479069913
 31
0.0
  0
LINE
  5
1BD5
330
1BB5
100
AcDbEntity
  8
0
100
AcDbLine
 10
634.6520236248218
 20
943.3975229068069
 30
0.0
 11
634.6520236248218
 21
939.3256479069913
 31
0.0
  0
LINE
  5
1BD6
330
1BB5
100
AcDbEntity
  8
0
100
AcDbLine
 10
622.889523624822
 20
935.3256479069913
 30
0.0
 11
630.6520236248218
 21
935.3256479069913
 31
0.0
  0
LINE
  5
1BD7
330
1BB5
100
AcDbEntity
  8
0
100
AcDbLine
 10
630.6520236248218
 20
931.2537729071762
 30
0.0
 11
634.6520236248218
 21
931.2537729071762
 31
0.0
  0
LINE
  5
1BD8
330
1BB5
100
AcDbEntity
  8
0
100
AcDbLine
 10
622.889523624822
 20
935.3256479069913
 30
0.0
 11
622.889523624822
 21
939.3256479069913
 31
0.0
  0
LINE
  5
1BD9
330
1BB5
100
AcDbEntity
  8
0
100
AcDbLine
 10
630.6520236248218
 20
943.3975229068069
 30
0.0
 11
630.6520236248218
 21
939.3256479069913
 31
0.0
  0
LINE
  5
1BDA
330
1BB5
100
AcDbEntity
  8
0
100
AcDbLine
 10
565.7028237657664
 20
669.836060150365
 30
0.0
 11
565.7028237657664
 21
665.836060150365
 31
0.0
  0
LINE
  5
1BDB
330
1BB5
100
AcDbEntity
  8
0
100
AcDbLine
 10
561.630948765951
 20
677.5985601503648
 30
0.0
 11
561.630948765951
 21
669.836060150365
 31
0.0
  0
LINE
  5
1BDC
330
1BB5
100
AcDbEntity
  8
0
100
AcDbLine
 10
557.630948765951
 20
669.836060150365
 30
0.0
 11
553.5590737661357
 21
669.836060150365
 31
0.0
  0
LINE
  5
1BDD
330
1BB5
100
AcDbEntity
  8
0
100
AcDbLine
 10
553.5590737661357
 20
665.836060150365
 30
0.0
 11
557.630948765951
 21
665.836060150365
 31
0.0
  0
LINE
  5
1BDE
330
1BB5
100
AcDbEntity
  8
0
100
AcDbLine
 10
557.630948765951
 20
665.836060150365
 30
0.0
 11
557.630948765951
 21
659.8360721099202
 31
0.0
  0
LINE
  5
1BDF
330
1BB5
100
AcDbEntity
  8
0
100
AcDbLine
 10
561.630948765951
 20
665.836060150365
 30
0.0
 11
561.630948765951
 21
659.8360721099202
 31
0.0
  0
LINE
  5
1BE0
330
1BB5
100
AcDbEntity
  8
0
100
AcDbLine
 10
565.7028237657664
 20
665.836060150365
 30
0.0
 11
561.630948765951
 21
665.836060150365
 31
0.0
  0
LINE
  5
1BE1
330
1BB5
100
AcDbEntity
  8
0
100
AcDbLine
 10
557.630948765951
 20
677.5985601503648
 30
0.0
 11
557.630948765951
 21
669.836060150365
 31
0.0
  0
LINE
  5
1BE2
330
1BB5
100
AcDbEntity
  8
0
100
AcDbLine
 10
553.5590737661357
 20
669.836060150365
 30
0.0
 11
553.5590737661357
 21
665.836060150365
 31
0.0
  0
LINE
  5
1BE3
330
1BB5
100
AcDbEntity
  8
0
100
AcDbLine
 10
557.630948765951
 20
677.5985601503648
 30
0.0
 11
561.630948765951
 21
677.5985601503648
 31
0.0
  0
LINE
  5
1BE4
330
1BB5
100
AcDbEntity
  8
0
100
AcDbLine
 10
565.7028237657664
 20
669.836060150365
 30
0.0
 11
561.630948765951
 21
669.836060150365
 31
0.0
  0
LINE
  5
1BE5
330
1BB5
100
AcDbEntity
  8
0
100
AcDbLine
 10
561.630948765951
 20
659.8360721099202
 30
0.0
 11
573.5383080788316
 21
659.8360721099202
 31
0.0
  0
ARC
  5
1BE6
330
1BB5
100
AcDbEntity
  8
0
  6
ByBlock
100
AcDbCircle
 10
571.480948765951
 20
969.8360721099202
 30
0.0
 40
74.99999999999997
100
AcDbArc
 50
89.99999999999991
 51
180.0
  0
LINE
  5
1BE7
330
1BB5
100
AcDbEntity
  8
wpust
  6
ByBlock
100
AcDbLine
 10
631.7164802156088
 20
675.8360721099202
 30
0.0
 11
631.7164802156088
 21
683.8360721099202
 31
0.0
  0
LINE
  5
1BE8
330
1BB5
100
AcDbEntity
  8
wpust
  6
ByBlock
100
AcDbLine
 10
631.7164802156088
 20
683.8360721099202
 30
0.0
 11
577.7809487659509
 21
683.8360721099202
 31
0.0
  0
LINE
  5
1BE9
330
1BB5
100
AcDbEntity
  8
wpust
  6
ByBlock
100
AcDbLine
 10
577.7809487659509
 20
683.8360721099202
 30
0.0
 11
577.7809487659509
 21
675.8360721099202
 31
0.0
  0
LINE
  5
1BEA
330
1BB5
100
AcDbEntity
  8
wpust
  6
ByBlock
100
AcDbLine
 10
577.7809487659509
 20
675.8360721099202
 30
0.0
 11
631.7164802156088
 21
675.8360721099202
 31
0.0
  0
LINE
  5
1BEB
330
1BB5
100
AcDbEntity
  8
0
  6
ByBlock
100
AcDbLine
 10
644.894652352386
 20
999.8256479069914
 30
0.0
 11
657.6520116652666
 21
999.8256479069914
 31
0.0
  0
LINE
  5
1BEC
330
1BB5
100
AcDbEntity
  8
0
100
AcDbLine
 10
640.6520116652666
 20
939.3256479069915
 30
0.0
 11
640.6520116652666
 21
995.5830072198723
 31
0.0
  0
LINE
  5
1BED
330
1BB5
100
AcDbEntity
  8
0
  6
ByBlock
100
AcDbLine
 10
644.8946523523858
 20
829.8256479069915
 30
0.0
 11
657.6520116652666
 21
829.8256479069915
 31
0.0
  0
LINE
  5
1BEE
330
1BB5
100
AcDbEntity
  8
0
  6
ByBlock
100
AcDbLine
 10
657.6520116652666
 20
874.8256479069915
 30
0.0
 11
644.8946523523863
 21
874.8256479069915
 31
0.0
  0
LINE
  5
1BEF
330
1BB5
100
AcDbEntity
  8
0
100
AcDbLine
 10
640.6520116652666
 20
879.0682885941104
 30
0.0
 11
640.6520116652666
 21
935.3256479069915
 31
0.0
  0
LINE
  5
1BF0
330
1BB5
100
AcDbEntity
  8
0
100
AcDbLine
 10
640.6520116652666
 20
780.5704358055272
 30
0.0
 11
640.6520116652666
 21
825.5830072198721
 31
0.0
  0
LINE
  5
1BF1
330
1BB5
100
AcDbEntity
  8
0
  6
ByBlock
100
AcDbLine
 10
657.6520116652665
 20
727.3152237040628
 30
0.0
 11
644.8946523523861
 21
727.3152237040628
 31
0.0
  0
LINE
  5
1BF2
330
1BB5
100
AcDbEntity
  8
0
  6
ByBlock
100
AcDbLine
 10
657.6520116652665
 20
682.3152237040628
 30
0.0
 11
644.8946523523858
 21
682.3152237040628
 31
0.0
  0
LINE
  5
1BF3
330
1BB5
100
AcDbEntity
  8
0
100
AcDbLine
 10
640.6520116652665
 20
731.5578643911817
 30
0.0
 11
640.6520116652666
 21
776.5704358055272
 31
0.0
  0
LINE
  5
1BF4
330
1BB5
100
AcDbEntity
  8
0
100
AcDbLine
 10
640.6520116652665
 20
659.8360721099203
 30
0.0
 11
640.6520116652665
 21
678.0725830169436
 31
0.0
  0
ARC
  5
1BF5
330
1BB5
100
AcDbEntity
  8
0
  6
ByBlock
100
AcDbCircle
 10
543.6022691095106
 20
657.7147517663606
 30
0.0
 40
2.999999999999999
100
AcDbArc
 50
45.0
 51
225.0
  0
ARC
  5
1BF6
330
1BB5
100
AcDbEntity
  8
0
  6
ByBlock
100
AcDbCircle
 10
575.6596284223913
 20
657.7147517663606
 30
0.0
 40
2.999999999999999
100
AcDbArc
 50
315.0
 51
135.0
  0
ARC
  5
1BF7
330
1BB5
100
AcDbEntity
  8
0
  6
ByBlock
100
AcDbCircle
 10
624.9022691095106
 20
657.7147517663606
 30
0.0
 40
3.0
100
AcDbArc
 50
45.0
 51
225.0
  0
ARC
  5
1BF8
330
1BB5
100
AcDbEntity
  8
0
  6
ByBlock
100
AcDbCircle
 10
642.7733320088262
 20
680.1939033605031
 30
0.0
 40
2.999999999999999
100
AcDbArc
 50
45.0
 51
224.9999999999984
  0
ARC
  5
1BF9
330
1BB5
100
AcDbEntity
  8
0
  6
ByBlock
100
AcDbCircle
 10
642.7733320088262
 20
729.4365440476222
 30
0.0
 40
2.999999999999999
100
AcDbArc
 50
135.0000000000016
 51
315.0
  0
ARC
  5
1BFA
330
1BB5
100
AcDbEntity
  8
0
  6
ByBlock
100
AcDbCircle
 10
642.7733320088263
 20
827.7043275634319
 30
0.0
 40
2.999999999999999
100
AcDbArc
 50
44.99999999999847
 51
225.0
  0
ARC
  5
1BFB
330
1BB5
100
AcDbEntity
  8
0
  6
ByBlock
100
AcDbCircle
 10
642.7733320088263
 20
876.9469682505508
 30
0.0
 40
2.999999999999999
100
AcDbArc
 50
135.0
 51
315.0000000000015
  0
ARC
  5
1BFC
330
1BB5
100
AcDbEntity
  8
0
  6
ByBlock
100
AcDbCircle
 10
642.7733320088263
 20
997.7043275634319
 30
0.0
 40
2.999999999999999
100
AcDbArc
 50
45.00000000000154
 51
224.9999999999984
  0
LINE
  5
1BFD
330
1BB5
100
AcDbEntity
  8
0
  6
ByBlock
100
AcDbLine
 10
571.480948765951
 20
1044.83607210992
 30
0.0
 11
657.6520116652667
 21
1044.83607210992
 31
0.0
  0
CIRCLE
  5
1BFE
330
1BB5
100
AcDbEntity
  8
montaz-ramy
  6
ByBlock
100
AcDbCircle
 10
604.7487144907799
 20
704.8152237040626
 30
0.0
 40
2.0
  0
CIRCLE
  5
1BFF
330
1BB5
100
AcDbEntity
  8
montaz-ramy
  6
ByBlock
100
AcDbCircle
 10
596.7487144907799
 20
704.8152237040626
 30
0.0
 40
2.0
  0
CIRCLE
  5
1C00
330
1BB5
100
AcDbEntity
  8
helpline
  6
ByBlock
100
AcDbCircle
 10
604.7487144907799
 20
852.3256479069913
 30
0.0
 40
2.0
  0
CIRCLE
  5
1C01
330
1BB5
100
AcDbEntity
  8
helpline
  6
ByBlock
100
AcDbCircle
 10
596.7487144907799
 20
852.3256479069913
 30
0.0
 40
2.0
  0
CIRCLE
  5
1C02
330
1BB5
100
AcDbEntity
  8
montaz-ramy
  6
ByBlock
100
AcDbCircle
 10
604.7487144907799
 20
1022.325647906991
 30
0.0
 40
2.0
  0
CIRCLE
  5
1C03
330
1BB5
100
AcDbEntity
  8
montaz-ramy
  6
ByBlock
100
AcDbCircle
 10
596.7487144907799
 20
1022.325647906991
 30
0.0
 40
2.0
  0
ENDBLK
  5
1BB7
330
1BB5
100
AcDbEntity
  8
0
100
AcDbBlockEnd
  0
BLOCK
  5
1C06
330
1C05
100
AcDbEntity
  8
0
100
AcDbBlockBegin
  2
bok 1
 70
     0
 10
0.0
 20
0.0
 30
0.0
  3
bok 1
  1
bok 1
  0
LINE
  5
1C08
330
1C05
100
AcDbEntity
  8
0
  6
ByBlock
100
AcDbLine
 10
822.0230745645822
 20
727.3152237040628
 30
0.0
 11
822.0230745645822
 21
682.3152237040628
 31
0.0
  0
LINE
  5
1C09
330
1C05
100
AcDbEntity
  8
0
100
AcDbLine
 10
795.0230865241374
 20
943.397522906807
 30
0.0
 11
799.0230865241374
 21
943.397522906807
 31
0.0
  0
LINE
  5
1C0A
330
1C05
100
AcDbEntity
  8
0
100
AcDbLine
 10
787.2605865241376
 20
939.3256479069915
 30
0.0
 11
795.0230865241374
 21
939.3256479069915
 31
0.0
  0
LINE
  5
1C0B
330
1C05
100
AcDbEntity
  8
0
100
AcDbLine
 10
795.0230865241374
 20
935.3256479069915
 30
0.0
 11
795.0230865241374
 21
931.2537729071763
 31
0.0
  0
LINE
  5
1C0C
330
1C05
100
AcDbEntity
  8
0
100
AcDbLine
 10
799.0230865241374
 20
931.2537729071763
 30
0.0
 11
799.0230865241374
 21
935.3256479069915
 31
0.0
  0
LINE
  5
1C0D
330
1C05
100
AcDbEntity
  8
0
100
AcDbLine
 10
799.0230865241374
 20
935.3256479069915
 30
0.0
 11
805.0230745645822
 21
935.3256479069915
 31
0.0
  0
LINE
  5
1C0E
330
1C05
100
AcDbEntity
  8
0
100
AcDbLine
 10
799.0230865241374
 20
939.3256479069915
 30
0.0
 11
805.0230745645822
 21
939.3256479069915
 31
0.0
  0
LINE
  5
1C0F
330
1C05
100
AcDbEntity
  8
0
100
AcDbLine
 10
799.0230865241374
 20
943.397522906807
 30
0.0
 11
799.0230865241374
 21
939.3256479069915
 31
0.0
  0
LINE
  5
1C10
330
1C05
100
AcDbEntity
  8
0
100
AcDbLine
 10
787.2605865241376
 20
935.3256479069915
 30
0.0
 11
795.0230865241374
 21
935.3256479069915
 31
0.0
  0
LINE
  5
1C11
330
1C05
100
AcDbEntity
  8
0
100
AcDbLine
 10
795.0230865241374
 20
931.2537729071763
 30
0.0
 11
799.0230865241374
 21
931.2537729071763
 31
0.0
  0
LINE
  5
1C12
330
1C05
100
AcDbEntity
  8
0
100
AcDbLine
 10
787.2605865241376
 20
935.3256479069915
 30
0.0
 11
787.2605865241376
 21
939.3256479069915
 31
0.0
  0
LINE
  5
1C13
330
1C05
100
AcDbEntity
  8
0
100
AcDbLine
 10
795.0230865241374
 20
943.397522906807
 30
0.0
 11
795.0230865241374
 21
939.3256479069915
 31
0.0
  0
LINE
  5
1C14
330
1C05
100
AcDbEntity
  8
0
100
AcDbLine
 10
795.0230865241374
 20
784.6423108053426
 30
0.0
 11
799.0230865241374
 21
784.6423108053426
 31
0.0
  0
LINE
  5
1C15
330
1C05
100
AcDbEntity
  8
0
100
AcDbLine
 10
787.2605865241376
 20
780.5704358055272
 30
0.0
 11
795.0230865241374
 21
780.5704358055272
 31
0.0
  0
LINE
  5
1C16
330
1C05
100
AcDbEntity
  8
0
100
AcDbLine
 10
795.0230865241374
 20
776.5704358055272
 30
0.0
 11
795.0230865241374
 21
772.4985608057119
 31
0.0
  0
LINE
  5
1C17
330
1C05
100
AcDbEntity
  8
0
100
AcDbLine
 10
799.0230865241374
 20
772.4985608057119
 30
0.0
 11
799.0230865241374
 21
776.5704358055272
 31
0.0
  0
LINE
  5
1C18
330
1C05
100
AcDbEntity
  8
0
100
AcDbLine
 10
799.0230865241374
 20
776.5704358055272
 30
0.0
 11
805.0230745645822
 21
776.5704358055272
 31
0.0
  0
LINE
  5
1C19
330
1C05
100
AcDbEntity
  8
0
100
AcDbLine
 10
799.0230865241374
 20
780.5704358055272
 30
0.0
 11
805.0230745645822
 21
780.5704358055272
 31
0.0
  0
LINE
  5
1C1A
330
1C05
100
AcDbEntity
  8
0
100
AcDbLine
 10
799.0230865241374
 20
784.6423108053426
 30
0.0
 11
799.0230865241374
 21
780.5704358055272
 31
0.0
  0
LINE
  5
1C1B
330
1C05
100
AcDbEntity
  8
0
100
AcDbLine
 10
787.2605865241376
 20
776.5704358055272
 30
0.0
 11
795.0230865241374
 21
776.5704358055272
 31
0.0
  0
LINE
  5
1C1C
330
1C05
100
AcDbEntity
  8
0
100
AcDbLine
 10
795.0230865241374
 20
772.4985608057119
 30
0.0
 11
799.0230865241374
 21
772.4985608057119
 31
0.0
  0
LINE
  5
1C1D
330
1C05
100
AcDbEntity
  8
0
100
AcDbLine
 10
787.2605865241376
 20
776.5704358055272
 30
0.0
 11
787.2605865241376
 21
780.5704358055272
 31
0.0
  0
LINE
  5
1C1E
330
1C05
100
AcDbEntity
  8
0
100
AcDbLine
 10
795.0230865241374
 20
784.6423108053426
 30
0.0
 11
795.0230865241374
 21
780.5704358055272
 31
0.0
  0
LINE
  5
1C1F
330
1C05
100
AcDbEntity
  8
0
  6
ByBlock
100
AcDbLine
 10
660.8520116652667
 20
659.8360721099202
 30
0.0
 11
660.8520116652667
 21
969.8360721099203
 31
0.0
  0
LINE
  5
1C20
330
1C05
100
AcDbEntity
  8
0
  6
ByBlock
100
AcDbLine
 10
787.1520116652666
 20
642.8360721099202
 30
0.0
 11
742.1520116652666
 21
642.8360721099202
 31
0.0
  0
LINE
  5
1C21
330
1C05
100
AcDbEntity
  8
0
  6
ByBlock
100
AcDbLine
 10
705.8520116652667
 20
642.8360721099202
 30
0.0
 11
660.8520116652666
 21
642.8360721099202
 31
0.0
  0
LINE
  5
1C22
330
1C05
100
AcDbEntity
  8
0
  6
ByBlock
100
AcDbLine
 10
660.8520116652666
 20
642.8360721099202
 30
0.0
 11
660.8520116652667
 21
659.8360721099202
 31
0.0
  0
CIRCLE
  5
1C23
330
1C05
100
AcDbEntity
  8
wpust
  6
ByBlock
100
AcDbCircle
 10
736.9419339112626
 20
747.3138171099633
 30
0.0
 40
37.47887235773739
  0
CIRCLE
  5
1C24
330
1C05
100
AcDbEntity
  8
wpust
  6
ByBlock
100
AcDbCircle
 10
772.6705863945216
 20
783.0917191242816
 30
0.0
 40
2.194360251725402
  0
CIRCLE
  5
1C25
330
1C05
100
AcDbEntity
  8
wpust
  6
ByBlock
100
AcDbCircle
 10
772.6705863945216
 20
711.535915095645
 30
0.0
 40
2.194360251725402
  0
CIRCLE
  5
1C26
330
1C05
100
AcDbEntity
  8
wpust
  6
ByBlock
100
AcDbCircle
 10
701.2132814280036
 20
783.0917191242816
 30
0.0
 40
2.194360251725402
  0
CIRCLE
  5
1C27
330
1C05
100
AcDbEntity
  8
montaz-ramy
  6
ByBlock
100
AcDbCircle
 10
701.2132814280036
 20
711.535915095645
 30
0.0
 40
2.194360251725402
  0
ARC
  5
1C28
330
1C05
100
AcDbEntity
  8
0
  6
ByBlock
100
AcDbCircle
 10
735.8520116652667
 20
969.8360721099203
 30
0.0
 40
74.99999999999999
100
AcDbArc
 50
90.0
 51
180.0
  0
LINE
  5
1C29
330
1C05
100
AcDbEntity
  8
wpust
  6
ByBlock
100
AcDbLine
 10
796.0875431149244
 20
675.8360721099203
 30
0.0
 11
796.0875431149244
 21
683.8360721099203
 31
0.0
  0
LINE
  5
1C2A
330
1C05
100
AcDbEntity
  8
wpust
  6
ByBlock
100
AcDbLine
 10
796.0875431149244
 20
683.8360721099203
 30
0.0
 11
742.1520116652666
 21
683.8360721099203
 31
0.0
  0
LINE
  5
1C2B
330
1C05
100
AcDbEntity
  8
wpust
  6
ByBlock
100
AcDbLine
 10
742.1520116652666
 20
683.8360721099203
 30
0.0
 11
742.1520116652666
 21
675.8360721099203
 31
0.0
  0
LINE
  5
1C2C
330
1C05
100
AcDbEntity
  8
wpust
  6
ByBlock
100
AcDbLine
 10
742.1520116652666
 20
675.8360721099203
 30
0.0
 11
796.0875431149244
 21
675.8360721099203
 31
0.0
  0
LINE
  5
1C2D
330
1C05
100
AcDbEntity
  8
0
100
AcDbLine
 10
722.0020116652665
 20
665.836060150365
 30
0.0
 11
722.0020116652665
 21
659.8360721099202
 31
0.0
  0
LINE
  5
1C2E
330
1C05
100
AcDbEntity
  8
0
100
AcDbLine
 10
726.0020116652665
 20
665.836060150365
 30
0.0
 11
726.0020116652665
 21
659.8360721099202
 31
0.0
  0
LINE
  5
1C2F
330
1C05
100
AcDbEntity
  8
0
  6
ByBlock
100
AcDbLine
 10
742.1520116652666
 20
642.8360721099202
 30
0.0
 11
742.1520116652666
 21
655.5934314228011
 31
0.0
  0
LINE
  5
1C30
330
1C05
100
AcDbEntity
  8
0
100
AcDbLine
 10
726.0020116652665
 20
659.8360721099202
 30
0.0
 11
737.9093709781472
 21
659.8360721099202
 31
0.0
  0
LINE
  5
1C31
330
1C05
100
AcDbEntity
  8
0
  6
ByBlock
100
AcDbLine
 10
705.8520116652667
 20
655.5934314228008
 30
0.0
 11
705.8520116652667
 21
642.8360721099202
 31
0.0
  0
LINE
  5
1C32
330
1C05
100
AcDbEntity
  8
0
100
AcDbLine
 10
710.0946523523859
 20
659.8360721099202
 30
0.0
 11
722.0020116652665
 21
659.8360721099202
 31
0.0
  0
LINE
  5
1C33
330
1C05
100
AcDbEntity
  8
0
100
AcDbLine
 10
730.073886665082
 20
669.836060150365
 30
0.0
 11
730.073886665082
 21
665.836060150365
 31
0.0
  0
LINE
  5
1C34
330
1C05
100
AcDbEntity
  8
0
100
AcDbLine
 10
726.0020116652665
 20
677.5985601503648
 30
0.0
 11
726.0020116652665
 21
669.836060150365
 31
0.0
  0
LINE
  5
1C35
330
1C05
100
AcDbEntity
  8
0
100
AcDbLine
 10
722.0020116652665
 20
669.836060150365
 30
0.0
 11
717.9301366654513
 21
669.836060150365
 31
0.0
  0
LINE
  5
1C36
330
1C05
100
AcDbEntity
  8
0
100
AcDbLine
 10
717.9301366654513
 20
665.836060150365
 30
0.0
 11
722.0020116652665
 21
665.836060150365
 31
0.0
  0
LINE
  5
1C37
330
1C05
100
AcDbEntity
  8
0
100
AcDbLine
 10
730.073886665082
 20
665.836060150365
 30
0.0
 11
726.0020116652665
 21
665.836060150365
 31
0.0
  0
LINE
  5
1C38
330
1C05
100
AcDbEntity
  8
0
100
AcDbLine
 10
722.0020116652665
 20
677.5985601503648
 30
0.0
 11
722.0020116652665
 21
669.836060150365
 31
0.0
  0
LINE
  5
1C39
330
1C05
100
AcDbEntity
  8
0
100
AcDbLine
 10
717.9301366654513
 20
669.836060150365
 30
0.0
 11
717.9301366654513
 21
665.836060150365
 31
0.0
  0
LINE
  5
1C3A
330
1C05
100
AcDbEntity
  8
0
100
AcDbLine
 10
722.0020116652665
 20
677.5985601503648
 30
0.0
 11
726.0020116652665
 21
677.5985601503648
 31
0.0
  0
LINE
  5
1C3B
330
1C05
100
AcDbEntity
  8
0
100
AcDbLine
 10
730.073886665082
 20
669.836060150365
 30
0.0
 11
726.0020116652665
 21
669.836060150365
 31
0.0
  0
ARC
  5
1C3C
330
1C05
100
AcDbEntity
  8
0
  6
ByBlock
100
AcDbCircle
 10
740.0306913217069
 20
657.7147517663606
 30
0.0
 40
2.999999999999999
100
AcDbArc
 50
315.0
 51
135.0
  0
ARC
  5
1C3D
330
1C05
100
AcDbEntity
  8
0
  6
ByBlock
100
AcDbCircle
 10
707.9733320088262
 20
657.7147517663606
 30
0.0
 40
2.999999999999999
100
AcDbArc
 50
45.0
 51
225.0
  0
LINE
  5
1C3E
330
1C05
100
AcDbEntity
  8
0
  6
ByBlock
100
AcDbLine
 10
787.1520116652664
 20
655.593431422801
 30
0.0
 11
787.1520116652664
 21
642.8360721099203
 31
0.0
  0
LINE
  5
1C3F
330
1C05
100
AcDbEntity
  8
0
100
AcDbLine
 10
791.3946523523857
 20
659.8360721099203
 30
0.0
 11
805.023074564582
 21
659.8360721099203
 31
0.0
  0
ARC
  5
1C40
330
1C05
100
AcDbEntity
  8
0
  6
ByBlock
100
AcDbCircle
 10
789.2733320088261
 20
657.7147517663607
 30
0.0
 40
3.0
100
AcDbArc
 50
45.0
 51
225.0
  0
LINE
  5
1C41
330
1C05
100
AcDbEntity
  8
0
100
AcDbLine
 10
805.023074564582
 20
659.8360721099205
 30
0.0
 11
805.023074564582
 21
678.0725830169436
 31
0.0
  0
LINE
  5
1C42
330
1C05
100
AcDbEntity
  8
0
  6
ByBlock
100
AcDbLine
 10
822.023074564582
 20
682.3152237040629
 30
0.0
 11
809.2657152517013
 21
682.3152237040629
 31
0.0
  0
ARC
  5
1C43
330
1C05
100
AcDbEntity
  8
0
  6
ByBlock
100
AcDbCircle
 10
807.1443949081416
 20
680.1939033605032
 30
0.0
 40
2.999999999999999
100
AcDbArc
 50
45.0
 51
225.0
  0
ARC
  5
1C44
330
1C05
100
AcDbEntity
  8
0
  6
ByBlock
100
AcDbCircle
 10
807.1443949081416
 20
729.4365440476223
 30
0.0
 40
2.999999999999999
100
AcDbArc
 50
135.0
 51
315.0
  0
LINE
  5
1C45
330
1C05
100
AcDbEntity
  8
0
  6
ByBlock
100
AcDbLine
 10
822.023074564582
 20
727.3152237040629
 30
0.0
 11
809.2657152517015
 21
727.3152237040629
 31
0.0
  0
LINE
  5
1C46
330
1C05
100
AcDbEntity
  8
0
100
AcDbLine
 10
805.023074564582
 20
731.557864391182
 30
0.0
 11
805.0230745645821
 21
776.5704358055273
 31
0.0
  0
LINE
  5
1C47
330
1C05
100
AcDbEntity
  8
0
  6
ByBlock
100
AcDbLine
 10
822.0230745645821
 20
874.8256479069914
 30
0.0
 11
822.0230745645821
 21
829.8256479069914
 31
0.0
  0
ARC
  5
1C48
330
1C05
100
AcDbEntity
  8
0
  6
ByBlock
100
AcDbCircle
 10
807.1443949081417
 20
827.7043275634319
 30
0.0
 40
2.999999999999999
100
AcDbArc
 50
45.0
 51
224.9999999999984
  0
ARC
  5
1C49
330
1C05
100
AcDbEntity
  8
0
  6
ByBlock
100
AcDbCircle
 10
807.1443949081417
 20
876.946968250551
 30
0.0
 40
2.999999999999999
100
AcDbArc
 50
135.0000000000016
 51
315.0
  0
LINE
  5
1C4A
330
1C05
100
AcDbEntity
  8
0
  6
ByBlock
100
AcDbLine
 10
822.0230745645821
 20
874.8256479069917
 30
0.0
 11
809.2657152517017
 21
874.8256479069917
 31
0.0
  0
LINE
  5
1C4B
330
1C05
100
AcDbEntity
  8
0
100
AcDbLine
 10
805.0230745645821
 20
879.0682885941106
 30
0.0
 11
805.0230745645821
 21
935.3256479069917
 31
0.0
  0
LINE
  5
1C4C
330
1C05
100
AcDbEntity
  8
0
100
AcDbLine
 10
805.0230745645821
 20
780.5704358055273
 30
0.0
 11
805.0230745645821
 21
825.5830072198723
 31
0.0
  0
LINE
  5
1C4D
330
1C05
100
AcDbEntity
  8
0
  6
ByBlock
100
AcDbLine
 10
809.2657152517013
 20
829.8256479069917
 30
0.0
 11
822.0230745645821
 21
829.8256479069917
 31
0.0
  0
ARC
  5
1C4E
330
1C05
100
AcDbEntity
  8
0
  6
ByBlock
100
AcDbCircle
 10
807.1443949081417
 20
997.704327563432
 30
0.0
 40
2.999999999999999
100
AcDbArc
 50
45.0
 51
225.0
  0
LINE
  5
1C4F
330
1C05
100
AcDbEntity
  8
0
  6
ByBlock
100
AcDbLine
 10
809.2657152517014
 20
999.8256479069915
 30
0.0
 11
822.0230745645821
 21
999.8256479069915
 31
0.0
  0
LINE
  5
1C50
330
1C05
100
AcDbEntity
  8
0
100
AcDbLine
 10
805.0230745645821
 20
939.3256479069917
 30
0.0
 11
805.0230745645821
 21
995.5830072198723
 31
0.0
  0
LINE
  5
1C51
330
1C05
100
AcDbEntity
  8
0
  6
ByBlock
100
AcDbLine
 10
822.0230745645822
 20
1044.825647906991
 30
0.0
 11
822.0230745645821
 21
999.8256479069915
 31
0.0
  0
LINE
  5
1C52
330
1C05
100
AcDbEntity
  8
0
  6
ByBlock
100
AcDbLine
 10
735.8520116652667
 20
1044.83607210992
 30
0.0
 11
822.0230745645822
 21
1044.825647906991
 31
0.0
  0
CIRCLE
  5
1C53
330
1C05
100
AcDbEntity
  8
helpline
  6
ByBlock
100
AcDbCircle
 10
769.1197773900954
 20
852.3256479069914
 30
0.0
 40
2.0
  0
CIRCLE
  5
1C54
330
1C05
100
AcDbEntity
  8
helpline
  6
ByBlock
100
AcDbCircle
 10
761.1197773900954
 20
852.3256479069914
 30
0.0
 40
2.0
  0
CIRCLE
  5
1C55
330
1C05
100
AcDbEntity
  8
montaz-ramy
  6
ByBlock
100
AcDbCircle
 10
769.1197773900954
 20
1022.325647906992
 30
0.0
 40
2.0
  0
CIRCLE
  5
1C56
330
1C05
100
AcDbEntity
  8
montaz-ramy
  6
ByBlock
100
AcDbCircle
 10
761.1197773900954
 20
1022.325647906992
 30
0.0
 40
2.0
  0
ENDBLK
  5
1C07
330
1C05
100
AcDbEntity
  8
0
100
AcDbBlockEnd
  0
ENDSEC
  0
SECTION
  2
ENTITIES
  0
LINE
  5
4BC
330
1D
100
AcDbEntity
  8
0
100
AcDbLine
 10
4.0
 20
29.0
 30
0.0
 11
4.0
 21
277.2065496523815
 31
0.0
  0
LINE
  5
4BE
330
1D
100
AcDbEntity
  8
0
100
AcDbLine
 10
492.5
 20
415.0
 30
0.0
 11
492.5
 21
296.2065496523815
 31
0.0
  0
LINE
  5
4BF
330
1D
100
AcDbEntity
  8
0
100
AcDbLine
 10
467.5
 20
4.0
 30
0.0
 11
29.0
 21
4.0
 31
0.0
  0
LINE
  5
83A
330
1D
100
AcDbEntity
  8
0
100
AcDbLine
 10
545.7235894530703
 20
21.0
 30
0.0
 11
557.630948765951
 21
21.0
 31
0.0
  0
CIRCLE
  5
A28
330
1D
100
AcDbEntity
  8
helpline
  6
ByBlock
100
AcDbCircle
 10
60.25000000000003
 20
286.7065496523815
 30
0.0
 40
2.1
  0
CIRCLE
  5
A29
330
1D
100
AcDbEntity
  8
helpline
  6
ByBlock
100
AcDbCircle
 10
429.5
 20
286.7
 30
0.0
 40
2.1
  0
LINE
  5
C08
330
1D
100
AcDbEntity
  8
0
  6
ByBlock
100
AcDbLine
 10
496.480948765951
 20
21.0
 30
0.0
 11
496.4809487659511
 21
331.0
 31
0.0
  0
LINE
  5
C16
330
1D
100
AcDbEntity
  8
0
  6
ByBlock
100
AcDbLine
 10
657.6520116652667
 20
405.9999999999998
 30
0.0
 11
657.6520116652666
 21
360.9895757970712
 31
0.0
  0
LINE
  5
C17
330
1D
100
AcDbEntity
  8
0
  6
ByBlock
100
AcDbLine
 10
657.6520116652666
 20
235.9895757970711
 30
0.0
 11
657.6520116652666
 21
190.9895757970711
 31
0.0
  0
LINE
  5
C18
330
1D
100
AcDbEntity
  8
0
  6
ByBlock
100
AcDbLine
 10
657.6520116652665
 20
88.47915159414242
 30
0.0
 11
657.6520116652665
 21
43.47915159414242
 31
0.0
  0
LINE
  5
C2D
330
1D
100
AcDbEntity
  8
0
  6
ByBlock
100
AcDbLine
 10
622.7809487659509
 20
16.75735931288072
 30
0.0
 11
622.7809487659509
 21
4.0
 31
0.0
  0
LINE
  5
C2E
330
1D
100
AcDbEntity
  8
0
  6
ByBlock
100
AcDbLine
 10
622.7809487659509
 20
4.0
 30
0.0
 11
577.7809487659509
 21
4.0
 31
0.0
  0
LINE
  5
C2F
330
1D
100
AcDbEntity
  8
0
  6
ByBlock
100
AcDbLine
 10
577.7809487659509
 20
4.0
 30
0.0
 11
577.7809487659509
 21
16.75735931288073
 31
0.0
  0
LINE
  5
C31
330
1D
100
AcDbEntity
  8
0
  6
ByBlock
100
AcDbLine
 10
541.480948765951
 20
16.75735931288073
 30
0.0
 11
541.480948765951
 21
4.0
 31
0.0
  0
LINE
  5
C32
330
1D
100
AcDbEntity
  8
0
  6
ByBlock
100
AcDbLine
 10
541.480948765951
 20
4.0
 30
0.0
 11
496.480948765951
 21
4.0
 31
0.0
  0
LINE
  5
C33
330
1D
100
AcDbEntity
  8
0
  6
ByBlock
100
AcDbLine
 10
496.480948765951
 20
4.0
 30
0.0
 11
496.480948765951
 21
21.0
 31
0.0
  0
LINE
  5
C34
330
1D
100
AcDbEntity
  8
0
100
AcDbLine
 10
627.0235894530703
 20
21.0
 30
0.0
 11
640.6520116652665
 21
21.0
 31
0.0
  0
LINE
  5
C93
330
1D
100
AcDbEntity
  8
0
100
AcDbLine
 10
630.6520236248218
 20
145.8062386954223
 30
0.0
 11
634.6520236248218
 21
145.8062386954223
 31
0.0
  0
LINE
  5
C94
330
1D
100
AcDbEntity
  8
0
100
AcDbLine
 10
622.889523624822
 20
141.7343636956068
 30
0.0
 11
630.6520236248218
 21
141.7343636956068
 31
0.0
  0
LINE
  5
C95
330
1D
100
AcDbEntity
  8
0
100
AcDbLine
 10
630.6520236248218
 20
137.7343636956068
 30
0.0
 11
630.6520236248218
 21
133.6624886957916
 31
0.0
  0
LINE
  5
C96
330
1D
100
AcDbEntity
  8
0
100
AcDbLine
 10
634.6520236248218
 20
133.6624886957916
 30
0.0
 11
634.6520236248218
 21
137.7343636956068
 31
0.0
  0
LINE
  5
C97
330
1D
100
AcDbEntity
  8
0
100
AcDbLine
 10
634.6520236248218
 20
137.7343636956068
 30
0.0
 11
640.6520116652666
 21
137.7343636956068
 31
0.0
  0
LINE
  5
C98
330
1D
100
AcDbEntity
  8
0
100
AcDbLine
 10
634.6520236248218
 20
141.7343636956068
 30
0.0
 11
640.6520116652666
 21
141.7343636956068
 31
0.0
  0
LINE
  5
C99
330
1D
100
AcDbEntity
  8
0
100
AcDbLine
 10
634.6520236248218
 20
145.8062386954223
 30
0.0
 11
634.6520236248218
 21
141.7343636956068
 31
0.0
  0
LINE
  5
C9A
330
1D
100
AcDbEntity
  8
0
100
AcDbLine
 10
622.889523624822
 20
137.7343636956068
 30
0.0
 11
630.6520236248218
 21
137.7343636956068
 31
0.0
  0
LINE
  5
C9B
330
1D
100
AcDbEntity
  8
0
100
AcDbLine
 10
630.6520236248218
 20
133.6624886957916
 30
0.0
 11
634.6520236248218
 21
133.6624886957916
 31
0.0
  0
LINE
  5
C9C
330
1D
100
AcDbEntity
  8
0
100
AcDbLine
 10
622.889523624822
 20
137.7343636956068
 30
0.0
 11
622.889523624822
 21
141.7343636956068
 31
0.0
  0
LINE
  5
C9D
330
1D
100
AcDbEntity
  8
0
100
AcDbLine
 10
630.6520236248218
 20
145.8062386954223
 30
0.0
 11
630.6520236248218
 21
141.7343636956068
 31
0.0
  0
LINE
  5
C9E
330
1D
100
AcDbEntity
  8
0
100
AcDbLine
 10
630.6520236248218
 20
304.5614507968867
 30
0.0
 11
634.6520236248218
 21
304.5614507968867
 31
0.0
  0
LINE
  5
C9F
330
1D
100
AcDbEntity
  8
0
100
AcDbLine
 10
622.889523624822
 20
300.4895757970711
 30
0.0
 11
630.6520236248218
 21
300.4895757970711
 31
0.0
  0
LINE
  5
CA0
330
1D
100
AcDbEntity
  8
0
100
AcDbLine
 10
630.6520236248218
 20
296.4895757970711
 30
0.0
 11
630.6520236248218
 21
292.4177007972559
 31
0.0
  0
LINE
  5
CA1
330
1D
100
AcDbEntity
  8
0
100
AcDbLine
 10
634.6520236248218
 20
292.4177007972559
 30
0.0
 11
634.6520236248218
 21
296.4895757970711
 31
0.0
  0
LINE
  5
CA2
330
1D
100
AcDbEntity
  8
0
100
AcDbLine
 10
634.6520236248218
 20
296.4895757970711
 30
0.0
 11
640.6520116652666
 21
296.4895757970711
 31
0.0
  0
LINE
  5
CA3
330
1D
100
AcDbEntity
  8
0
100
AcDbLine
 10
634.6520236248218
 20
300.4895757970711
 30
0.0
 11
640.6520116652666
 21
300.4895757970711
 31
0.0
  0
LINE
  5
CA4
330
1D
100
AcDbEntity
  8
0
100
AcDbLine
 10
634.6520236248218
 20
304.5614507968867
 30
0.0
 11
634.6520236248218
 21
300.4895757970711
 31
0.0
  0
LINE
  5
CA5
330
1D
100
AcDbEntity
  8
0
100
AcDbLine
 10
622.889523624822
 20
296.4895757970711
 30
0.0
 11
630.6520236248218
 21
296.4895757970711
 31
0.0
  0
LINE
  5
CA6
330
1D
100
AcDbEntity
  8
0
100
AcDbLine
 10
630.6520236248218
 20
292.4177007972559
 30
0.0
 11
634.6520236248218
 21
292.4177007972559
 31
0.0
  0
LINE
  5
CA7
330
1D
100
AcDbEntity
  8
0
100
AcDbLine
 10
622.889523624822
 20
296.4895757970711
 30
0.0
 11
622.889523624822
 21
300.4895757970711
 31
0.0
  0
LINE
  5
CA8
330
1D
100
AcDbEntity
  8
0
100
AcDbLine
 10
630.6520236248218
 20
304.5614507968867
 30
0.0
 11
630.6520236248218
 21
300.4895757970711
 31
0.0
  0
CIRCLE
  5
CAA
330
1D
100
AcDbEntity
  8
montaz-ramy
  6
ByBlock
100
AcDbCircle
 10
449.383
 20
376.85
 30
0.0
 40
2.1
  0
LINE
  5
CAB
330
1D
100
AcDbEntity
  8
0
100
AcDbLine
 10
565.7028237657664
 20
30.9999880404448
 30
0.0
 11
565.7028237657664
 21
26.9999880404448
 31
0.0
  0
LINE
  5
CAC
330
1D
100
AcDbEntity
  8
0
100
AcDbLine
 10
561.630948765951
 20
38.76248804044462
 30
0.0
 11
561.630948765951
 21
30.9999880404448
 31
0.0
  0
LINE
  5
CAD
330
1D
100
AcDbEntity
  8
0
100
AcDbLine
 10
557.630948765951
 20
30.9999880404448
 30
0.0
 11
553.5590737661357
 21
30.9999880404448
 31
0.0
  0
LINE
  5
CAE
330
1D
100
AcDbEntity
  8
0
100
AcDbLine
 10
553.5590737661357
 20
26.9999880404448
 30
0.0
 11
557.630948765951
 21
26.9999880404448
 31
0.0
  0
LINE
  5
CAF
330
1D
100
AcDbEntity
  8
0
100
AcDbLine
 10
557.630948765951
 20
26.9999880404448
 30
0.0
 11
557.630948765951
 21
21.0
 31
0.0
  0
LINE
  5
CB0
330
1D
100
AcDbEntity
  8
0
100
AcDbLine
 10
561.630948765951
 20
26.9999880404448
 30
0.0
 11
561.630948765951
 21
21.0
 31
0.0
  0
LINE
  5
CB1
330
1D
100
AcDbEntity
  8
0
100
AcDbLine
 10
565.7028237657664
 20
26.9999880404448
 30
0.0
 11
561.630948765951
 21
26.9999880404448
 31
0.0
  0
LINE
  5
CB2
330
1D
100
AcDbEntity
  8
0
100
AcDbLine
 10
557.630948765951
 20
38.76248804044462
 30
0.0
 11
557.630948765951
 21
30.9999880404448
 31
0.0
  0
LINE
  5
CB3
330
1D
100
AcDbEntity
  8
0
100
AcDbLine
 10
553.5590737661357
 20
30.9999880404448
 30
0.0
 11
553.5590737661357
 21
26.9999880404448
 31
0.0
  0
LINE
  5
CB4
330
1D
100
AcDbEntity
  8
0
100
AcDbLine
 10
557.630948765951
 20
38.76248804044462
 30
0.0
 11
561.630948765951
 21
38.76248804044462
 31
0.0
  0
LINE
  5
CB5
330
1D
100
AcDbEntity
  8
0
100
AcDbLine
 10
565.7028237657664
 20
30.9999880404448
 30
0.0
 11
561.630948765951
 21
30.9999880404448
 31
0.0
  0
LINE
  5
CB6
330
1D
100
AcDbEntity
  8
0
100
AcDbLine
 10
561.630948765951
 20
21.0
 30
0.0
 11
573.5383080788316
 21
21.0
 31
0.0
  0
CIRCLE
  5
CB9
330
1D
100
AcDbEntity
  8
montaz-ramy
  6
ByBlock
100
AcDbCircle
 10
97.0116353950165
 20
376.8708484058577
 30
0.0
 40
2.1
  0
LINE
  5
F97
330
1D
100
AcDbEntity
  8
0
  6
ByBlock
100
AcDbLine
 10
822.0230745645822
 20
88.47915159414254
 30
0.0
 11
822.0230745645822
 21
43.47915159414254
 31
0.0
  0
LINE
  5
F98
330
1D
100
AcDbEntity
  8
0
100
AcDbLine
 10
795.0230865241374
 20
304.5614507968868
 30
0.0
 11
799.0230865241374
 21
304.5614507968868
 31
0.0
  0
LINE
  5
F99
330
1D
100
AcDbEntity
  8
0
100
AcDbLine
 10
787.2605865241376
 20
300.4895757970713
 30
0.0
 11
795.0230865241374
 21
300.4895757970713
 31
0.0
  0
LINE
  5
F9A
330
1D
100
AcDbEntity
  8
0
100
AcDbLine
 10
795.0230865241374
 20
296.4895757970713
 30
0.0
 11
795.0230865241374
 21
292.4177007972561
 31
0.0
  0
LINE
  5
F9B
330
1D
100
AcDbEntity
  8
0
100
AcDbLine
 10
799.0230865241374
 20
292.4177007972561
 30
0.0
 11
799.0230865241374
 21
296.4895757970713
 31
0.0
  0
LINE
  5
F9C
330
1D
100
AcDbEntity
  8
0
100
AcDbLine
 10
799.0230865241374
 20
296.4895757970713
 30
0.0
 11
805.0230745645822
 21
296.4895757970713
 31
0.0
  0
LINE
  5
F9D
330
1D
100
AcDbEntity
  8
0
100
AcDbLine
 10
799.0230865241374
 20
300.4895757970713
 30
0.0
 11
805.0230745645822
 21
300.4895757970713
 31
0.0
  0
LINE
  5
F9E
330
1D
100
AcDbEntity
  8
0
100
AcDbLine
 10
799.0230865241374
 20
304.5614507968868
 30
0.0
 11
799.0230865241374
 21
300.4895757970713
 31
0.0
  0
LINE
  5
F9F
330
1D
100
AcDbEntity
  8
0
100
AcDbLine
 10
787.2605865241376
 20
296.4895757970713
 30
0.0
 11
795.0230865241374
 21
296.4895757970713
 31
0.0
  0
LINE
  5
FA0
330
1D
100
AcDbEntity
  8
0
100
AcDbLine
 10
795.0230865241374
 20
292.4177007972561
 30
0.0
 11
799.0230865241374
 21
292.4177007972561
 31
0.0
  0
LINE
  5
FA1
330
1D
100
AcDbEntity
  8
0
100
AcDbLine
 10
787.2605865241376
 20
296.4895757970713
 30
0.0
 11
787.2605865241376
 21
300.4895757970713
 31
0.0
  0
LINE
  5
FA2
330
1D
100
AcDbEntity
  8
0
100
AcDbLine
 10
795.0230865241374
 20
304.5614507968868
 30
0.0
 11
795.0230865241374
 21
300.4895757970713
 31
0.0
  0
LINE
  5
FA5
330
1D
100
AcDbEntity
  8
0
100
AcDbLine
 10
795.0230865241374
 20
145.8062386954224
 30
0.0
 11
799.0230865241374
 21
145.8062386954224
 31
0.0
  0
LINE
  5
FA6
330
1D
100
AcDbEntity
  8
0
100
AcDbLine
 10
787.2605865241376
 20
141.7343636956069
 30
0.0
 11
795.0230865241374
 21
141.7343636956069
 31
0.0
  0
LINE
  5
FA7
330
1D
100
AcDbEntity
  8
0
100
AcDbLine
 10
795.0230865241374
 20
137.7343636956069
 30
0.0
 11
795.0230865241374
 21
133.6624886957917
 31
0.0
  0
LINE
  5
FA8
330
1D
100
AcDbEntity
  8
0
100
AcDbLine
 10
799.0230865241374
 20
133.6624886957917
 30
0.0
 11
799.0230865241374
 21
137.7343636956069
 31
0.0
  0
LINE
  5
FA9
330
1D
100
AcDbEntity
  8
0
100
AcDbLine
 10
799.0230865241374
 20
137.7343636956069
 30
0.0
 11
805.0230745645822
 21
137.7343636956069
 31
0.0
  0
LINE
  5
FAA
330
1D
100
AcDbEntity
  8
0
100
AcDbLine
 10
799.0230865241374
 20
141.7343636956069
 30
0.0
 11
805.0230745645822
 21
141.7343636956069
 31
0.0
  0
LINE
  5
FAB
330
1D
100
AcDbEntity
  8
0
100
AcDbLine
 10
799.0230865241374
 20
145.8062386954224
 30
0.0
 11
799.0230865241374
 21
141.7343636956069
 31
0.0
  0
LINE
  5
FAC
330
1D
100
AcDbEntity
  8
0
100
AcDbLine
 10
787.2605865241376
 20
137.7343636956069
 30
0.0
 11
795.0230865241374
 21
137.7343636956069
 31
0.0
  0
LINE
  5
FAD
330
1D
100
AcDbEntity
  8
0
100
AcDbLine
 10
795.0230865241374
 20
133.6624886957917
 30
0.0
 11
799.0230865241374
 21
133.6624886957917
 31
0.0
  0
LINE
  5
FAE
330
1D
100
AcDbEntity
  8
0
100
AcDbLine
 10
787.2605865241376
 20
137.7343636956069
 30
0.0
 11
787.2605865241376
 21
141.7343636956069
 31
0.0
  0
LINE
  5
FAF
330
1D
100
AcDbEntity
  8
0
100
AcDbLine
 10
795.0230865241374
 20
145.8062386954224
 30
0.0
 11
795.0230865241374
 21
141.7343636956069
 31
0.0
  0
LINE
  5
FB4
330
1D
100
AcDbEntity
  8
0
  6
ByBlock
100
AcDbLine
 10
660.8520116652667
 20
21.0
 30
0.0
 11
660.8520116652667
 21
331.0000000000001
 31
0.0
  0
LINE
  5
FB6
330
1D
100
AcDbEntity
  8
0
  6
ByBlock
100
AcDbLine
 10
787.1520116652666
 20
4.0
 30
0.0
 11
742.1520116652666
 21
4.0
 31
0.0
  0
LINE
  5
FB9
330
1D
100
AcDbEntity
  8
0
  6
ByBlock
100
AcDbLine
 10
705.8520116652667
 20
4.0
 30
0.0
 11
660.8520116652666
 21
4.0
 31
0.0
  0
LINE
  5
FBA
330
1D
100
AcDbEntity
  8
0
  6
ByBlock
100
AcDbLine
 10
660.8520116652666
 20
4.0
 30
0.0
 11
660.8520116652667
 21
21.0
 31
0.0
  0
CIRCLE
  5
FC9
330
1D
100
AcDbEntity
  8
wpust
  6
ByBlock
100
AcDbCircle
 10
736.9419339112626
 20
108.4777450000431
 30
0.0
 40
37.47887235773739
  0
CIRCLE
  5
FCD
330
1D
100
AcDbEntity
  8
helpline
  6
ByBlock
100
AcDbCircle
 10
772.6705863945216
 20
144.2556470143614
 30
0.0
 40
2.194360251725402
  0
CIRCLE
  5
FCE
330
1D
100
AcDbEntity
  8
helpline
  6
ByBlock
100
AcDbCircle
 10
772.6705863945216
 20
72.69984298572479
 30
0.0
 40
2.194360251725402
  0
CIRCLE
  5
FCF
330
1D
100
AcDbEntity
  8
helpline
  6
ByBlock
100
AcDbCircle
 10
701.2132814280036
 20
144.2556470143614
 30
0.0
 40
2.194360251725402
  0
CIRCLE
  5
FD0
330
1D
100
AcDbEntity
  8
montaz-ramy
  6
ByBlock
100
AcDbCircle
 10
701.2132814280036
 20
72.69984298572479
 30
0.0
 40
2.194360251725402
  0
ARC
  5
FD3
330
1D
100
AcDbEntity
  8
0
  6
ByBlock
100
AcDbCircle
 10
735.8520116652667
 20
331.0000000000001
 30
0.0
 40
74.99999999999999
100
AcDbArc
 50
90.0
 51
180.0
  0
ARC
  5
FD4
330
1D
100
AcDbEntity
  8
0
  6
ByBlock
100
AcDbCircle
 10
571.480948765951
 20
331.0
 30
0.0
 40
74.99999999999997
100
AcDbArc
 50
89.99999999999991
 51
180.0
  0
ARC
  5
FD8
330
1D
100
AcDbEntity
  8
0
100
AcDbCircle
 10
467.5
 20
415.0
 30
0.0
 40
25.0
100
AcDbArc
 50
0.0
 51
90.0
  0
ARC
  5
FD9
330
1D
100
AcDbEntity
  8
0
100
AcDbCircle
 10
28.99999999986904
 20
415.000000000131
 30
0.0
 40
24.99999999986903
100
AcDbArc
 50
89.99999999969987
 51
180.0000000003002
  0
ARC
  5
FDA
330
1D
100
AcDbEntity
  8
0
100
AcDbCircle
 10
29.0
 20
29.0
 30
0.0
 40
25.0
100
AcDbArc
 50
180.0
 51
270.0
  0
ARC
  5
FDB
330
1D
100
AcDbEntity
  8
0
100
AcDbCircle
 10
467.5
 20
29.0
 30
0.0
 40
25.0
100
AcDbArc
 50
270.0
 51
0.0
  0
CIRCLE
  5
FEB
330
1D
100
AcDbEntity
  8
helpline
  6
ByBlock
100
AcDbCircle
 10
143.9998744098249
 20
12.49999441093257
 30
0.0
 40
2.1
  0
CIRCLE
  5
FEC
330
1D
100
AcDbEntity
  8
helpline
  6
ByBlock
100
AcDbCircle
 10
179.0
 20
12.49999440304623
 30
0.0
 40
2.1
  0
CIRCLE
  5
FED
330
1D
100
AcDbEntity
  8
helpline
  6
ByBlock
100
AcDbCircle
 10
228.49
 20
11.47099440304623
 30
0.0
 40
2.1
  0
CIRCLE
  5
FEE
330
1D
100
AcDbEntity
  8
helpline
  6
ByBlock
100
AcDbCircle
 10
258.49
 20
11.47099440304623
 30
0.0
 40
2.1
  0
CIRCLE
  5
FEF
330
1D
100
AcDbEntity
  8
montaz-ramy
  6
ByBlock
100
AcDbCircle
 10
228.49
 20
74.47099440304623
 30
0.0
 40
2.1
  0
CIRCLE
  5
FF0
330
1D
100
AcDbEntity
  8
helpline
  6
ByBlock
100
AcDbCircle
 10
258.49
 20
74.47099440304623
 30
0.0
 40
2.1
  0
CIRCLE
  5
FF3
330
1D
100
AcDbEntity
  8
helpline
  6
ByBlock
100
AcDbCircle
 10
304.000377019828
 20
78.5000920223701
 30
0.0
 40
2.1
  0
CIRCLE
  5
FF4
330
1D
100
AcDbEntity
  8
helpline
  6
ByBlock
100
AcDbCircle
 10
339.000377019828
 20
78.5000920223701
 30
0.0
 40
2.1
  0
CIRCLE
  5
FF8
330
1D
100
AcDbEntity
  8
helpline
  6
ByBlock
100
AcDbCircle
 10
36.50432876212327
 20
222.0037114091543
 30
0.0
 40
3.997423034875816
  0
CIRCLE
  5
FF9
330
1D
100
AcDbEntity
  8
helpline
  6
ByBlock
100
AcDbCircle
 10
415.5043287621232
 20
222.0037114091543
 30
0.0
 40
3.997423034875816
  0
CIRCLE
  5
1001
330
1D
100
AcDbEntity
  8
helpline
  6
ByBlock
100
AcDbCircle
 10
304.0001833178038
 20
355.5001156089313
 30
0.0
 40
2.1
  0
CIRCLE
  5
1002
330
1D
100
AcDbEntity
  8
helpline
  6
ByBlock
100
AcDbCircle
 10
339.0001833178038
 20
355.5001156089313
 30
0.0
 40
2.1
  0
CIRCLE
  5
1003
330
1D
100
AcDbEntity
  8
helpline
  6
ByBlock
100
AcDbCircle
 10
143.9839121159509
 20
431.5112196303433
 30
0.0
 40
2.1
  0
CIRCLE
  5
1004
330
1D
100
AcDbEntity
  8
helpline
  6
ByBlock
100
AcDbCircle
 10
178.9840377061259
 20
431.511219622457
 30
0.0
 40
2.1
  0
CIRCLE
  5
1006
330
1D
100
AcDbEntity
  8
helpline
  6
ByBlock
100
AcDbCircle
 10
209.9897401900915
 20
417.5000300722122
 30
0.0
 40
2.1
  0
LINE
  5
100A
330
1D
100
AcDbEntity
  8
wpust
  6
ByBlock
100
AcDbLine
 10
631.7164802156088
 20
37.0
 30
0.0
 11
631.7164802156088
 21
45.0
 31
0.0
  0
LINE
  5
100B
330
1D
100
AcDbEntity
  8
wpust
  6
ByBlock
100
AcDbLine
 10
631.7164802156088
 20
45.0
 30
0.0
 11
577.7809487659509
 21
45.0
 31
0.0
  0
LINE
  5
100C
330
1D
100
AcDbEntity
  8
wpust
  6
ByBlock
100
AcDbLine
 10
577.7809487659509
 20
45.0
 30
0.0
 11
577.7809487659509
 21
37.0
 31
0.0
  0
LINE
  5
100D
330
1D
100
AcDbEntity
  8
wpust
  6
ByBlock
100
AcDbLine
 10
577.7809487659509
 20
37.0
 30
0.0
 11
631.7164802156088
 21
37.0
 31
0.0
  0
LINE
  5
100F
330
1D
100
AcDbEntity
  8
wpust
  6
ByBlock
100
AcDbLine
 10
796.0875431149244
 20
37.00000000000011
 30
0.0
 11
796.0875431149244
 21
45.00000000000011
 31
0.0
  0
LINE
  5
1010
330
1D
100
AcDbEntity
  8
wpust
  6
ByBlock
100
AcDbLine
 10
796.0875431149244
 20
45.00000000000011
 30
0.0
 11
742.1520116652666
 21
45.00000000000011
 31
0.0
  0
LINE
  5
1011
330
1D
100
AcDbEntity
  8
wpust
  6
ByBlock
100
AcDbLine
 10
742.1520116652666
 20
45.00000000000011
 30
0.0
 11
742.1520116652666
 21
37.00000000000011
 31
0.0
  0
LINE
  5
1012
330
1D
100
AcDbEntity
  8
wpust
  6
ByBlock
100
AcDbLine
 10
742.1520116652666
 20
37.00000000000011
 30
0.0
 11
796.0875431149244
 21
37.00000000000011
 31
0.0
  0
CIRCLE
  5
1013
330
1D
100
AcDbEntity
  8
helpline
  6
ByBlock
100
AcDbCircle
 10
220.4976791832188
 20
318.7793123809206
 30
0.0
 40
2.1
  0
CIRCLE
  5
1014
330
1D
100
AcDbEntity
  8
helpline
  6
ByBlock
100
AcDbCircle
 10
262.5176791832188
 20
318.7793123809206
 30
0.0
 40
2.1
  0
CIRCLE
  5
1015
330
1D
100
AcDbEntity
  8
helpline
  6
ByBlock
100
AcDbCircle
 10
268.2494679355287
 20
371.2723123809205
 30
0.0
 40
2.1
  0
LINE
  5
105B
330
1D
100
AcDbEntity
  8
0
100
AcDbLine
 10
106.5116353950165
 20
440.0
 30
0.0
 11
439.8829999999999
 21
440.0
 31
0.0
  0
LINE
  5
108A
330
1D
100
AcDbEntity
  8
0
100
AcDbLine
 10
492.5
 20
277.2065496523815
 30
0.0
 11
492.5
 21
29.0
 31
0.0
  0
LINE
  5
10CB
330
1D
100
AcDbEntity
  8
0
100
AcDbLine
 10
458.8829999999999
 20
440.0
 30
0.0
 11
467.5
 21
440.0
 31
0.0
  0
LINE
  5
118E
330
1D
100
AcDbEntity
  8
0
  6
ByBlock
100
AcDbLine
 10
644.894652352386
 20
360.9895757970712
 30
0.0
 11
657.6520116652666
 21
360.9895757970712
 31
0.0
  0
LINE
  5
118F
330
1D
100
AcDbEntity
  8
0
100
AcDbLine
 10
640.6520116652666
 20
300.4895757970713
 30
0.0
 11
640.6520116652666
 21
356.7469351099521
 31
0.0
  0
LINE
  5
1192
330
1D
100
AcDbEntity
  8
0
  6
ByBlock
100
AcDbLine
 10
644.8946523523858
 20
190.9895757970713
 30
0.0
 11
657.6520116652666
 21
190.9895757970713
 31
0.0
  0
LINE
  5
1193
330
1D
100
AcDbEntity
  8
0
  6
ByBlock
100
AcDbLine
 10
657.6520116652666
 20
235.9895757970713
 30
0.0
 11
644.8946523523863
 21
235.9895757970713
 31
0.0
  0
LINE
  5
1194
330
1D
100
AcDbEntity
  8
0
100
AcDbLine
 10
640.6520116652666
 20
240.2322164841902
 30
0.0
 11
640.6520116652666
 21
296.4895757970713
 31
0.0
  0
LINE
  5
1195
330
1D
100
AcDbEntity
  8
0
100
AcDbLine
 10
640.6520116652666
 20
141.7343636956069
 30
0.0
 11
640.6520116652666
 21
186.7469351099519
 31
0.0
  0
LINE
  5
1199
330
1D
100
AcDbEntity
  8
0
  6
ByBlock
100
AcDbLine
 10
657.6520116652665
 20
88.47915159414254
 30
0.0
 11
644.8946523523861
 21
88.47915159414254
 31
0.0
  0
LINE
  5
119A
330
1D
100
AcDbEntity
  8
0
  6
ByBlock
100
AcDbLine
 10
657.6520116652665
 20
43.47915159414254
 30
0.0
 11
644.8946523523858
 21
43.47915159414254
 31
0.0
  0
LINE
  5
119B
330
1D
100
AcDbEntity
  8
0
100
AcDbLine
 10
640.6520116652665
 20
92.72179228126157
 30
0.0
 11
640.6520116652666
 21
137.7343636956069
 31
0.0
  0
LINE
  5
119C
330
1D
100
AcDbEntity
  8
0
100
AcDbLine
 10
640.6520116652665
 20
21.00000000000011
 30
0.0
 11
640.6520116652665
 21
39.23651090702327
 31
0.0
  0
LINE
  5
11A3
330
1D
100
AcDbEntity
  8
0
100
AcDbLine
 10
722.0020116652665
 20
26.9999880404448
 30
0.0
 11
722.0020116652665
 21
21.0
 31
0.0
  0
LINE
  5
11A4
330
1D
100
AcDbEntity
  8
0
100
AcDbLine
 10
726.0020116652665
 20
26.9999880404448
 30
0.0
 11
726.0020116652665
 21
21.0
 31
0.0
  0
LINE
  5
11A6
330
1D
100
AcDbEntity
  8
0
  6
ByBlock
100
AcDbLine
 10
742.1520116652666
 20
4.0
 30
0.0
 11
742.1520116652666
 21
16.75735931288085
 31
0.0
  0
LINE
  5
11A7
330
1D
100
AcDbEntity
  8
0
100
AcDbLine
 10
726.0020116652665
 20
21.0
 30
0.0
 11
737.9093709781472
 21
21.0
 31
0.0
  0
LINE
  5
11A9
330
1D
100
AcDbEntity
  8
0
  6
ByBlock
100
AcDbLine
 10
705.8520116652667
 20
16.75735931288062
 30
0.0
 11
705.8520116652667
 21
4.0
 31
0.0
  0
LINE
  5
11AA
330
1D
100
AcDbEntity
  8
0
100
AcDbLine
 10
710.0946523523859
 20
21.0
 30
0.0
 11
722.0020116652665
 21
21.0
 31
0.0
  0
LINE
  5
11AB
330
1D
100
AcDbEntity
  8
0
100
AcDbLine
 10
730.073886665082
 20
30.9999880404448
 30
0.0
 11
730.073886665082
 21
26.9999880404448
 31
0.0
  0
LINE
  5
11AC
330
1D
100
AcDbEntity
  8
0
100
AcDbLine
 10
726.0020116652665
 20
38.76248804044462
 30
0.0
 11
726.0020116652665
 21
30.9999880404448
 31
0.0
  0
LINE
  5
11AD
330
1D
100
AcDbEntity
  8
0
100
AcDbLine
 10
722.0020116652665
 20
30.9999880404448
 30
0.0
 11
717.9301366654513
 21
30.9999880404448
 31
0.0
  0
LINE
  5
11AE
330
1D
100
AcDbEntity
  8
0
100
AcDbLine
 10
717.9301366654513
 20
26.9999880404448
 30
0.0
 11
722.0020116652665
 21
26.9999880404448
 31
0.0
  0
LINE
  5
11AF
330
1D
100
AcDbEntity
  8
0
100
AcDbLine
 10
730.073886665082
 20
26.9999880404448
 30
0.0
 11
726.0020116652665
 21
26.9999880404448
 31
0.0
  0
LINE
  5
11B0
330
1D
100
AcDbEntity
  8
0
100
AcDbLine
 10
722.0020116652665
 20
38.76248804044462
 30
0.0
 11
722.0020116652665
 21
30.9999880404448
 31
0.0
  0
LINE
  5
11B1
330
1D
100
AcDbEntity
  8
0
100
AcDbLine
 10
717.9301366654513
 20
30.9999880404448
 30
0.0
 11
717.9301366654513
 21
26.9999880404448
 31
0.0
  0
LINE
  5
11B2
330
1D
100
AcDbEntity
  8
0
100
AcDbLine
 10
722.0020116652665
 20
38.76248804044462
 30
0.0
 11
726.0020116652665
 21
38.76248804044462
 31
0.0
  0
LINE
  5
11B3
330
1D
100
AcDbEntity
  8
0
100
AcDbLine
 10
730.073886665082
 20
30.9999880404448
 30
0.0
 11
726.0020116652665
 21
30.9999880404448
 31
0.0
  0
CIRCLE
  5
153C
330
1D
100
AcDbEntity
  8
helpline
  6
ByBlock
100
AcDbCircle
 10
864.9353881281498
 20
319.3301868087351
 30
0.0
 40
2.1
  0
CIRCLE
  5
153D
330
1D
100
AcDbEntity
  8
helpline
  6
ByBlock
100
AcDbCircle
 10
864.9353285229645
 20
167.3438431445466
 30
0.0
 40
2.1
  0
CIRCLE
  5
153E
330
1D
100
AcDbEntity
  8
montaz-ramy
  6
ByBlock
100
AcDbCircle
 10
1031.935328522964
 20
243.3438431445466
 30
0.0
 40
2.1
  0
CIRCLE
  5
153F
330
1D
100
AcDbEntity
  8
helpline
  6
ByBlock
100
AcDbCircle
 10
1068.935328522964
 20
267.3438431445466
 30
0.0
 40
2.1
  0
CIRCLE
  5
1540
330
1D
100
AcDbEntity
  8
montaz-ramy
  6
ByBlock
100
AcDbCircle
 10
901.9353285229645
 20
343.3438431445466
 30
0.0
 40
2.1
  0
CIRCLE
  5
1541
330
1D
100
AcDbEntity
  8
montaz-ramy
  6
ByBlock
100
AcDbCircle
 10
901.9353285229645
 20
191.3438431445466
 30
0.0
 40
2.1
  0
CIRCLE
  5
1542
330
1D
100
AcDbEntity
  8
helpline
  6
ByBlock
100
AcDbCircle
 10
945.7253285229644
 20
352.1438431445466
 30
0.0
 40
2.1
  0
CIRCLE
  5
1543
330
1D
100
AcDbEntity
  8
helpline
  6
ByBlock
100
AcDbCircle
 10
988.1453285229645
 20
352.1438431445466
 30
0.0
 40
2.1
  0
CIRCLE
  5
1547
330
1D
100
AcDbEntity
  8
helpline
  6
ByBlock
100
AcDbCircle
 10
862.4091078413046
 20
150.8249374963003
 30
0.0
 40
2.1
  0
CIRCLE
  5
1548
330
1D
100
AcDbEntity
  8
helpline
  6
ByBlock
100
AcDbCircle
 10
862.4091078413046
 20
359.8249374963003
 30
0.0
 40
2.1
  0
CIRCLE
  5
1549
330
1D
100
AcDbEntity
  8
helpline
  6
ByBlock
100
AcDbCircle
 10
1071.409107841305
 20
359.8249374963003
 30
0.0
 40
2.1
  0
CIRCLE
  5
154A
330
1D
100
AcDbEntity
  8
helpline
  6
ByBlock
100
AcDbCircle
 10
1071.409107841305
 20
150.8249374963003
 30
0.0
 40
2.1
  0
CIRCLE
  5
154B
330
1D
100
AcDbEntity
  8
helpline
  6
ByBlock
100
AcDbCircle
 10
935.431128296822
 20
305.1639605657435
 30
0.0
 40
2.0
  0
CIRCLE
  5
154C
330
1D
100
AcDbEntity
  8
helpline
  6
ByBlock
100
AcDbCircle
 10
935.431128296822
 20
290.5144605657435
 30
0.0
 40
2.0
  0
CIRCLE
  5
154D
330
1D
100
AcDbEntity
  8
helpline
  6
ByBlock
100
AcDbCircle
 10
935.449628296822
 20
216.3169605657435
 30
0.0
 40
2.0
  0
CIRCLE
  5
154E
330
1D
100
AcDbEntity
  8
helpline
  6
ByBlock
100
AcDbCircle
 10
935.449628296822
 20
201.6669605657435
 30
0.0
 40
2.0
  0
LINE
  5
157A
330
1D
100
AcDbEntity
  8
0
  6
ByBlock
100
AcDbLine
 10
856.9453976522069
 20
145.3300770403582
 30
0.0
 11
1076.93539519683
 21
145.3403454480415
 31
0.0
  0
LINE
  5
157B
330
1D
100
AcDbEntity
  8
0
  6
ByBlock
100
AcDbLine
 10
1076.93539519683
 20
145.3403454480415
 30
0.0
 11
1076.925615696128
 21
365.3302137495524
 31
0.0
  0
LINE
  5
157C
330
1D
100
AcDbEntity
  8
0
  6
ByBlock
100
AcDbLine
 10
1076.925615696128
 20
365.3302137495524
 30
0.0
 11
985.4453285229645
 21
365.3261470553015
 31
0.0
  0
LINE
  5
1580
330
1D
100
AcDbEntity
  8
0
  6
ByBlock
100
AcDbLine
 10
948.4253285229645
 20
365.3241470554534
 30
0.0
 11
856.935259406347
 21
365.3198765679995
 31
0.0
  0
LINE
  5
1581
330
1D
100
AcDbEntity
  8
0
  6
ByBlock
100
AcDbLine
 10
856.935259406347
 20
365.3198765679995
 30
0.0
 11
856.9453976522069
 21
145.3300770403582
 31
0.0
  0
LINE
  5
158A
330
1D
100
AcDbEntity
  8
0
  6
ByBlock
100
AcDbLine
 10
948.4253285229645
 20
365.3241470554534
 30
0.0
 11
948.4253285229645
 21
357.9801470538193
 31
0.0
  0
LINE
  5
158B
330
1D
100
AcDbEntity
  8
0
  6
ByBlock
100
AcDbLine
 10
948.4253285229645
 20
357.9801470538193
 30
0.0
 11
985.4453285229645
 21
357.9801470538193
 31
0.0
  0
LINE
  5
158C
330
1D
100
AcDbEntity
  8
0
  6
ByBlock
100
AcDbLine
 10
985.4453285229645
 20
357.9801470538193
 30
0.0
 11
985.4453285229645
 21
365.3261470553015
 31
0.0
  0
LINE
  5
1596
330
1D
100
AcDbEntity
  8
montaz-ramy
  6
ByBlock
100
AcDbLine
 10
0.0
 20
0.0
 30
0.0
 11
1226.223074564582
 21
0.0
 31
0.0
  0
LINE
  5
1597
330
1D
100
AcDbEntity
  8
montaz-ramy
  6
ByBlock
100
AcDbLine
 10
1226.223074564582
 20
0.0
 30
0.0
 11
1230.223074564582
 21
0.0
 31
0.0
  0
LINE
  5
1598
330
1D
100
AcDbEntity
  8
montaz-ramy
  6
ByBlock
100
AcDbLine
 10
1230.223074564582
 20
0.0
 30
0.0
 11
1230.223074564582
 21
492.4999999999995
 31
0.0
  0
LINE
  5
1599
330
1D
100
AcDbEntity
  8
montaz-ramy
  6
ByBlock
100
AcDbLine
 10
1230.223074564582
 20
492.4999999999995
 30
0.0
 11
1230.223074564582
 21
496.4999999999995
 31
0.0
  0
LINE
  5
159A
330
1D
100
AcDbEntity
  8
montaz-ramy
  6
ByBlock
100
AcDbLine
 10
1230.223074564582
 20
496.4999999999995
 30
0.0
 11
0.0000000000000304
 21
496.4999999999997
 31
0.0
  0
LINE
  5
159B
330
1D
100
AcDbEntity
  8
montaz-ramy
  6
ByBlock
100
AcDbLine
 10
0.0000000000000304
 20
496.4999999999997
 30
0.0
 11
0.0
 21
0.0
 31
0.0
  0
LINE
  5
15CE
330
1D
100
AcDbEntity
  8
0
  6
ByBlock
100
AcDbLine
 10
4.0
 20
296.2065496523815
 30
0.0
 11
4.000000000000004
 21
415.0
 31
0.0
  0
LINE
  5
15CF
330
1D
100
AcDbEntity
  8
0
  6
ByBlock
100
AcDbLine
 10
29.0
 20
440.0
 30
0.0
 11
87.51163539501647
 21
440.0
 31
0.0
  0
LINE
  5
160D
330
1D
100
AcDbEntity
  8
wpust
  6
ByBlock
100
AcDbLine
 10
112.5073593128809
 20
296.2065496523815
 30
0.0
 11
75.49264068711933
 21
296.2065496523815
 31
0.0
  0
LINE
  5
160F
330
1D
100
AcDbEntity
  8
wpust
  6
ByBlock
100
AcDbLine
 10
71.25000000000004
 20
291.9639089652621
 30
0.0
 11
71.25000000000006
 21
281.4491903395008
 31
0.0
  0
LINE
  5
1611
330
1D
100
AcDbEntity
  8
wpust
  6
ByBlock
100
AcDbLine
 10
75.49264068711933
 20
277.2065496523815
 30
0.0
 11
112.5073593128809
 21
277.2065496523815
 31
0.0
  0
LINE
  5
1636
330
1D
100
AcDbEntity
  8
0
  6
ByBlock
100
AcDbLine
 10
87.51163539501647
 20
399.013489092977
 30
0.0
 11
87.51163539501647
 21
440.0
 31
0.0
  0
LINE
  5
1639
330
1D
100
AcDbEntity
  8
0
  6
ByBlock
100
AcDbLine
 10
106.5116353950165
 20
440.0
 30
0.0
 11
106.5116353950165
 21
399.013489092977
 31
0.0
  0
ARC
  5
166D
330
1D
100
AcDbEntity
  8
0
  6
ByBlock
100
AcDbCircle
 10
543.6022691095106
 20
18.87867965644036
 30
0.0
 40
2.999999999999999
100
AcDbArc
 50
44.99999999999962
 51
224.9999999999995
  0
ARC
  5
166F
330
1D
100
AcDbEntity
  8
0
  6
ByBlock
100
AcDbCircle
 10
575.6596284223913
 20
18.87867965644036
 30
0.0
 40
2.999999999999999
100
AcDbArc
 50
315.0000000000005
 51
135.0000000000004
  0
ARC
  5
1670
330
1D
100
AcDbEntity
  8
0
  6
ByBlock
100
AcDbCircle
 10
740.0306913217069
 20
18.87867965644036
 30
0.0
 40
2.999999999999999
100
AcDbArc
 50
315.0000000000005
 51
135.0000000000004
  0
ARC
  5
1671
330
1D
100
AcDbEntity
  8
0
  6
ByBlock
100
AcDbCircle
 10
707.9733320088262
 20
18.87867965644036
 30
0.0
 40
2.999999999999999
100
AcDbArc
 50
44.99999999999957
 51
224.9999999999995
  0
ARC
  5
1674
330
1D
100
AcDbEntity
  8
0
  6
ByBlock
100
AcDbCircle
 10
624.9022691095106
 20
18.87867965644035
 30
0.0
 40
3.0
100
AcDbArc
 50
44.99999999999972
 51
224.9999999999995
  0
ARC
  5
1676
330
1D
100
AcDbEntity
  8
0
  6
ByBlock
100
AcDbCircle
 10
642.7733320088262
 20
41.3578312505829
 30
0.0
 40
2.999999999999999
100
AcDbArc
 50
44.99999999999962
 51
224.9999999999995
  0
ARC
  5
1678
330
1D
100
AcDbEntity
  8
0
  6
ByBlock
100
AcDbCircle
 10
642.7733320088262
 20
90.60047193770194
 30
0.0
 40
2.999999999999999
100
AcDbArc
 50
135.0000000000004
 51
315.0000000000006
  0
ARC
  5
1679
330
1D
100
AcDbEntity
  8
0
  6
ByBlock
100
AcDbCircle
 10
642.7733320088263
 20
188.8682554535116
 30
0.0
 40
2.999999999999999
100
AcDbArc
 50
44.99999999999962
 51
224.9999999999996
  0
ARC
  5
167A
330
1D
100
AcDbEntity
  8
0
  6
ByBlock
100
AcDbCircle
 10
642.7733320088263
 20
238.1108961406306
 30
0.0
 40
2.999999999999999
100
AcDbArc
 50
135.0000000000004
 51
315.0000000000002
  0
ARC
  5
167B
330
1D
100
AcDbEntity
  8
0
  6
ByBlock
100
AcDbCircle
 10
642.7733320088263
 20
358.8682554535117
 30
0.0
 40
2.999999999999999
100
AcDbArc
 50
45.0
 51
224.9999999999992
  0
LINE
  5
167D
330
1D
100
AcDbEntity
  8
0
  6
ByBlock
100
AcDbLine
 10
787.1520116652664
 20
16.75735931288084
 30
0.0
 11
787.1520116652664
 21
4.000000000000114
 31
0.0
  0
LINE
  5
167E
330
1D
100
AcDbEntity
  8
0
100
AcDbLine
 10
791.3946523523857
 20
21.00000000000011
 30
0.0
 11
805.023074564582
 21
21.00000000000011
 31
0.0
  0
ARC
  5
167F
330
1D
100
AcDbEntity
  8
0
  6
ByBlock
100
AcDbCircle
 10
789.2733320088261
 20
18.87867965644046
 30
0.0
 40
3.0
100
AcDbArc
 50
44.99999999999962
 51
224.9999999999995
  0
LINE
  5
1680
330
1D
100
AcDbEntity
  8
0
100
AcDbLine
 10
805.023074564582
 20
21.00000000000023
 30
0.0
 11
805.023074564582
 21
39.23651090702339
 31
0.0
  0
LINE
  5
1682
330
1D
100
AcDbEntity
  8
0
  6
ByBlock
100
AcDbLine
 10
822.023074564582
 20
43.47915159414265
 30
0.0
 11
809.2657152517013
 21
43.47915159414265
 31
0.0
  0
ARC
  5
1683
330
1D
100
AcDbEntity
  8
0
  6
ByBlock
100
AcDbCircle
 10
807.1443949081416
 20
41.35783125058301
 30
0.0
 40
2.999999999999999
100
AcDbArc
 50
44.99999999999951
 51
224.9999999999995
  0
ARC
  5
1684
330
1D
100
AcDbEntity
  8
0
  6
ByBlock
100
AcDbCircle
 10
807.1443949081416
 20
90.60047193770205
 30
0.0
 40
2.999999999999999
100
AcDbArc
 50
135.0000000000004
 51
315.0000000000006
  0
LINE
  5
1685
330
1D
100
AcDbEntity
  8
0
  6
ByBlock
100
AcDbLine
 10
822.023074564582
 20
88.47915159414265
 30
0.0
 11
809.2657152517015
 21
88.47915159414265
 31
0.0
  0
LINE
  5
1686
330
1D
100
AcDbEntity
  8
0
100
AcDbLine
 10
805.023074564582
 20
92.72179228126168
 30
0.0
 11
805.0230745645821
 21
137.734363695607
 31
0.0
  0
LINE
  5
1687
330
1D
100
AcDbEntity
  8
0
  6
ByBlock
100
AcDbLine
 10
822.0230745645821
 20
235.9895757970712
 30
0.0
 11
822.0230745645821
 21
190.9895757970712
 31
0.0
  0
ARC
  5
1688
330
1D
100
AcDbEntity
  8
0
  6
ByBlock
100
AcDbCircle
 10
807.1443949081417
 20
188.8682554535117
 30
0.0
 40
2.999999999999999
100
AcDbArc
 50
44.99999999999962
 51
224.9999999999996
  0
ARC
  5
1689
330
1D
100
AcDbEntity
  8
0
  6
ByBlock
100
AcDbCircle
 10
807.1443949081417
 20
238.1108961406307
 30
0.0
 40
2.999999999999999
100
AcDbArc
 50
135.0000000000004
 51
315.0000000000002
  0
LINE
  5
168A
330
1D
100
AcDbEntity
  8
0
  6
ByBlock
100
AcDbLine
 10
822.0230745645821
 20
235.9895757970714
 30
0.0
 11
809.2657152517017
 21
235.9895757970714
 31
0.0
  0
LINE
  5
168B
330
1D
100
AcDbEntity
  8
0
100
AcDbLine
 10
805.0230745645821
 20
240.2322164841904
 30
0.0
 11
805.0230745645821
 21
296.4895757970714
 31
0.0
  0
LINE
  5
168C
330
1D
100
AcDbEntity
  8
0
100
AcDbLine
 10
805.0230745645821
 20
141.734363695607
 30
0.0
 11
805.0230745645821
 21
186.7469351099521
 31
0.0
  0
LINE
  5
168D
330
1D
100
AcDbEntity
  8
0
  6
ByBlock
100
AcDbLine
 10
809.2657152517013
 20
190.9895757970714
 30
0.0
 11
822.0230745645821
 21
190.9895757970714
 31
0.0
  0
ARC
  5
168E
330
1D
100
AcDbEntity
  8
0
  6
ByBlock
100
AcDbCircle
 10
807.1443949081417
 20
358.8682554535118
 30
0.0
 40
2.999999999999999
100
AcDbArc
 50
45.0
 51
224.9999999999992
  0
LINE
  5
168F
330
1D
100
AcDbEntity
  8
0
  6
ByBlock
100
AcDbLine
 10
809.2657152517014
 20
360.9895757970713
 30
0.0
 11
822.0230745645821
 21
360.9895757970713
 31
0.0
  0
LINE
  5
1690
330
1D
100
AcDbEntity
  8
0
100
AcDbLine
 10
805.0230745645821
 20
300.4895757970714
 30
0.0
 11
805.0230745645821
 21
356.7469351099522
 31
0.0
  0
LINE
  5
1691
330
1D
100
AcDbEntity
  8
0
  6
ByBlock
100
AcDbLine
 10
822.0230745645822
 20
405.9895757970713
 30
0.0
 11
822.0230745645821
 21
360.9895757970713
 31
0.0
  0
LINE
  5
1692
330
1D
100
AcDbEntity
  8
0
  6
ByBlock
100
AcDbLine
 10
571.480948765951
 20
406.0
 30
0.0
 11
657.6520116652667
 21
405.9999999999998
 31
0.0
  0
LINE
  5
1693
330
1D
100
AcDbEntity
  8
0
  6
ByBlock
100
AcDbLine
 10
735.8520116652667
 20
406.0000000000001
 30
0.0
 11
822.0230745645822
 21
405.9895757970713
 31
0.0
  0
CIRCLE
  5
16A7
330
1D
100
AcDbEntity
  8
montaz-ramy
  6
ByBlock
100
AcDbCircle
 10
604.7487144907799
 20
65.97915159414242
 30
0.0
 40
2.0
  0
CIRCLE
  5
16A8
330
1D
100
AcDbEntity
  8
montaz-ramy
  6
ByBlock
100
AcDbCircle
 10
596.7487144907799
 20
65.97915159414242
 30
0.0
 40
2.0
  0
CIRCLE
  5
16A9
330
1D
100
AcDbEntity
  8
helpline
  6
ByBlock
100
AcDbCircle
 10
604.7487144907799
 20
213.4895757970711
 30
0.0
 40
2.0
  0
CIRCLE
  5
16AA
330
1D
100
AcDbEntity
  8
helpline
  6
ByBlock
100
AcDbCircle
 10
596.7487144907799
 20
213.4895757970711
 30
0.0
 40
2.0
  0
CIRCLE
  5
16AB
330
1D
100
AcDbEntity
  8
montaz-ramy
  6
ByBlock
100
AcDbCircle
 10
604.7487144907799
 20
383.4895757970712
 30
0.0
 40
2.0
  0
CIRCLE
  5
16AC
330
1D
100
AcDbEntity
  8
montaz-ramy
  6
ByBlock
100
AcDbCircle
 10
596.7487144907799
 20
383.4895757970712
 30
0.0
 40
2.0
  0
CIRCLE
  5
16AF
330
1D
100
AcDbEntity
  8
helpline
  6
ByBlock
100
AcDbCircle
 10
769.1197773900954
 20
213.4895757970712
 30
0.0
 40
2.0
  0
CIRCLE
  5
16B0
330
1D
100
AcDbEntity
  8
helpline
  6
ByBlock
100
AcDbCircle
 10
761.1197773900954
 20
213.4895757970712
 30
0.0
 40
2.0
  0
CIRCLE
  5
16B1
330
1D
100
AcDbEntity
  8
montaz-ramy
  6
ByBlock
100
AcDbCircle
 10
769.1197773900954
 20
383.4895757970713
 30
0.0
 40
2.0
  0
CIRCLE
  5
16B2
330
1D
100
AcDbEntity
  8
montaz-ramy
  6
ByBlock
100
AcDbCircle
 10
761.1197773900954
 20
383.4895757970713
 30
0.0
 40
2.0
  0
LINE
  5
1789
330
1D
100
AcDbEntity
  8
0
100
AcDbLine
 10
841.2230745645824
 20
492.4999999999997
 30
0.0
 11
1201.223074564582
 21
492.4999999999995
 31
0.0
  0
LINE
  5
178A
330
1D
100
AcDbEntity
  8
0
100
AcDbLine
 10
1226.223074564582
 20
467.4999999999995
 30
0.0
 11
1226.223074564582
 21
408.9883646049833
 31
0.0
  0
LINE
  5
178B
330
1D
100
AcDbEntity
  8
0
100
AcDbLine
 10
1201.223074564582
 20
3.999999999999545
 30
0.0
 11
841.2230745645822
 21
3.999999999999545
 31
0.0
  0
LINE
  5
178C
330
1D
100
AcDbEntity
  8
0
100
AcDbLine
 10
841.2230745645822
 20
53.24264068711881
 30
0.0
 11
841.2230745645822
 21
64.99999999999955
 31
0.0
  0
LINE
  5
178D
330
1D
100
AcDbEntity
  8
0
100
AcDbLine
 10
841.2230745645822
 20
129.9999999999995
 30
0.0
 11
1099.323074564582
 21
129.9999999999995
 31
0.0
  0
LINE
  5
178E
330
1D
100
AcDbEntity
  8
0
100
AcDbLine
 10
1124.323074564582
 20
154.9999999999995
 30
0.0
 11
1124.323074564582
 21
354.9999999999997
 31
0.0
  0
LINE
  5
178F
330
1D
100
AcDbEntity
  8
0
100
AcDbLine
 10
1099.323074564582
 20
379.9999999999997
 30
0.0
 11
841.2230745645824
 21
379.9999999999997
 31
0.0
  0
LINE
  5
1790
330
1D
100
AcDbEntity
  8
0
  6
ByBlock
100
AcDbLine
 10
841.2230745645824
 20
379.9999999999997
 30
0.0
 11
825.2230745645824
 21
379.9999999999997
 31
0.0
  0
LINE
  5
1791
330
1D
100
AcDbEntity
  8
0
  6
ByBlock
100
AcDbLine
 10
825.2230745645824
 20
379.9999999999997
 30
0.0
 11
825.2230745645824
 21
424.9999999999997
 31
0.0
  0
LINE
  5
1792
330
1D
100
AcDbEntity
  8
0
  6
ByBlock
100
AcDbLine
 10
841.2230745645824
 20
492.4999999999998
 30
0.0
 11
825.2230745645824
 21
492.4999999999998
 31
0.0
  0
LINE
  5
1793
330
1D
100
AcDbEntity
  8
0
  6
ByBlock
100
AcDbLine
 10
825.2230745645824
 20
492.4999999999998
 30
0.0
 11
825.2230745645824
 21
447.4999999999998
 31
0.0
  0
LINE
  5
1794
330
1D
100
AcDbEntity
  8
0
  6
ByBlock
100
AcDbLine
 10
825.2230745645824
 20
447.4999999999998
 30
0.0
 11
836.980433877463
 21
447.4999999999998
 31
0.0
  0
LINE
  5
1795
330
1D
100
AcDbEntity
  8
0
  6
ByBlock
100
AcDbLine
 10
841.2230745645824
 20
443.2573593128805
 30
0.0
 11
841.2230745645824
 21
438.2499999999997
 31
0.0
  0
LINE
  5
1796
330
1D
100
AcDbEntity
  8
0
  6
ByBlock
100
AcDbLine
 10
825.2230745645824
 20
129.9999999999995
 30
0.0
 11
841.2230745645822
 21
129.9999999999995
 31
0.0
  0
LINE
  5
1797
330
1D
100
AcDbEntity
  8
0
  6
ByBlock
100
AcDbLine
 10
825.2230745645824
 20
84.99999999999955
 30
0.0
 11
836.9804338774629
 21
84.99999999999955
 31
0.0
  0
LINE
  5
1798
330
1D
100
AcDbEntity
  8
0
  6
ByBlock
100
AcDbLine
 10
825.2230745645822
 20
49.0
 30
0.0
 11
836.9804338774625
 21
49.0
 31
0.0
  0
LINE
  5
1799
330
1D
100
AcDbEntity
  8
0
  6
ByBlock
100
AcDbLine
 10
825.2230745645822
 20
4.0
 30
0.0
 11
841.2230745645822
 21
4.0
 31
0.0
  0
LINE
  5
179A
330
1D
100
AcDbEntity
  8
0
  6
ByBlock
100
AcDbLine
 10
825.2230745645822
 20
129.9999999999995
 30
0.0
 11
825.2230745645822
 21
84.99999999999955
 31
0.0
  0
LINE
  5
179B
330
1D
100
AcDbEntity
  8
0
  6
ByBlock
100
AcDbLine
 10
825.2230745645822
 20
49.0
 30
0.0
 11
825.2230745645822
 21
4.0
 31
0.0
  0
LINE
  5
179C
330
1D
100
AcDbEntity
  8
0
100
AcDbLine
 10
851.2230626050272
 20
430.1781250001842
 30
0.0
 11
847.2230626050272
 21
430.1781250001842
 31
0.0
  0
LINE
  5
179D
330
1D
100
AcDbEntity
  8
0
100
AcDbLine
 10
858.985562605027
 20
434.2499999999997
 30
0.0
 11
851.2230626050272
 21
434.2499999999997
 31
0.0
  0
LINE
  5
179E
330
1D
100
AcDbEntity
  8
0
100
AcDbLine
 10
851.2230626050272
 20
438.2499999999997
 30
0.0
 11
851.2230626050272
 21
442.3218749998149
 31
0.0
  0
LINE
  5
179F
330
1D
100
AcDbEntity
  8
0
100
AcDbLine
 10
847.2230626050272
 20
442.3218749998149
 30
0.0
 11
847.2230626050272
 21
438.2499999999997
 31
0.0
  0
LINE
  5
17A0
330
1D
100
AcDbEntity
  8
0
100
AcDbLine
 10
847.2230626050272
 20
438.2499999999997
 30
0.0
 11
841.2230745645824
 21
438.2499999999997
 31
0.0
  0
LINE
  5
17A1
330
1D
100
AcDbEntity
  8
0
100
AcDbLine
 10
847.2230626050272
 20
434.2499999999997
 30
0.0
 11
841.2230745645824
 21
434.2499999999997
 31
0.0
  0
LINE
  5
17A2
330
1D
100
AcDbEntity
  8
0
100
AcDbLine
 10
847.2230626050272
 20
430.1781250001842
 30
0.0
 11
847.2230626050272
 21
434.2499999999997
 31
0.0
  0
LINE
  5
17A3
330
1D
100
AcDbEntity
  8
0
100
AcDbLine
 10
858.985562605027
 20
438.2499999999997
 30
0.0
 11
851.2230626050272
 21
438.2499999999997
 31
0.0
  0
LINE
  5
17A4
330
1D
100
AcDbEntity
  8
0
100
AcDbLine
 10
851.2230626050272
 20
442.3218749998149
 30
0.0
 11
847.2230626050272
 21
442.3218749998149
 31
0.0
  0
LINE
  5
17A5
330
1D
100
AcDbEntity
  8
0
100
AcDbLine
 10
858.985562605027
 20
438.2499999999997
 30
0.0
 11
858.985562605027
 21
434.2499999999997
 31
0.0
  0
LINE
  5
17A6
330
1D
100
AcDbEntity
  8
0
100
AcDbLine
 10
851.2230626050272
 20
430.1781250001842
 30
0.0
 11
851.2230626050272
 21
434.2499999999997
 31
0.0
  0
LINE
  5
17A7
330
1D
100
AcDbEntity
  8
0
100
AcDbLine
 10
851.223062605027
 20
60.92812500018408
 30
0.0
 11
847.223062605027
 21
60.92812500018408
 31
0.0
  0
LINE
  5
17A8
330
1D
100
AcDbEntity
  8
0
100
AcDbLine
 10
858.9855626050269
 20
64.99999999999955
 30
0.0
 11
851.223062605027
 21
64.99999999999955
 31
0.0
  0
LINE
  5
17A9
330
1D
100
AcDbEntity
  8
0
100
AcDbLine
 10
851.223062605027
 20
68.99999999999955
 30
0.0
 11
851.223062605027
 21
73.07187499981501
 31
0.0
  0
LINE
  5
17AA
330
1D
100
AcDbEntity
  8
0
100
AcDbLine
 10
847.223062605027
 20
73.07187499981501
 30
0.0
 11
847.223062605027
 21
68.99999999999955
 31
0.0
  0
LINE
  5
17AB
330
1D
100
AcDbEntity
  8
0
100
AcDbLine
 10
847.223062605027
 20
68.99999999999955
 30
0.0
 11
841.2230745645822
 21
68.99999999999955
 31
0.0
  0
LINE
  5
17AC
330
1D
100
AcDbEntity
  8
0
100
AcDbLine
 10
847.223062605027
 20
64.99999999999955
 30
0.0
 11
841.2230745645822
 21
64.99999999999955
 31
0.0
  0
LINE
  5
17AD
330
1D
100
AcDbEntity
  8
0
100
AcDbLine
 10
847.223062605027
 20
60.92812500018408
 30
0.0
 11
847.223062605027
 21
64.99999999999955
 31
0.0
  0
LINE
  5
17AE
330
1D
100
AcDbEntity
  8
0
100
AcDbLine
 10
858.9855626050269
 20
68.99999999999955
 30
0.0
 11
851.223062605027
 21
68.99999999999955
 31
0.0
  0
LINE
  5
17AF
330
1D
100
AcDbEntity
  8
0
100
AcDbLine
 10
851.223062605027
 20
73.07187499981501
 30
0.0
 11
847.223062605027
 21
73.07187499981501
 31
0.0
  0
LINE
  5
17B0
330
1D
100
AcDbEntity
  8
0
100
AcDbLine
 10
858.9855626050269
 20
68.99999999999955
 30
0.0
 11
858.9855626050269
 21
64.99999999999955
 31
0.0
  0
LINE
  5
17B1
330
1D
100
AcDbEntity
  8
0
100
AcDbLine
 10
851.223062605027
 20
60.92812500018408
 30
0.0
 11
851.223062605027
 21
64.99999999999955
 31
0.0
  0
LINE
  5
17B2
330
1D
100
AcDbEntity
  8
0
100
AcDbLine
 10
841.2230745645822
 20
68.99999999999955
 30
0.0
 11
841.2230745645822
 21
80.75735931288028
 31
0.0
  0
CIRCLE
  5
17B3
330
1D
100
AcDbEntity
  8
montaz-ramy
  6
ByBlock
100
AcDbCircle
 10
959.9730745645825
 20
399.4883646049833
 30
0.0
 40
2.1
  0
CIRCLE
  5
17B4
330
1D
100
AcDbEntity
  8
helpline
  6
ByBlock
100
AcDbCircle
 10
1118.723074564582
 20
399.4883646049833
 30
0.0
 40
2.1
  0
CIRCLE
  5
17B5
330
1D
100
AcDbEntity
  8
montaz-ramy
  6
ByBlock
100
AcDbCircle
 10
1118.7231
 20
47.11699999999973
 30
0.0
 40
2.1
  0
CIRCLE
  5
17B6
330
1D
100
AcDbEntity
  8
helpline
  6
ByBlock
100
AcDbCircle
 10
959.9730745645822
 20
47.11699999999973
 30
0.0
 40
2.1
  0
CIRCLE
  5
17B7
330
1D
100
AcDbEntity
  8
helpline
  6
ByBlock
100
AcDbCircle
 10
902.2230745645824
 20
444.0002937706462
 30
0.0
 40
2.1
  0
CIRCLE
  5
17B8
330
1D
100
AcDbEntity
  8
helpline
  6
ByBlock
100
AcDbCircle
 10
902.199682424498
 20
475.9402441396983
 30
0.0
 40
2.1
  0
ARC
  5
17B9
330
1D
100
AcDbEntity
  8
0
100
AcDbCircle
 10
1201.223074564582
 20
28.99999999999955
 30
0.0
 40
25.0
100
AcDbArc
 50
270.0
 51
0.0
  0
ARC
  5
17BA
330
1D
100
AcDbEntity
  8
0
100
AcDbCircle
 10
1201.223074564582
 20
467.4999999999995
 30
0.0
 40
25.0
100
AcDbArc
 50
0.0
 51
90.0
  0
CIRCLE
  5
17BB
330
1D
100
AcDbEntity
  8
helpline
  6
ByBlock
100
AcDbCircle
 10
902.2230745645822
 20
65.06157412586253
 30
0.0
 40
2.1
  0
CIRCLE
  5
17BC
330
1D
100
AcDbEntity
  8
helpline
  6
ByBlock
100
AcDbCircle
 10
902.1996824244978
 20
97.00152449491452
 30
0.0
 40
2.1
  0
CIRCLE
  5
17BD
330
1D
100
AcDbEntity
  8
helpline
  6
ByBlock
100
AcDbCircle
 10
1217.725879066717
 20
115.9783255601888
 30
0.0
 40
2.1
  0
CIRCLE
  5
17BE
330
1D
100
AcDbEntity
  8
helpline
  6
ByBlock
100
AcDbCircle
 10
1217.712569356611
 20
80.98494716290088
 30
0.0
 40
2.1
  0
CIRCLE
  5
17BF
330
1D
100
AcDbEntity
  8
helpline
  6
ByBlock
100
AcDbCircle
 10
1217.747056668585
 20
417.9984030667024
 30
0.0
 40
2.1
  0
CIRCLE
  5
17C0
330
1D
100
AcDbEntity
  8
helpline
  6
ByBlock
100
AcDbCircle
 10
1217.760366378691
 20
452.9917814639902
 30
0.0
 40
2.1
  0
ARC
  5
17C1
330
1D
100
AcDbEntity
  8
0
100
AcDbCircle
 10
1099.323074564582
 20
354.9999999999997
 30
0.0
 40
25.0
100
AcDbArc
 50
0.0
 51
90.0
  0
ARC
  5
17C2
330
1D
100
AcDbEntity
  8
0
100
AcDbCircle
 10
1099.323074564582
 20
154.9999999999995
 30
0.0
 40
25.0
100
AcDbArc
 50
270.0
 51
0.0
  0
LINE
  5
17C3
330
1D
100
AcDbEntity
  8
0
100
AcDbLine
 10
1226.223074564582
 20
389.9883646049833
 30
0.0
 11
1226.223074564582
 21
56.61699999999973
 31
0.0
  0
LINE
  5
17C4
330
1D
100
AcDbEntity
  8
0
100
AcDbLine
 10
1226.223074564582
 20
37.61699999999973
 30
0.0
 11
1226.223074564582
 21
28.99999999999955
 31
0.0
  0
LINE
  5
17D6
330
1D
100
AcDbEntity
  8
0
  6
ByBlock
100
AcDbLine
 10
1226.223074564582
 20
408.9883646049833
 30
0.0
 11
1185.215715251701
 21
408.9883646049833
 31
0.0
  0
LINE
  5
17D7
330
1D
100
AcDbEntity
  8
0
  6
ByBlock
100
AcDbLine
 10
1185.215715251701
 20
389.9883646049833
 30
0.0
 11
1226.223074564582
 21
389.9883646049833
 31
0.0
  0
ARC
  5
17EF
330
1D
100
AcDbEntity
  8
0
  6
ByBlock
100
AcDbCircle
 10
839.1017542210227
 20
445.3786796564401
 30
0.0
 40
2.999999999999999
100
AcDbArc
 50
315.0000000000007
 51
135.0
  0
LINE
  5
17F0
330
1D
100
AcDbEntity
  8
0
  6
ByBlock
100
AcDbLine
 10
825.2230745645824
 20
424.9999999999995
 30
0.0
 11
836.980433877463
 21
424.9999999999995
 31
0.0
  0
LINE
  5
17F1
330
1D
100
AcDbEntity
  8
0
  6
ByBlock
100
AcDbLine
 10
841.2230745645824
 20
429.2426406871188
 30
0.0
 11
841.2230745645824
 21
434.2499999999997
 31
0.0
  0
ARC
  5
17F2
330
1D
100
AcDbEntity
  8
0
  6
ByBlock
100
AcDbCircle
 10
839.1017542210227
 20
427.1213203435592
 30
0.0
 40
2.999999999999999
100
AcDbArc
 50
225.0
 51
44.99999999999923
  0
ARC
  5
17F3
330
1D
100
AcDbEntity
  8
0
  6
ByBlock
100
AcDbCircle
 10
839.1017542210226
 20
82.8786796564399
 30
0.0
 40
2.999999999999999
100
AcDbArc
 50
315.0000000000006
 51
135.0000000000004
  0
ARC
  5
17F4
330
1D
100
AcDbEntity
  8
0
  6
ByBlock
100
AcDbCircle
 10
839.1017542210226
 20
51.12132034355919
 30
0.0
 40
2.999999999999999
100
AcDbArc
 50
224.9999999999872
 51
44.99999999999951
  0
LINE
  5
182F
330
1D
100
AcDbEntity
  8
wpust
  6
ByBlock
100
AcDbLine
 10
867.7157152517016
 20
389.9883646049833
 30
0.0
 11
904.7304338774629
 21
389.9883646049833
 31
0.0
  0
LINE
  5
1831
330
1D
100
AcDbEntity
  8
wpust
  6
ByBlock
100
AcDbLine
 10
908.9730745645824
 20
394.2310052921025
 30
0.0
 11
908.9730745645824
 21
404.7457239178642
 31
0.0
  0
LINE
  5
1833
330
1D
100
AcDbEntity
  8
wpust
  6
ByBlock
100
AcDbLine
 10
904.730433877463
 20
408.9883646049834
 30
0.0
 11
867.7157152517016
 21
408.9883646049833
 31
0.0
  0
LINE
  5
1841
330
1D
100
AcDbEntity
  8
wpust
  6
ByBlock
100
AcDbLine
 10
87.51163539501657
 20
354.7282077187382
 30
0.0
 11
87.51163539501651
 21
317.7134890929769
 31
0.0
  0
LINE
  5
1845
330
1D
100
AcDbEntity
  8
wpust
  6
ByBlock
100
AcDbLine
 10
106.5116353950165
 20
317.7134890929769
 30
0.0
 11
106.5116353950165
 21
354.7282077187383
 31
0.0
  0
LINE
  5
184F
330
1D
100
AcDbEntity
  8
0
  6
ByBlock
100
AcDbLine
 10
49.24999999999999
 20
291.9639089652621
 30
0.0
 11
49.24999999999999
 21
281.4491903395008
 31
0.0
  0
LINE
  5
1850
330
1D
100
AcDbEntity
  8
0
  6
ByBlock
100
AcDbLine
 10
45.00735931288073
 20
296.2065496523815
 30
0.0
 11
4.0
 21
296.2065496523815
 31
0.0
  0
LINE
  5
1851
330
1D
100
AcDbEntity
  8
0
  6
ByBlock
100
AcDbLine
 10
45.00735931288073
 20
277.2065496523815
 30
0.0
 11
4.0
 21
277.2065496523815
 31
0.0
  0
ARC
  5
1852
330
1D
100
AcDbEntity
  8
0
  6
ByBlock
100
AcDbCircle
 10
47.12867965644035
 20
294.0852293088218
 30
0.0
 40
2.999999999999999
100
AcDbArc
 50
314.9999999999997
 51
134.9999999999995
  0
ARC
  5
1854
330
1D
100
AcDbEntity
  8
0
  6
ByBlock
100
AcDbCircle
 10
47.12867965644035
 20
279.3278699959411
 30
0.0
 40
2.999999999999999
100
AcDbArc
 50
225.0000000000005
 51
45.00000000000039
  0
LINE
  5
1855
330
1D
100
AcDbEntity
  8
wpust
  6
ByBlock
100
AcDbLine
 10
116.7500000000001
 20
291.9639089652621
 30
0.0
 11
116.7500000000001
 21
281.4491903395008
 31
0.0
  0
ARC
  5
1856
330
1D
100
AcDbEntity
  8
wpust
  6
ByBlock
100
AcDbCircle
 10
73.3713203435597
 20
279.3278699959411
 30
0.0
 40
3.000000000000001
100
AcDbArc
 50
134.9999999999996
 51
314.9999999999997
  0
ARC
  5
1858
330
1D
100
AcDbEntity
  8
wpust
  6
ByBlock
100
AcDbCircle
 10
73.3713203435597
 20
294.0852293088218
 30
0.0
 40
3.000000000000001
100
AcDbArc
 50
45.00000000000039
 51
224.999999999999
  0
ARC
  5
185A
330
1D
100
AcDbEntity
  8
wpust
  6
ByBlock
100
AcDbCircle
 10
114.6286796564405
 20
294.0852293088218
 30
0.0
 40
2.999999999999999
100
AcDbArc
 50
314.9999999999997
 51
134.9999999999994
  0
ARC
  5
185C
330
1D
100
AcDbEntity
  8
wpust
  6
ByBlock
100
AcDbCircle
 10
114.6286796564405
 20
279.3278699959411
 30
0.0
 40
2.999999999999999
100
AcDbArc
 50
225.0000000000006
 51
45.00000000000039
  0
ARC
  5
185D
330
1D
100
AcDbEntity
  8
wpust
  6
ByBlock
100
AcDbCircle
 10
409.6286796564405
 20
279.3278699959411
 30
0.0
 40
3.000000000000001
100
AcDbArc
 50
225.0000000000008
 51
45.0
  0
LINE
  5
185E
330
1D
100
AcDbEntity
  8
wpust
  6
ByBlock
100
AcDbLine
 10
411.7500000000002
 20
291.9639089652621
 30
0.0
 11
411.7500000000002
 21
281.4491903395008
 31
0.0
  0
ARC
  5
185F
330
1D
100
AcDbEntity
  8
wpust
  6
ByBlock
100
AcDbCircle
 10
409.6286796564405
 20
294.0852293088218
 30
0.0
 40
3.000000000000001
100
AcDbArc
 50
315.0000000000015
 51
134.9999999999992
  0
LINE
  5
1860
330
1D
100
AcDbEntity
  8
wpust
  6
ByBlock
100
AcDbLine
 10
370.4926406871194
 20
296.2065496523815
 30
0.0
 11
407.5073593128809
 21
296.2065496523815
 31
0.0
  0
LINE
  5
1861
330
1D
100
AcDbEntity
  8
wpust
  6
ByBlock
100
AcDbLine
 10
407.5073593128809
 20
277.2065496523815
 30
0.0
 11
370.4926406871194
 21
277.2065496523815
 31
0.0
  0
ARC
  5
1862
330
1D
100
AcDbEntity
  8
wpust
  6
ByBlock
100
AcDbCircle
 10
368.3713203435598
 20
279.3278699959411
 30
0.0
 40
2.999999999999999
100
AcDbArc
 50
135.0
 51
314.9999999999993
  0
LINE
  5
1863
330
1D
100
AcDbEntity
  8
wpust
  6
ByBlock
100
AcDbLine
 10
366.2500000000001
 20
291.9639089652621
 30
0.0
 11
366.2500000000001
 21
281.4491903395008
 31
0.0
  0
ARC
  5
1864
330
1D
100
AcDbEntity
  8
wpust
  6
ByBlock
100
AcDbCircle
 10
368.3713203435598
 20
294.0852293088218
 30
0.0
 40
2.999999999999999
100
AcDbArc
 50
45.00000000000077
 51
225.0
  0
LINE
  5
1865
330
1D
100
AcDbEntity
  8
0
  6
ByBlock
100
AcDbLine
 10
451.4926406871193
 20
277.2065496523815
 30
0.0
 11
492.5
 21
277.2065496523815
 31
0.0
  0
LINE
  5
1866
330
1D
100
AcDbEntity
  8
0
  6
ByBlock
100
AcDbLine
 10
451.4926406871193
 20
296.2065496523815
 30
0.0
 11
492.5
 21
296.2065496523815
 31
0.0
  0
LINE
  5
1867
330
1D
100
AcDbEntity
  8
0
  6
ByBlock
100
AcDbLine
 10
447.25
 20
291.9639089652621
 30
0.0
 11
447.25
 21
281.4491903395008
 31
0.0
  0
ARC
  5
1868
330
1D
100
AcDbEntity
  8
0
  6
ByBlock
100
AcDbCircle
 10
449.3713203435597
 20
294.0852293088218
 30
0.0
 40
2.999999999999999
100
AcDbArc
 50
45.00000000000077
 51
225.0
  0
ARC
  5
1869
330
1D
100
AcDbEntity
  8
0
  6
ByBlock
100
AcDbCircle
 10
449.3713203435597
 20
279.3278699959411
 30
0.0
 40
2.999999999999999
100
AcDbArc
 50
135.0
 51
314.9999999999993
  0
LINE
  5
186A
330
1D
100
AcDbEntity
  8
wpust
  6
ByBlock
100
AcDbLine
 10
91.75427608213579
 20
313.4708484058576
 30
0.0
 11
102.2689947078972
 21
313.4708484058576
 31
0.0
  0
ARC
  5
186B
330
1D
100
AcDbEntity
  8
wpust
  6
ByBlock
100
AcDbCircle
 10
89.63295573857616
 20
315.5921687494173
 30
0.0
 40
3.0
100
AcDbArc
 50
134.9999999999996
 51
314.9999999999997
  0
ARC
  5
186D
330
1D
100
AcDbEntity
  8
wpust
  6
ByBlock
100
AcDbCircle
 10
104.3903150514569
 20
315.5921687494173
 30
0.0
 40
3.0
100
AcDbArc
 50
225.0000000000004
 51
45.00000000000039
  0
ARC
  5
186E
330
1D
100
AcDbEntity
  8
wpust
  6
ByBlock
100
AcDbCircle
 10
89.63295573857616
 20
356.849528062298
 30
0.0
 40
3.0
100
AcDbArc
 50
45.00000000000346
 51
225.0000000000019
  0
ARC
  5
186F
330
1D
100
AcDbEntity
  8
wpust
  6
ByBlock
100
AcDbCircle
 10
104.3903150514569
 20
356.849528062298
 30
0.0
 40
3.0
100
AcDbArc
 50
314.9999999999997
 51
134.9999999999979
  0
LINE
  5
1871
330
1D
100
AcDbEntity
  8
wpust
  6
ByBlock
100
AcDbLine
 10
102.2689947078973
 20
358.9708484058577
 30
0.0
 11
91.75427608213568
 21
358.9708484058577
 31
0.0
  0
ARC
  5
1872
330
1D
100
AcDbEntity
  8
wpust
  6
ByBlock
100
AcDbCircle
 10
456.7616796564403
 20
315.5713203435596
 30
0.0
 40
3.0
100
AcDbArc
 50
225.0000000000008
 51
45.00000000000077
  0
LINE
  5
1873
330
1D
100
AcDbEntity
  8
wpust
  6
ByBlock
100
AcDbLine
 10
439.883
 20
354.7073593128806
 30
0.0
 11
439.883
 21
317.6926406871193
 31
0.0
  0
ARC
  5
1874
330
1D
100
AcDbEntity
  8
wpust
  6
ByBlock
100
AcDbCircle
 10
456.7616796564403
 20
356.8286796564403
 30
0.0
 40
3.0
100
AcDbArc
 50
314.9999999999993
 51
134.9999999999977
  0
ARC
  5
1875
330
1D
100
AcDbEntity
  8
wpust
  6
ByBlock
100
AcDbCircle
 10
442.0043203435596
 20
315.5713203435596
 30
0.0
 40
3.0
100
AcDbArc
 50
134.9999999999992
 51
315.0
  0
LINE
  5
1876
330
1D
100
AcDbEntity
  8
wpust
  6
ByBlock
100
AcDbLine
 10
444.1256406871192
 20
313.4499999999999
 30
0.0
 11
454.6403593128807
 21
313.4499999999999
 31
0.0
  0
ARC
  5
1877
330
1D
100
AcDbEntity
  8
wpust
  6
ByBlock
100
AcDbCircle
 10
442.0043203435596
 20
356.8286796564403
 30
0.0
 40
3.0
100
AcDbArc
 50
45.00000000000307
 51
225.0000000000023
  0
LINE
  5
1878
330
1D
100
AcDbEntity
  8
wpust
  6
ByBlock
100
AcDbLine
 10
454.6403593128808
 20
358.95
 30
0.0
 11
444.1256406871191
 21
358.95
 31
0.0
  0
LINE
  5
1879
330
1D
100
AcDbEntity
  8
wpust
  6
ByBlock
100
AcDbLine
 10
458.883
 20
317.6926406871193
 30
0.0
 11
458.883
 21
354.7073593128806
 31
0.0
  0
LINE
  5
187B
330
1D
100
AcDbEntity
  8
0
  6
ByBlock
100
AcDbLine
 10
91.75427608213573
 20
394.7708484058576
 30
0.0
 11
102.2689947078972
 21
394.7708484058576
 31
0.0
  0
ARC
  5
187C
330
1D
100
AcDbEntity
  8
0
  6
ByBlock
100
AcDbCircle
 10
89.63295573857611
 20
396.8921687494173
 30
0.0
 40
2.999999999999999
100
AcDbArc
 50
134.9999999999996
 51
314.9999999999994
  0
ARC
  5
187E
330
1D
100
AcDbEntity
  8
0
  6
ByBlock
100
AcDbCircle
 10
104.3903150514568
 20
396.8921687494173
 30
0.0
 40
2.999999999999999
100
AcDbArc
 50
225.0000000000006
 51
45.00000000000039
  0
LINE
  5
187F
330
1D
100
AcDbEntity
  8
0
  6
ByBlock
100
AcDbLine
 10
439.8829999999999
 20
398.9926406871193
 30
0.0
 11
439.8829999999999
 21
440.0
 31
0.0
  0
LINE
  5
1880
330
1D
100
AcDbEntity
  8
0
  6
ByBlock
100
AcDbLine
 10
458.8829999999999
 20
440.0
 30
0.0
 11
458.8829999999999
 21
398.9926406871193
 31
0.0
  0
ARC
  5
1881
330
1D
100
AcDbEntity
  8
0
  6
ByBlock
100
AcDbCircle
 10
456.7616796564403
 20
396.8713203435596
 30
0.0
 40
2.999999999999999
100
AcDbArc
 50
225.0000000000008
 51
45.0
  0
LINE
  5
1882
330
1D
100
AcDbEntity
  8
0
  6
ByBlock
100
AcDbLine
 10
444.1256406871192
 20
394.7499999999999
 30
0.0
 11
454.6403593128807
 21
394.7499999999999
 31
0.0
  0
ARC
  5
1883
330
1D
100
AcDbEntity
  8
0
  6
ByBlock
100
AcDbCircle
 10
442.0043203435596
 20
396.8713203435596
 30
0.0
 40
2.999999999999999
100
AcDbArc
 50
135.0
 51
314.9999999999993
  0
LINE
  5
1884
330
1D
100
AcDbEntity
  8
wpust
  6
ByBlock
100
AcDbLine
 10
863.4730745645822
 20
394.2310052921026
 30
0.0
 11
863.4730745645822
 21
404.745723917864
 31
0.0
  0
ARC
  5
1885
330
1D
100
AcDbEntity
  8
wpust
  6
ByBlock
100
AcDbCircle
 10
865.5943949081419
 20
406.8670442614236
 30
0.0
 40
2.999999999999999
100
AcDbArc
 50
45.0
 51
224.9999999999992
  0
ARC
  5
188A
330
1D
100
AcDbEntity
  8
wpust
  6
ByBlock
100
AcDbCircle
 10
906.8517542210226
 20
406.8670442614236
 30
0.0
 40
2.999999999999999
100
AcDbArc
 50
315.0000000000038
 51
134.9999999999977
  0
ARC
  5
188B
330
1D
100
AcDbEntity
  8
wpust
  6
ByBlock
100
AcDbCircle
 10
865.5943949081419
 20
392.109684948543
 30
0.0
 40
2.999999999999999
100
AcDbArc
 50
135.0000000000008
 51
315.0
  0
ARC
  5
188C
330
1D
100
AcDbEntity
  8
wpust
  6
ByBlock
100
AcDbCircle
 10
906.8517542210226
 20
392.109684948543
 30
0.0
 40
2.999999999999999
100
AcDbArc
 50
225.0
 51
44.99999999999616
  0
ARC
  5
188D
330
1D
100
AcDbEntity
  8
wpust
  6
ByBlock
100
AcDbCircle
 10
1054.351754221023
 20
392.109684948543
 30
0.0
 40
2.999999999999999
100
AcDbArc
 50
225.0000000000015
 51
44.99999999999616
  0
LINE
  5
188E
330
1D
100
AcDbEntity
  8
wpust
  6
ByBlock
100
AcDbLine
 10
1015.215715251702
 20
389.9883646049833
 30
0.0
 11
1052.230433877464
 21
389.9883646049833
 31
0.0
  0
LINE
  5
188F
330
1D
100
AcDbEntity
  8
wpust
  6
ByBlock
100
AcDbLine
 10
1056.473074564583
 20
394.2310052921025
 30
0.0
 11
1056.473074564583
 21
404.7457239178642
 31
0.0
  0
LINE
  5
1890
330
1D
100
AcDbEntity
  8
wpust
  6
ByBlock
100
AcDbLine
 10
1052.230433877464
 20
408.9883646049834
 30
0.0
 11
1015.215715251702
 21
408.9883646049833
 31
0.0
  0
ARC
  5
1891
330
1D
100
AcDbEntity
  8
wpust
  6
ByBlock
100
AcDbCircle
 10
1054.351754221023
 20
406.8670442614236
 30
0.0
 40
2.999999999999999
100
AcDbArc
 50
315.0000000000038
 51
134.9999999999977
  0
LINE
  5
1892
330
1D
100
AcDbEntity
  8
wpust
  6
ByBlock
100
AcDbLine
 10
1010.973074564583
 20
394.2310052921026
 30
0.0
 11
1010.973074564583
 21
404.745723917864
 31
0.0
  0
ARC
  5
1893
330
1D
100
AcDbEntity
  8
wpust
  6
ByBlock
100
AcDbCircle
 10
1013.094394908143
 20
406.8670442614236
 30
0.0
 40
2.999999999999999
100
AcDbArc
 50
45.0
 51
224.9999999999992
  0
ARC
  5
1894
330
1D
100
AcDbEntity
  8
wpust
  6
ByBlock
100
AcDbCircle
 10
1013.094394908143
 20
392.109684948543
 30
0.0
 40
2.999999999999999
100
AcDbArc
 50
135.0000000000008
 51
315.0
  0
LINE
  5
1895
330
1D
100
AcDbEntity
  8
0
  6
ByBlock
100
AcDbLine
 10
1180.973074564582
 20
404.7457239178639
 30
0.0
 11
1180.973074564582
 21
394.2310052921027
 31
0.0
  0
ARC
  5
1896
330
1D
100
AcDbEntity
  8
0
  6
ByBlock
100
AcDbCircle
 10
1183.094394908142
 20
406.8670442614236
 30
0.0
 40
2.999999999999999
100
AcDbArc
 50
45.0000000000023
 51
225.0000000000023
  0
ARC
  5
1898
330
1D
100
AcDbEntity
  8
0
  6
ByBlock
100
AcDbCircle
 10
1183.094394908142
 20
392.109684948543
 30
0.0
 40
2.999999999999999
100
AcDbArc
 50
134.9999999999977
 51
314.9999999999978
  0
LINE
  5
18CE
330
1D
100
AcDbEntity
  8
0
  6
ByBlock
100
AcDbLine
 10
1185.215740687119
 20
37.61699999999973
 30
0.0
 11
1226.2231
 21
37.61699999999973
 31
0.0
  0
LINE
  5
18CF
330
1D
100
AcDbEntity
  8
0
  6
ByBlock
100
AcDbLine
 10
1226.2231
 20
56.61699999999973
 30
0.0
 11
1185.215740687119
 21
56.61699999999973
 31
0.0
  0
ARC
  5
18D0
330
1D
100
AcDbEntity
  8
0
  6
ByBlock
100
AcDbCircle
 10
1183.094420343559
 20
39.73832034355939
 30
0.0
 40
2.999999999999999
100
AcDbArc
 50
134.9999999999977
 51
314.9999999999978
  0
ARC
  5
18D1
330
1D
100
AcDbEntity
  8
0
  6
ByBlock
100
AcDbCircle
 10
1183.094420343559
 20
54.49567965644007
 30
0.0
 40
2.999999999999999
100
AcDbArc
 50
45.0000000000023
 51
225.0000000000023
  0
LINE
  5
18D2
330
1D
100
AcDbEntity
  8
0
  6
ByBlock
100
AcDbLine
 10
1180.9731
 20
52.37435931288036
 30
0.0
 11
1180.9731
 21
41.85964068711911
 31
0.0
  0
ARC
  5
18D3
330
1D
100
AcDbEntity
  8
wpust
  6
ByBlock
100
AcDbCircle
 10
1054.351779656441
 20
39.73832034355939
 30
0.0
 40
2.999999999999999
100
AcDbArc
 50
225.0000000000023
 51
44.99999999999616
  0
LINE
  5
18D4
330
1D
100
AcDbEntity
  8
wpust
  6
ByBlock
100
AcDbLine
 10
1015.21574068712
 20
37.61699999999973
 30
0.0
 11
1052.230459312882
 21
37.61699999999973
 31
0.0
  0
LINE
  5
18D5
330
1D
100
AcDbEntity
  8
wpust
  6
ByBlock
100
AcDbLine
 10
1056.473100000001
 20
41.85964068711888
 30
0.0
 11
1056.473100000001
 21
52.37435931288059
 31
0.0
  0
LINE
  5
18D6
330
1D
100
AcDbEntity
  8
wpust
  6
ByBlock
100
AcDbLine
 10
1052.230459312882
 20
56.61699999999979
 30
0.0
 11
1015.21574068712
 21
56.61699999999973
 31
0.0
  0
ARC
  5
18D7
330
1D
100
AcDbEntity
  8
wpust
  6
ByBlock
100
AcDbCircle
 10
1054.351779656441
 20
54.49567965644007
 30
0.0
 40
2.999999999999999
100
AcDbArc
 50
315.0000000000038
 51
134.9999999999977
  0
LINE
  5
18D8
330
1D
100
AcDbEntity
  8
wpust
  6
ByBlock
100
AcDbLine
 10
1010.973100000001
 20
41.859640687119
 30
0.0
 11
1010.973100000001
 21
52.37435931288047
 31
0.0
  0
ARC
  5
18D9
330
1D
100
AcDbEntity
  8
wpust
  6
ByBlock
100
AcDbCircle
 10
1013.094420343561
 20
54.49567965644007
 30
0.0
 40
2.999999999999999
100
AcDbArc
 50
45.0
 51
224.9999999999992
  0
ARC
  5
18DA
330
1D
100
AcDbEntity
  8
wpust
  6
ByBlock
100
AcDbCircle
 10
1013.094420343561
 20
39.73832034355939
 30
0.0
 40
2.999999999999999
100
AcDbArc
 50
135.0000000000008
 51
315.0
  0
ARC
  5
18DB
330
1D
100
AcDbEntity
  8
wpust
  6
ByBlock
100
AcDbCircle
 10
906.8517796564405
 20
39.73832034355939
 30
0.0
 40
2.999999999999999
100
AcDbArc
 50
225.0
 51
44.99999999999616
  0
LINE
  5
18DC
330
1D
100
AcDbEntity
  8
wpust
  6
ByBlock
100
AcDbLine
 10
867.7157406871195
 20
37.61699999999973
 30
0.0
 11
904.7304593128808
 21
37.61699999999973
 31
0.0
  0
LINE
  5
18DD
330
1D
100
AcDbEntity
  8
wpust
  6
ByBlock
100
AcDbLine
 10
908.9731000000003
 20
41.85964068711888
 30
0.0
 11
908.9731000000003
 21
52.37435931288059
 31
0.0
  0
LINE
  5
18DE
330
1D
100
AcDbEntity
  8
wpust
  6
ByBlock
100
AcDbLine
 10
904.730459312881
 20
56.61699999999979
 30
0.0
 11
867.7157406871195
 21
56.61699999999973
 31
0.0
  0
ARC
  5
18DF
330
1D
100
AcDbEntity
  8
wpust
  6
ByBlock
100
AcDbCircle
 10
906.8517796564405
 20
54.49567965644007
 30
0.0
 40
2.999999999999999
100
AcDbArc
 50
315.0000000000038
 51
134.9999999999977
  0
LINE
  5
18E0
330
1D
100
AcDbEntity
  8
wpust
  6
ByBlock
100
AcDbLine
 10
863.4731000000002
 20
41.859640687119
 30
0.0
 11
863.4731000000002
 21
52.37435931288047
 31
0.0
  0
ARC
  5
18E1
330
1D
100
AcDbEntity
  8
wpust
  6
ByBlock
100
AcDbCircle
 10
865.5944203435598
 20
54.49567965644007
 30
0.0
 40
2.999999999999999
100
AcDbArc
 50
45.0
 51
224.9999999999992
  0
ARC
  5
18E2
330
1D
100
AcDbEntity
  8
wpust
  6
ByBlock
100
AcDbCircle
 10
865.5944203435598
 20
39.73832034355939
 30
0.0
 40
2.999999999999999
100
AcDbArc
 50
135.0000000000008
 51
315.0
  0
ENDSEC
  0
SECTION
  2
OBJECTS
  0
DICTIONARY
  5
C
330
0
100
AcDbDictionary
281
     1
  3
ACAD_COLOR
350
C44
  3
ACAD_DETAILVIEWSTYLE
350
9E3
  3
ACAD_GROUP
350
D
  3
ACAD_IMAGE_VARS
350
2E7
  3
ACAD_LAYOUT
350
1A
  3
ACAD_MATERIAL
350
2DF
  3
ACAD_MLEADERSTYLE
350
2F0
  3
ACAD_MLINESTYLE
350
17
  3
ACAD_PLOTSETTINGS
350
19
  3
ACAD_PLOTSTYLENAME
350
E
  3
ACAD_SCALELIST
350
2A0
  3
ACAD_SECTIONVIEWSTYLE
350
9E4
  3
ACAD_TABLESTYLE
350
2E3
  3
ACDB_RECOMPOSE_DATA
350
1CE6
  3
AcDbVariableDictionary
350
9DF
  3
APPDATA
350
2E5
  0
DICTIONARY
  5
66B
330
2
100
AcDbDictionary
280
     1
281
     1
  3
ACAD_LAYERSTATES
360
66C
  3
ACLYDICTIONARY
360
A24
  0
DICTIONARY
  5
16DB
330
1D
100
AcDbDictionary
280
     1
281
     1
  3
ACAD_SORTENTS
360
16DC
  0
DICTIONARY
  5
C44
102
{ACAD_REACTORS
330
C
102
}
330
C
100
AcDbDictionary
281
     1
  0
DICTIONARY
  5
9E3
102
{ACAD_REACTORS
330
C
102
}
330
C
100
AcDbDictionary
281
     1
  0
DICTIONARY
  5
D
102
{ACAD_REACTORS
330
C
102
}
330
C
100
AcDbDictionary
281
     1
  0
RASTERVARIABLES
  5
2E7
102
{ACAD_REACTORS
330
C
102
}
330
C
100
AcDbRasterVariables
 90
        0
 70
     1
 71
     1
 72
     0
  0
DICTIONARY
  5
1A
102
{ACAD_REACTORS
330
C
102
}
330
C
100
AcDbDictionary
281
     1
  3
Arkusz 1
350
1C
  3
Model
350
1E
  0
DICTIONARY
  5
2DF
102
{ACAD_REACTORS
330
C
102
}
330
C
100
AcDbDictionary
281
     1
  3
ByBlock
350
2E1
  3
ByLayer
350
2E0
  3
Global
350
2E2
  0
DICTIONARY
  5
2F0
102
{ACAD_REACTORS
330
C
102
}
330
C
100
AcDbDictionary
281
     1
  0
DICTIONARY
  5
17
102
{ACAD_REACTORS
330
C
102
}
330
C
100
AcDbDictionary
281
     1
  3
Standard
350
18
  0
DICTIONARY
  5
19
102
{ACAD_REACTORS
330
C
102
}
330
C
100
AcDbDictionary
281
     1
  0
ACDBDICTIONARYWDFLT
  5
E
102
{ACAD_REACTORS
330
C
102
}
330
C
100
AcDbDictionary
281
     1
  3
Normal
350
F
100
AcDbDictionaryWithDefault
340
F
  0
DICTIONARY
  5
2A0
102
{ACAD_REACTORS
330
C
102
}
330
C
100
AcDbDictionary
281
     1
  3
A0
350
2A1
  3
A1
350
2A2
  3
A2
350
2A3
  3
A3
350
2A4
  3
A4
350
2A5
  3
A5
350
2A6
  3
A6
350
2A7
  3
A7
350
2A8
  3
A8
350
2A9
  3
A9
350
2AA
  3
B0
350
2AB
  3
B1
350
2AC
  3
B2
350
2AD
  3
B3
350
2AE
  3
B4
350
2AF
  3
B5
350
2B0
  3
B6
350
2B1
  3
B7
350
2B2
  3
B8
350
2B3
  3
B9
350
2B4
  3
C0
350
2B5
  3
C1
350
2B6
  3
C2
350
2B7
  3
C3
350
2B8
  3
C4
350
2B9
  3
C5
350
2BA
  3
C6
350
2BB
  3
C7
350
2BC
  3
C8
350
2BD
  3
C9
350
2BE
  3
D0
350
2BF
  3
D1
350
2C0
  3
D2
350
2C1
  0
DICTIONARY
  5
9E4
102
{ACAD_REACTORS
330
C
102
}
330
C
100
AcDbDictionary
281
     1
  0
DICTIONARY
  5
2E3
102
{ACAD_REACTORS
330
C
102
}
330
C
100
AcDbDictionary
281
     1
  3
Standard
350
2E4
  0
XRECORD
  5
1CE6
102
{ACAD_REACTORS
330
C
102
}
330
C
100
AcDbXrecord
280
     1
 90
        1
330
2E4
  0
DICTIONARY
  5
9DF
102
{ACAD_REACTORS
330
C
102
}
330
C
100
AcDbDictionary
281
     1
  3
CANNOSCALE
350
9E0
  3
CTABLESTYLE
350
9E1
  3
MSLTSCALE
350
9E2
  3
XCLIPFRAME
350
16D1
  0
DICTIONARY
  5
2E5
102
{ACAD_REACTORS
330
C
102
}
330
C
100
AcDbDictionary
281
     1
  0
DICTIONARY
  5
66C
102
{ACAD_REACTORS
330
66B
102
}
330
66B
100
AcDbDictionary
281
     1
  3
ARGON_LAYERP_10
350
1544
  3
ARGON_LAYERP_11
350
1545
  3
ARGON_LAYERP_12
350
1546
  3
ARGON_LAYERP_13
350
154F
  3
ARGON_LAYERP_14
350
1550
  3
ARGON_LAYERP_15
350
1577
  3
ARGON_LAYERP_16
350
1578
  3
ARGON_LAYERP_17
350
158D
  3
ARGON_LAYERP_18
350
158E
  3
ARGON_LAYERP_19
350
158F
  3
ARGON_LAYERP_2
350
1050
  3
ARGON_LAYERP_20
350
1590
  3
ARGON_LAYERP_21
350
1591
  3
ARGON_LAYERP_22
350
1592
  3
ARGON_LAYERP_23
350
1593
  3
ARGON_LAYERP_24
350
1594
  3
ARGON_LAYERP_25
350
1595
  3
ARGON_LAYERP_26
350
15CB
  3
ARGON_LAYERP_27
350
1608
  3
ARGON_LAYERP_28
350
1017
  3
ARGON_LAYERP_3
350
105C
  3
ARGON_LAYERP_4
350
10BF
  3
ARGON_LAYERP_5
350
10C0
  3
ARGON_LAYERP_6
350
10C9
  3
ARGON_LAYERP_7
350
10CA
  3
ARGON_LAYERP_8
350
10E6
  3
ARGON_LAYERP_9
350
10E7
  0
DICTIONARY
  5
A24
102
{ACAD_REACTORS
330
66B
102
}
330
66B
100
AcDbDictionary
281
     1
1001
ACAD
1000
<All
  0
SORTENTSTABLE
  5
16DC
102
{ACAD_REACTORS
330
16DB
102
}
330
16DB
100
AcDbSortentsTable
330
1D
331
0
  5
22
331
4BC
  5
4BE
331
4BE
  5
4BF
331
4BF
  5
83A
331
83A
  5
A28
331
A28
  5
A29
331
A29
  5
A53
331
C08
  5
C16
331
C16
  5
C17
331
C17
  5
C18
331
C18
  5
C2D
331
C2D
  5
C2E
331
C2E
  5
C2F
331
C2F
  5
C31
331
C31
  5
C32
331
C32
  5
C33
331
C33
  5
C34
331
C34
  5
C72
331
C93
  5
C94
331
C94
  5
C95
331
C95
  5
C96
331
C96
  5
C97
331
C97
  5
C98
331
C98
  5
C99
331
C99
  5
C9A
331
C9A
  5
C9B
331
C9B
  5
C9C
331
C9C
  5
C9D
331
C9D
  5
C9E
331
C9E
  5
C9F
331
C9F
  5
CA0
331
CA0
  5
CA1
331
CA1
  5
CA2
331
CA2
  5
CA3
331
CA3
  5
CA4
331
CA4
  5
CA5
331
CA5
  5
CA6
331
CA6
  5
CA7
331
CA7
  5
CA8
331
CA8
  5
CAA
331
CAA
  5
CAB
331
CAB
  5
CAC
331
CAC
  5
CAD
331
CAD
  5
CAE
331
CAE
  5
CAF
331
CAF
  5
CB0
331
CB0
  5
CB1
331
CB1
  5
CB2
331
CB2
  5
CB3
331
CB3
  5
CB4
331
CB4
  5
CB5
331
CB5
  5
CB6
331
CB6
  5
CB9
331
CB9
  5
CBA
331
F97
  5
F98
331
F98
  5
F99
331
F99
  5
F9A
331
F9A
  5
F9B
331
F9B
  5
F9C
331
F9C
  5
F9D
331
F9D
  5
F9E
331
F9E
  5
F9F
331
F9F
  5
FA0
331
FA0
  5
FA1
331
FA1
  5
FA2
331
FA2
  5
FA5
331
FA5
  5
FA6
331
FA6
  5
FA7
331
FA7
  5
FA8
331
FA8
  5
FA9
331
FA9
  5
FAA
331
FAA
  5
FAB
331
FAB
  5
FAC
331
FAC
  5
FAD
331
FAD
  5
FAE
331
FAE
  5
FAF
331
FAF
  5
FB4
331
FB4
  5
FB6
331
FB6
  5
FB9
331
FB9
  5
FBA
331
FBA
  5
FC9
331
FC9
  5
FCD
331
FCD
  5
FCE
331
FCE
  5
FCF
331
FCF
  5
FD0
331
FD0
  5
FD3
331
FD3
  5
FD4
331
FD4
  5
FD6
331
FD8
  5
FD9
331
FD9
  5
FDA
331
FDA
  5
FDB
331
FDB
  5
FDC
331
FEB
  5
FEC
331
FEC
  5
FED
331
FED
  5
FEE
331
FEE
  5
FEF
331
FEF
  5
FF0
331
FF0
  5
FF3
331
FF3
  5
FF4
331
FF4
  5
FF8
331
FF8
  5
FF9
331
FF9
  5
1001
331
1001
  5
1002
331
1002
  5
1003
331
1003
  5
1004
331
1004
  5
1006
331
1006
  5
100A
331
100A
  5
100B
331
100B
  5
100C
331
100C
  5
100D
331
100D
  5
100F
331
100F
  5
1010
331
1010
  5
1011
331
1011
  5
1012
331
1012
  5
1013
331
1013
  5
1014
331
1014
  5
1015
331
1015
  5
105B
331
105B
  5
108A
331
108A
  5
10CB
331
10CB
  5
10E8
331
118E
  5
118F
331
118F
  5
1192
331
1192
  5
1193
331
1193
  5
1194
331
1194
  5
1195
331
1195
  5
1199
331
1199
  5
119A
331
119A
  5
119B
331
119B
  5
119C
331
119C
  5
11A3
331
11A3
  5
11A4
331
11A4
  5
11A6
331
11A6
  5
11A7
331
11A7
  5
11A9
331
11A9
  5
11AA
331
11AA
  5
11AB
331
11AB
  5
11AC
331
11AC
  5
11AD
331
11AD
  5
11AE
331
11AE
  5
11AF
331
11AF
  5
11B0
331
11B0
  5
11B1
331
11B1
  5
11B2
331
11B2
  5
11B3
331
11B3
  5
153C
331
153C
  5
153D
331
153D
  5
153E
331
153E
  5
153F
331
153F
  5
1540
331
1540
  5
1541
331
1541
  5
1542
331
1542
  5
1543
331
1543
  5
1547
331
1547
  5
1548
331
1548
  5
1549
331
1549
  5
154A
331
154A
  5
154B
331
154B
  5
154C
331
154C
  5
154D
331
154D
  5
154E
331
154E
  5
157A
331
157A
  5
157B
331
157B
  5
157C
331
157C
  5
1580
331
1580
  5
1581
331
1581
  5
158A
331
158A
  5
158B
331
158B
  5
158C
331
158C
  5
1596
331
1596
  5
1597
331
1597
  5
1598
331
1598
  5
1599
331
1599
  5
159A
331
159A
  5
159B
331
159B
  5
15A4
331
15CE
  5
15CF
331
15CF
  5
15FC
331
160D
  5
160F
331
160F
  5
1611
331
1611
  5
1612
331
1636
  5
1637
331
1639
  5
163A
331
166D
  5
166F
331
166F
  5
1670
331
1670
  5
1671
331
1671
  5
1674
331
1674
  5
1676
331
1676
  5
1678
331
1678
  5
1679
331
1679
  5
167A
331
167A
  5
167B
331
167B
  5
167D
331
167D
  5
167E
331
167E
  5
167F
331
167F
  5
1680
331
1680
  5
1682
331
1682
  5
1683
331
1683
  5
1684
331
1684
  5
1685
331
1685
  5
1686
331
1686
  5
1687
331
1687
  5
1688
331
1688
  5
1689
331
1689
  5
168A
331
168A
  5
168B
331
168B
  5
168C
331
168C
  5
168D
331
168D
  5
168E
331
168E
  5
168F
331
168F
  5
1690
331
1690
  5
1691
331
1691
  5
1692
331
1692
  5
1693
331
1693
  5
1694
331
16A7
  5
16A8
331
16A8
  5
16A9
331
16A9
  5
16AA
331
16AA
  5
16AB
331
16AB
  5
16AC
331
16AC
  5
16AF
331
16AF
  5
16B0
331
16B0
  5
16B1
331
16B1
  5
16B2
331
16B2
  5
16D2
  0
LAYOUT
  5
1C
102
{ACAD_REACTORS
330
1A
102
}
330
1A
100
AcDbPlotSettings
  1

  2
none_device
  4

  6

 40
0.0
 41
0.0
 42
0.0
 43
0.0
 44
0.0
 45
0.0
 46
0.0
 47
0.0
 48
0.0
 49
0.0
140
0.0
141
0.0
142
1.0
143
1.0
 70
   688
 72
     0
 73
     0
 74
     5
  7

 75
    16
 76
     0
 77
     2
 78
   300
147
1.0
148
0.0
149
0.0
100
AcDbLayout
  1
Arkusz 1
 70
     1
 71
     1
 10
0.0
 20
0.0
 11
0.0
 21
0.0
 12
0.0
 22
0.0
 32
0.0
 14
1.000000000000000E+20
 24
1.000000000000000E+20
 34
1.000000000000000E+20
 15
-1.000000000000000E+20
 25
-1.000000000000000E+20
 35
-1.000000000000000E+20
146
0.0
 13
0.0
 23
0.0
 33
0.0
 16
1.0
 26
0.0
 36
0.0
 17
0.0
 27
1.0
 37
0.0
 76
     0
330
1B
  0
LAYOUT
  5
1E
102
{ACAD_REACTORS
330
1A
102
}
330
1A
100
AcDbPlotSettings
  1

  2
none_device
  4
Letter_(8.50_x_11.00_Inches)
  6

 40
6.35
 41
6.35
 42
6.35
 43
6.35
 44
215.9
 45
279.4
 46
0.0
 47
0.0
 48
0.0
 49
0.0
140
0.0
141
0.0
142
1.0
143
1.0
 70
  1712
 72
     0
 73
     0
 74
     0
  7

 75
     0
 76
     0
 77
     2
 78
   300
147
1.0
148
0.0
149
0.0
100
AcDbLayout
  1
Model
 70
     1
 71
     0
 10
0.0
 20
0.0
 11
12.0
 21
9.0
 12
0.0
 22
0.0
 32
0.0
 14
-244.25
 24
0.0
 34
0.0
 15
244.25
 25
385.0
 35
0.0
146
0.0
 13
0.0
 23
0.0
 33
0.0
 16
1.0
 26
0.0
 36
0.0
 17
0.0
 27
1.0
 37
0.0
 76
     0
330
1D
331
29F
  0
MATERIAL
  5
2E1
102
{ACAD_REACTORS
330
2DF
102
}
330
2DF
100
AcDbMaterial
  1
ByBlock
  0
MATERIAL
  5
2E0
102
{ACAD_REACTORS
330
2DF
102
}
330
2DF
100
AcDbMaterial
  1
ByLayer
  0
MATERIAL
  5
2E2
102
{ACAD_REACTORS
330
2DF
102
}
330
2DF
100
AcDbMaterial
  1
Global
  0
MLINESTYLE
  5
18
102
{ACAD_REACTORS
330
17
102
}
330
17
100
AcDbMlineStyle
  2
Standard
 70
     0
  3

 62
   256
 51
90.0
 52
90.0
 71
     2
 49
0.5
 62
   256
  6
BYLAYER
 49
-0.5
 62
   256
  6
BYLAYER
  0
ACDBPLACEHOLDER
  5
F
102
{ACAD_REACTORS
330
E
102
}
330
E
  0
SCALE
  5
2A1
102
{ACAD_REACTORS
330
2A0
102
}
330
2A0
100
AcDbScale
 70
     0
300
1:1
140
1.0
141
1.0
290
     1
  0
SCALE
  5
2A2
102
{ACAD_REACTORS
330
2A0
102
}
330
2A0
100
AcDbScale
 70
     0
300
1:2
140
1.0
141
2.0
290
     0
  0
SCALE
  5
2A3
102
{ACAD_REACTORS
330
2A0
102
}
330
2A0
100
AcDbScale
 70
     0
300
1:4
140
1.0
141
4.0
290
     0
  0
SCALE
  5
2A4
102
{ACAD_REACTORS
330
2A0
102
}
330
2A0
100
AcDbScale
 70
     0
300
1:5
140
1.0
141
5.0
290
     0
  0
SCALE
  5
2A5
102
{ACAD_REACTORS
330
2A0
102
}
330
2A0
100
AcDbScale
 70
     0
300
1:8
140
1.0
141
8.0
290
     0
  0
SCALE
  5
2A6
102
{ACAD_REACTORS
330
2A0
102
}
330
2A0
100
AcDbScale
 70
     0
300
1:10
140
1.0
141
10.0
290
     0
  0
SCALE
  5
2A7
102
{ACAD_REACTORS
330
2A0
102
}
330
2A0
100
AcDbScale
 70
     0
300
1:16
140
1.0
141
16.0
290
     0
  0
SCALE
  5
2A8
102
{ACAD_REACTORS
330
2A0
102
}
330
2A0
100
AcDbScale
 70
     0
300
1:20
140
1.0
141
20.0
290
     0
  0
SCALE
  5
2A9
102
{ACAD_REACTORS
330
2A0
102
}
330
2A0
100
AcDbScale
 70
     0
300
1:30
140
1.0
141
30.0
290
     0
  0
SCALE
  5
2AA
102
{ACAD_REACTORS
330
2A0
102
}
330
2A0
100
AcDbScale
 70
     0
300
1:40
140
1.0
141
40.0
290
     0
  0
SCALE
  5
2AB
102
{ACAD_REACTORS
330
2A0
102
}
330
2A0
100
AcDbScale
 70
     0
300
1:50
140
1.0
141
50.0
290
     0
  0
SCALE
  5
2AC
102
{ACAD_REACTORS
330
2A0
102
}
330
2A0
100
AcDbScale
 70
     0
300
1:100
140
1.0
141
100.0
290
     0
  0
SCALE
  5
2AD
102
{ACAD_REACTORS
330
2A0
102
}
330
2A0
100
AcDbScale
 70
     0
300
2:1
140
2.0
141
1.0
290
     0
  0
SCALE
  5
2AE
102
{ACAD_REACTORS
330
2A0
102
}
330
2A0
100
AcDbScale
 70
     0
300
4:1
140
4.0
141
1.0
290
     0
  0
SCALE
  5
2AF
102
{ACAD_REACTORS
330
2A0
102
}
330
2A0
100
AcDbScale
 70
     0
300
8:1
140
8.0
141
1.0
290
     0
  0
SCALE
  5
2B0
102
{ACAD_REACTORS
330
2A0
102
}
330
2A0
100
AcDbScale
 70
     0
300
10:1
140
10.0
141
1.0
290
     0
  0
SCALE
  5
2B1
102
{ACAD_REACTORS
330
2A0
102
}
330
2A0
100
AcDbScale
 70
     0
300
100:1
140
100.0
141
1.0
290
     0
  0
SCALE
  5
2B2
102
{ACAD_REACTORS
330
2A0
102
}
330
2A0
100
AcDbScale
 70
     0
300
1/128" = 1'-0"
140
0.0078125
141
12.0
290
     0
  0
SCALE
  5
2B3
102
{ACAD_REACTORS
330
2A0
102
}
330
2A0
100
AcDbScale
 70
     0
300
1/64" = 1'-0"
140
0.015625
141
12.0
290
     0
  0
SCALE
  5
2B4
102
{ACAD_REACTORS
330
2A0
102
}
330
2A0
100
AcDbScale
 70
     0
300
1/32" = 1'-0"
140
0.03125
141
12.0
290
     0
  0
SCALE
  5
2B5
102
{ACAD_REACTORS
330
2A0
102
}
330
2A0
100
AcDbScale
 70
     0
300
1/16" = 1'-0"
140
0.0625
141
12.0
290
     0
  0
SCALE
  5
2B6
102
{ACAD_REACTORS
330
2A0
102
}
330
2A0
100
AcDbScale
 70
     0
300
3/32" = 1'-0"
140
0.09375
141
12.0
290
     0
  0
SCALE
  5
2B7
102
{ACAD_REACTORS
330
2A0
102
}
330
2A0
100
AcDbScale
 70
     0
300
1/8" = 1'-0"
140
0.125
141
12.0
290
     0
  0
SCALE
  5
2B8
102
{ACAD_REACTORS
330
2A0
102
}
330
2A0
100
AcDbScale
 70
     0
300
3/16" = 1'-0"
140
0.1875
141
12.0
290
     0
  0
SCALE
  5
2B9
102
{ACAD_REACTORS
330
2A0
102
}
330
2A0
100
AcDbScale
 70
     0
300
1/4" = 1'-0"
140
0.25
141
12.0
290
     0
  0
SCALE
  5
2BA
102
{ACAD_REACTORS
330
2A0
102
}
330
2A0
100
AcDbScale
 70
     0
300
3/8" = 1'-0"
140
0.375
141
12.0
290
     0
  0
SCALE
  5
2BB
102
{ACAD_REACTORS
330
2A0
102
}
330
2A0
100
AcDbScale
 70
     0
300
1/2" = 1'-0"
140
0.5
141
12.0
290
     0
  0
SCALE
  5
2BC
102
{ACAD_REACTORS
330
2A0
102
}
330
2A0
100
AcDbScale
 70
     0
300
3/4" = 1'-0"
140
0.75
141
12.0
290
     0
  0
SCALE
  5
2BD
102
{ACAD_REACTORS
330
2A0
102
}
330
2A0
100
AcDbScale
 70
     0
300
1" = 1'-0"
140
1.0
141
12.0
290
     0
  0
SCALE
  5
2BE
102
{ACAD_REACTORS
330
2A0
102
}
330
2A0
100
AcDbScale
 70
     0
300
1-1/2" = 1'-0"
140
1.5
141
12.0
290
     0
  0
SCALE
  5
2BF
102
{ACAD_REACTORS
330
2A0
102
}
330
2A0
100
AcDbScale
 70
     0
300
3" = 1'-0"
140
3.0
141
12.0
290
     0
  0
SCALE
  5
2C0
102
{ACAD_REACTORS
330
2A0
102
}
330
2A0
100
AcDbScale
 70
     0
300
6" = 1'-0"
140
6.0
141
12.0
290
     0
  0
SCALE
  5
2C1
102
{ACAD_REACTORS
330
2A0
102
}
330
2A0
100
AcDbScale
 70
     0
300
1'-0" = 1'-0"
140
12.0
141
12.0
290
     0
  0
TABLESTYLE
  5
2E4
102
{ACAD_REACTORS
330
2E3
102
}
102
{ACAD_XDICTIONARY
360
1CE3
102
}
330
2E3
100
AcDbTableStyle
  3
Standard
 70
     0
 71
     0
 40
0.06
 41
0.06
280
     0
281
     0
  7
Standard
140
0.18
170
     2
 62
     0
 63
   257
283
     0
274
    -2
284
     1
 64
     0
275
    -2
285
     1
 65
     0
276
    -2
286
     1
 66
     0
277
    -2
287
     1
 67
     0
278
    -2
288
     1
 68
     0
279
    -2
289
     1
 69
     0
  7
Standard
140
0.25
170
     5
 62
     0
 63
   257
283
     0
274
    -2
284
     1
 64
     0
275
    -2
285
     1
 65
     0
276
    -2
286
     1
 66
     0
277
    -2
287
     1
 67
     0
278
    -2
288
     1
 68
     0
279
    -2
289
     1
 69
     0
  7
Standard
140
0.18
170
     5
 62
     0
 63
   257
283
     0
274
    -2
284
     1
 64
     0
275
    -2
285
     1
 65
     0
276
    -2
286
     1
 66
     0
277
    -2
287
     1
 67
     0
278
    -2
288
     1
 68
     0
279
    -2
289
     1
 69
     0
  0
DICTIONARYVAR
  5
9E0
102
{ACAD_REACTORS
330
9DF
102
}
330
9DF
100
DictionaryVariables
280
     0
  1
1:1
  0
DICTIONARYVAR
  5
9E1
102
{ACAD_REACTORS
330
9DF
102
}
330
9DF
100
DictionaryVariables
280
     0
  1
Standard
  0
DICTIONARYVAR
  5
9E2
102
{ACAD_REACTORS
330
9DF
102
}
330
9DF
100
DictionaryVariables
280
     0
  1
0
  0
DICTIONARYVAR
  5
16D1
102
{ACAD_REACTORS
330
9DF
102
}
330
9DF
100
DictionaryVariables
280
     0
  1
0
  0
XRECORD
  5
1544
102
{ACAD_REACTORS
330
66C
102
}
330
66C
100
AcDbXrecord
280
     1
 91
     1023
301

290
     0
302
0
330
10
 90
        8
 62
     7
370
    -3
331
16
  1
Color_7
330
66E
 90
        8
 62
     4
370
    -3
331
16
  1
Color_4
330
9E7
 90
        8
 62
     1
370
    -3
331
16
  1
Color_1
330
9F2
 90
        0
 62
     7
370
    -3
331
16
  1
Color_7
330
A23
 90
        0
 62
     6
370
    -3
331
16
  1
Color_6
  0
XRECORD
  5
1545
102
{ACAD_REACTORS
330
66C
102
}
330
66C
100
AcDbXrecord
280
     1
 91
     1023
301

290
     0
302
0
330
10
 90
        8
 62
     7
370
    -3
331
16
  1
Color_7
330
66E
 90
        8
 62
     4
370
    -3
331
16
  1
Color_4
330
9E7
 90
        8
 62
     1
370
    -3
331
16
  1
Color_1
330
9F2
 90
        0
 62
     7
370
    -3
331
16
  1
Color_7
330
A23
 90
        1
 62
     6
370
    -3
331
16
  1
Color_6
  0
XRECORD
  5
1546
102
{ACAD_REACTORS
330
66C
102
}
330
66C
100
AcDbXrecord
280
     1
 91
     1023
301

290
     0
302
0
330
10
 90
        8
 62
     7
370
    -3
331
16
  1
Color_7
330
66E
 90
        8
 62
     4
370
    -3
331
16
  1
Color_4
330
9E7
 90
        8
 62
     1
370
    -3
331
16
  1
Color_1
330
9F2
 90
        0
 62
     7
370
    -3
331
16
  1
Color_7
330
A23
 90
        0
 62
     6
370
    -3
331
16
  1
Color_6
  0
XRECORD
  5
154F
102
{ACAD_REACTORS
330
66C
102
}
330
66C
100
AcDbXrecord
280
     1
 91
     1023
301

290
     0
302
helpline
330
10
 90
        8
 62
     7
370
    -3
331
16
  1
Color_7
330
66E
 90
        8
 62
     4
370
    -3
331
16
  1
Color_4
330
9E7
 90
        8
 62
     1
370
    -3
331
16
  1
Color_1
330
9F2
 90
        0
 62
     7
370
    -3
331
16
  1
Color_7
330
A23
 90
        0
 62
     6
370
    -3
331
16
  1
Color_6
  0
XRECORD
  5
1550
102
{ACAD_REACTORS
330
66C
102
}
330
66C
100
AcDbXrecord
280
     1
 91
     1023
301

290
     0
302
helpline
330
10
 90
        8
 62
     7
370
    -3
331
16
  1
Color_7
330
66E
 90
        8
 62
     4
370
    -3
331
16
  1
Color_4
330
9E7
 90
        8
 62
     1
370
    -3
331
16
  1
Color_1
330
9F2
 90
        0
 62
     7
370
    -3
331
16
  1
Color_7
330
A23
 90
        1
 62
     6
370
    -3
331
16
  1
Color_6
  0
XRECORD
  5
1577
102
{ACAD_REACTORS
330
66C
102
}
330
66C
100
AcDbXrecord
280
     1
 91
     1023
301

290
     0
302
helpline
330
10
 90
        8
 62
     7
370
    -3
331
16
  1
Color_7
330
66E
 90
        8
 62
     4
370
    -3
331
16
  1
Color_4
330
9E7
 90
        8
 62
     1
370
    -3
331
16
  1
Color_1
330
9F2
 90
        0
 62
     7
370
    -3
331
16
  1
Color_7
330
A23
 90
        0
 62
     6
370
    -3
331
16
  1
Color_6
  0
XRECORD
  5
1578
102
{ACAD_REACTORS
330
66C
102
}
330
66C
100
AcDbXrecord
280
     1
 91
     1023
301

290
     0
302
helpline
330
10
 90
        8
 62
     7
370
    -3
331
16
  1
Color_7
330
66E
 90
        8
 62
     4
370
    -3
331
16
  1
Color_4
330
9E7
 90
        8
 62
     1
370
    -3
331
16
  1
Color_1
330
9F2
 90
        0
 62
     7
370
    -3
331
16
  1
Color_7
330
A23
 90
        1
 62
     6
370
    -3
331
16
  1
Color_6
  0
XRECORD
  5
158D
102
{ACAD_REACTORS
330
66C
102
}
330
66C
100
AcDbXrecord
280
     1
 91
     1023
301

290
     0
302
helpline
330
10
 90
        8
 62
     7
370
    -3
331
16
  1
Color_7
330
66E
 90
        8
 62
     4
370
    -3
331
16
  1
Color_4
330
9E7
 90
        8
 62
     1
370
    -3
331
16
  1
Color_1
330
9F2
 90
        0
 62
     7
370
    -3
331
16
  1
Color_7
330
A23
 90
        0
 62
     6
370
    -3
331
16
  1
Color_6
  0
XRECORD
  5
158E
102
{ACAD_REACTORS
330
66C
102
}
330
66C
100
AcDbXrecord
280
     1
 91
     1023
301

290
     0
302
helpline
330
10
 90
        8
 62
     7
370
    -3
331
16
  1
Color_7
330
66E
 90
        8
 62
     4
370
    -3
331
16
  1
Color_4
330
9E7
 90
        8
 62
     1
370
    -3
331
16
  1
Color_1
330
9F2
 90
        0
 62
     7
370
    -3
331
16
  1
Color_7
330
A23
 90
        1
 62
     6
370
    -3
331
16
  1
Color_6
  0
XRECORD
  5
158F
102
{ACAD_REACTORS
330
66C
102
}
330
66C
100
AcDbXrecord
280
     1
 91
     1023
301

290
     0
302
helpline
330
10
 90
        8
 62
     7
370
    -3
331
16
  1
Color_7
330
66E
 90
        9
 62
     4
370
    -3
331
16
  1
Color_4
330
9E7
 90
        8
 62
     1
370
    -3
331
16
  1
Color_1
330
9F2
 90
        0
 62
     7
370
    -3
331
16
  1
Color_7
330
A23
 90
        1
 62
     6
370
    -3
331
16
  1
Color_6
  0
XRECORD
  5
1050
102
{ACAD_REACTORS
330
66C
102
}
330
66C
100
AcDbXrecord
280
     1
 91
     1023
301

290
     0
302
helpline
330
10
 90
        8
 62
     7
370
    -3
331
16
  1
Color_7
330
66E
 90
        8
 62
     4
370
    -3
331
16
  1
Color_4
330
9E7
 90
        8
 62
     1
370
    -3
331
16
  1
Color_1
330
9F2
 90
        0
 62
     7
370
    -3
331
16
  1
Color_7
330
A23
 90
        0
 62
     6
370
    -3
331
16
  1
Color_6
  0
XRECORD
  5
1590
102
{ACAD_REACTORS
330
66C
102
}
330
66C
100
AcDbXrecord
280
     1
 91
     1023
301

290
     0
302
montaz-ramy
330
10
 90
        8
 62
     7
370
    -3
331
16
  1
Color_7
330
66E
 90
        9
 62
     4
370
    -3
331
16
  1
Color_4
330
9E7
 90
        8
 62
     1
370
    -3
331
16
  1
Color_1
330
9F2
 90
        0
 62
     7
370
    -3
331
16
  1
Color_7
330
A23
 90
        1
 62
     6
370
    -3
331
16
  1
Color_6
  0
XRECORD
  5
1591
102
{ACAD_REACTORS
330
66C
102
}
330
66C
100
AcDbXrecord
280
     1
 91
     1023
301

290
     0
302
montaz-ramy
330
10
 90
        8
 62
     7
370
    -3
331
16
  1
Color_7
330
66E
 90
        9
 62
     4
370
    -3
331
16
  1
Color_4
330
9E7
 90
        9
 62
     1
370
    -3
331
16
  1
Color_1
330
9F2
 90
        0
 62
     7
370
    -3
331
16
  1
Color_7
330
A23
 90
        1
 62
     6
370
    -3
331
16
  1
Color_6
  0
XRECORD
  5
1592
102
{ACAD_REACTORS
330
66C
102
}
330
66C
100
AcDbXrecord
280
     1
 91
     1023
301

290
     0
302
montaz-ramy
330
10
 90
        8
 62
     7
370
    -3
331
16
  1
Color_7
330
66E
 90
        9
 62
     4
370
    -3
331
16
  1
Color_4
330
9E7
 90
        9
 62
     1
370
    -3
331
16
  1
Color_1
330
9F2
 90
        0
 62
     7
370
    -3
331
16
  1
Color_7
330
A23
 90
        0
 62
     6
370
    -3
331
16
  1
Color_6
  0
XRECORD
  5
1593
102
{ACAD_REACTORS
330
66C
102
}
330
66C
100
AcDbXrecord
280
     1
 91
     1023
301

290
     0
302
montaz-ramy
330
10
 90
        8
 62
     7
370
    -3
331
16
  1
Color_7
330
66E
 90
        8
 62
     4
370
    -3
331
16
  1
Color_4
330
9E7
 90
        9
 62
     1
370
    -3
331
16
  1
Color_1
330
9F2
 90
        0
 62
     7
370
    -3
331
16
  1
Color_7
330
A23
 90
        0
 62
     6
370
    -3
331
16
  1
Color_6
  0
XRECORD
  5
1594
102
{ACAD_REACTORS
330
66C
102
}
330
66C
100
AcDbXrecord
280
     1
 91
     1023
301

290
     0
302
montaz-ramy
330
10
 90
        8
 62
     7
370
    -3
331
16
  1
Color_7
330
66E
 90
        8
 62
     4
370
    -3
331
16
  1
Color_4
330
9E7
 90
        8
 62
     1
370
    -3
331
16
  1
Color_1
330
9F2
 90
        0
 62
     7
370
    -3
331
16
  1
Color_7
330
A23
 90
        0
 62
     6
370
    -3
331
16
  1
Color_6
  0
XRECORD
  5
1595
102
{ACAD_REACTORS
330
66C
102
}
330
66C
100
AcDbXrecord
280
     1
 91
     1023
301

290
     0
302
wpust
330
10
 90
        8
 62
     7
370
    -3
331
16
  1
Color_7
330
66E
 90
        8
 62
     4
370
    -3
331
16
  1
Color_4
330
9E7
 90
        8
 62
     1
370
    -3
331
16
  1
Color_1
330
9F2
 90
        0
 62
     7
370
    -3
331
16
  1
Color_7
330
A23
 90
        0
 62
     6
370
    -3
331
16
  1
Color_6
  0
XRECORD
  5
15CB
102
{ACAD_REACTORS
330
66C
102
}
330
66C
100
AcDbXrecord
280
     1
 91
     1023
301

290
     0
302
montaz-ramy
330
10
 90
        8
 62
     7
370
    -3
331
16
  1
Color_7
330
66E
 90
        8
 62
     4
370
    -3
331
16
  1
Color_4
330
9E7
 90
        8
 62
     1
370
    -3
331
16
  1
Color_1
330
9F2
 90
        0
 62
     7
370
    -3
331
16
  1
Color_7
330
A23
 90
        0
 62
     6
370
    -3
331
16
  1
Color_6
  0
XRECORD
  5
1608
102
{ACAD_REACTORS
330
66C
102
}
330
66C
100
AcDbXrecord
280
     1
 91
     1023
301

290
     0
302
0
330
10
 90
        8
 62
     7
370
    -3
331
16
  1
Color_7
330
66E
 90
        8
 62
     4
370
    -3
331
16
  1
Color_4
330
9E7
 90
        8
 62
     1
370
    -3
331
16
  1
Color_1
330
9F2
 90
        0
 62
     7
370
    -3
331
16
  1
Color_7
330
A23
 90
        0
 62
     6
370
    -3
331
16
  1
Color_6
  0
XRECORD
  5
1017
102
{ACAD_REACTORS
330
66C
102
}
330
66C
100
AcDbXrecord
280
     1
 91
     1023
301

290
     0
302
wpust
330
10
 90
        8
 62
     7
370
    -3
331
16
  1
Color_7
330
66E
 90
        8
 62
     4
370
    -3
331
16
  1
Color_4
330
9E7
 90
        8
 62
     1
370
    -3
331
16
  1
Color_1
330
9F2
 90
        0
 62
     7
370
    -3
331
16
  1
Color_7
330
A23
 90
        0
 62
     6
370
    -3
331
16
  1
Color_6
  0
XRECORD
  5
105C
102
{ACAD_REACTORS
330
66C
102
}
330
66C
100
AcDbXrecord
280
     1
 91
     1023
301

290
     0
302
wpust
330
10
 90
        8
 62
     7
370
    -3
331
16
  1
Color_7
330
66E
 90
        8
 62
     4
370
    -3
331
16
  1
Color_4
330
9E7
 90
        8
 62
     1
370
    -3
331
16
  1
Color_1
330
9F2
 90
        0
 62
     7
370
    -3
331
16
  1
Color_7
330
A23
 90
        0
 62
     6
370
    -3
331
16
  1
Color_6
  0
XRECORD
  5
10BF
102
{ACAD_REACTORS
330
66C
102
}
330
66C
100
AcDbXrecord
280
     1
 91
     1023
301

290
     0
302
0
330
10
 90
        8
 62
     7
370
    -3
331
16
  1
Color_7
330
66E
 90
        8
 62
     4
370
    -3
331
16
  1
Color_4
330
9E7
 90
        8
 62
     1
370
    -3
331
16
  1
Color_1
330
9F2
 90
        0
 62
     7
370
    -3
331
16
  1
Color_7
330
A23
 90
        0
 62
     6
370
    -3
331
16
  1
Color_6
  0
XRECORD
  5
10C0
102
{ACAD_REACTORS
330
66C
102
}
330
66C
100
AcDbXrecord
280
     1
 91
     1023
301

290
     0
302
0
330
10
 90
        9
 62
     7
370
    -3
331
16
  1
Color_7
330
66E
 90
        8
 62
     4
370
    -3
331
16
  1
Color_4
330
9E7
 90
        8
 62
     1
370
    -3
331
16
  1
Color_1
330
9F2
 90
        0
 62
     7
370
    -3
331
16
  1
Color_7
330
A23
 90
        0
 62
     6
370
    -3
331
16
  1
Color_6
  0
XRECORD
  5
10C9
102
{ACAD_REACTORS
330
66C
102
}
330
66C
100
AcDbXrecord
280
     1
 91
     1023
301

290
     0
302
0
330
10
 90
        8
 62
     7
370
    -3
331
16
  1
Color_7
330
66E
 90
        8
 62
     4
370
    -3
331
16
  1
Color_4
330
9E7
 90
        8
 62
     1
370
    -3
331
16
  1
Color_1
330
9F2
 90
        0
 62
     7
370
    -3
331
16
  1
Color_7
330
A23
 90
        0
 62
     6
370
    -3
331
16
  1
Color_6
  0
XRECORD
  5
10CA
102
{ACAD_REACTORS
330
66C
102
}
330
66C
100
AcDbXrecord
280
     1
 91
     1023
301

290
     0
302
0
330
10
 90
        9
 62
     7
370
    -3
331
16
  1
Color_7
330
66E
 90
        8
 62
     4
370
    -3
331
16
  1
Color_4
330
9E7
 90
        8
 62
     1
370
    -3
331
16
  1
Color_1
330
9F2
 90
        0
 62
     7
370
    -3
331
16
  1
Color_7
330
A23
 90
        0
 62
     6
370
    -3
331
16
  1
Color_6
  0
XRECORD
  5
10E6
102
{ACAD_REACTORS
330
66C
102
}
330
66C
100
AcDbXrecord
280
     1
 91
     1023
301

290
     0
302
0
330
10
 90
        8
 62
     7
370
    -3
331
16
  1
Color_7
330
66E
 90
        8
 62
     4
370
    -3
331
16
  1
Color_4
330
9E7
 90
        8
 62
     1
370
    -3
331
16
  1
Color_1
330
9F2
 90
        0
 62
     7
370
    -3
331
16
  1
Color_7
330
A23
 90
        0
 62
     6
370
    -3
331
16
  1
Color_6
  0
XRECORD
  5
10E7
102
{ACAD_REACTORS
330
66C
102
}
330
66C
100
AcDbXrecord
280
     1
 91
     1023
301

290
     0
302
0
330
10
 90
        9
 62
     7
370
    -3
331
16
  1
Color_7
330
66E
 90
        8
 62
     4
370
    -3
331
16
  1
Color_4
330
9E7
 90
        8
 62
     1
370
    -3
331
16
  1
Color_1
330
9F2
 90
        0
 62
     7
370
    -3
331
16
  1
Color_7
330
A23
 90
        0
 62
     6
370
    -3
331
16
  1
Color_6
  0
DICTIONARY
  5
1CE3
330
2E4
100
AcDbDictionary
280
     1
281
     1
  3
ACAD_ROUNDTRIP_2008_TABLESTYLE_CELLSTYLEMAP
360
1CE5
  3
ACAD_XREC_ROUNDTRIP
360
1CE4
  0
CELLSTYLEMAP
  5
1CE5
102
{ACAD_REACTORS
330
1CE3
102
}
330
1CE3
100
AcDbCellStyleMap
 90
        3
300
CELLSTYLE
  1
TABLEFORMAT_BEGIN
 90
        5
170
     1
 91
        0
 92
        0
 62
   257
 93
        1
300
CONTENTFORMAT
  1
CONTENTFORMAT_BEGIN
 90
        0
 91
        0
 92
        4
 93
        0
300

 40
0.0
140
1.0
 94
        5
 62
     0
340
11
144
0.25
309
CONTENTFORMAT_END
171
     1
301
MARGIN
  1
CELLMARGIN_BEGIN
 40
0.06
 40
0.06
 40
0.06
 40
0.06
 40
0.06
 40
0.06
309
CELLMARGIN_END
 94
        6
 95
        1
302
GRIDFORMAT
  1
GRIDFORMAT_BEGIN
 90
        0
 91
        1
 62
     0
 92
       -2
340
14
 93
        0
 40
0.045
309
GRIDFORMAT_END
 95
        2
302
GRIDFORMAT
  1
GRIDFORMAT_BEGIN
 90
        0
 91
        1
 62
     0
 92
       -2
340
14
 93
        0
 40
0.045
309
GRIDFORMAT_END
 95
        4
302
GRIDFORMAT
  1
GRIDFORMAT_BEGIN
 90
        0
 91
        1
 62
     0
 92
       -2
340
14
 93
        0
 40
0.045
309
GRIDFORMAT_END
 95
        8
302
GRIDFORMAT
  1
GRIDFORMAT_BEGIN
 90
        0
 91
        1
 62
     0
 92
       -2
340
14
 93
        0
 40
0.045
309
GRIDFORMAT_END
 95
       16
302
GRIDFORMAT
  1
GRIDFORMAT_BEGIN
 90
        0
 91
        1
 62
     0
 92
       -2
340
14
 93
        0
 40
0.045
309
GRIDFORMAT_END
 95
       32
302
GRIDFORMAT
  1
GRIDFORMAT_BEGIN
 90
        0
 91
        1
 62
     0
 92
       -2
340
14
 93
        0
 40
0.045
309
GRIDFORMAT_END
309
TABLEFORMAT_END
  1
CELLSTYLE_BEGIN
 90
        1
 91
        1
300
_TITLE
309
CELLSTYLE_END
300
CELLSTYLE
  1
TABLEFORMAT_BEGIN
 90
        5
170
     1
 91
        0
 92
        0
 62
   257
 93
        1
300
CONTENTFORMAT
  1
CONTENTFORMAT_BEGIN
 90
        0
 91
        0
 92
        4
 93
        0
300

 40
0.0
140
1.0
 94
        5
 62
     0
340
11
144
0.18
309
CONTENTFORMAT_END
171
     1
301
MARGIN
  1
CELLMARGIN_BEGIN
 40
0.06
 40
0.06
 40
0.06
 40
0.06
 40
0.06
 40
0.06
309
CELLMARGIN_END
 94
        6
 95
        1
302
GRIDFORMAT
  1
GRIDFORMAT_BEGIN
 90
        0
 91
        1
 62
     0
 92
       -2
340
14
 93
        0
 40
0.045
309
GRIDFORMAT_END
 95
        2
302
GRIDFORMAT
  1
GRIDFORMAT_BEGIN
 90
        0
 91
        1
 62
     0
 92
       -2
340
14
 93
        0
 40
0.045
309
GRIDFORMAT_END
 95
        4
302
GRIDFORMAT
  1
GRIDFORMAT_BEGIN
 90
        0
 91
        1
 62
     0
 92
       -2
340
14
 93
        0
 40
0.045
309
GRIDFORMAT_END
 95
        8
302
GRIDFORMAT
  1
GRIDFORMAT_BEGIN
 90
        0
 91
        1
 62
     0
 92
       -2
340
14
 93
        0
 40
0.045
309
GRIDFORMAT_END
 95
       16
302
GRIDFORMAT
  1
GRIDFORMAT_BEGIN
 90
        0
 91
        1
 62
     0
 92
       -2
340
14
 93
        0
 40
0.045
309
GRIDFORMAT_END
 95
       32
302
GRIDFORMAT
  1
GRIDFORMAT_BEGIN
 90
        0
 91
        1
 62
     0
 92
       -2
340
14
 93
        0
 40
0.045
309
GRIDFORMAT_END
309
TABLEFORMAT_END
  1
CELLSTYLE_BEGIN
 90
        2
 91
        1
300
_HEADER
309
CELLSTYLE_END
300
CELLSTYLE
  1
TABLEFORMAT_BEGIN
 90
        5
170
     1
 91
        0
 92
        0
 62
   257
 93
        1
300
CONTENTFORMAT
  1
CONTENTFORMAT_BEGIN
 90
        0
 91
        0
 92
        4
 93
        0
300

 40
0.0
140
1.0
 94
        2
 62
     0
340
11
144
0.18
309
CONTENTFORMAT_END
171
     1
301
MARGIN
  1
CELLMARGIN_BEGIN
 40
0.06
 40
0.06
 40
0.06
 40
0.06
 40
0.06
 40
0.06
309
CELLMARGIN_END
 94
        6
 95
        1
302
GRIDFORMAT
  1
GRIDFORMAT_BEGIN
 90
        0
 91
        1
 62
     0
 92
       -2
340
14
 93
        0
 40
0.045
309
GRIDFORMAT_END
 95
        2
302
GRIDFORMAT
  1
GRIDFORMAT_BEGIN
 90
        0
 91
        1
 62
     0
 92
       -2
340
14
 93
        0
 40
0.045
309
GRIDFORMAT_END
 95
        4
302
GRIDFORMAT
  1
GRIDFORMAT_BEGIN
 90
        0
 91
        1
 62
     0
 92
       -2
340
14
 93
        0
 40
0.045
309
GRIDFORMAT_END
 95
        8
302
GRIDFORMAT
  1
GRIDFORMAT_BEGIN
 90
        0
 91
        1
 62
     0
 92
       -2
340
14
 93
        0
 40
0.045
309
GRIDFORMAT_END
 95
       16
302
GRIDFORMAT
  1
GRIDFORMAT_BEGIN
 90
        0
 91
        1
 62
     0
 92
       -2
340
14
 93
        0
 40
0.045
309
GRIDFORMAT_END
 95
       32
302
GRIDFORMAT
  1
GRIDFORMAT_BEGIN
 90
        0
 91
        1
 62
     0
 92
       -2
340
14
 93
        0
 40
0.045
309
GRIDFORMAT_END
309
TABLEFORMAT_END
  1
CELLSTYLE_BEGIN
 90
        3
 91
        2
300
_DATA
309
CELLSTYLE_END
  0
XRECORD
  5
1CE4
102
{ACAD_REACTORS
330
1CE3
102
}
330
1CE3
100
AcDbXrecord
280
     1
102
ACAD_ROUNDTRIP_PRE2007_TABLESTYLE
 90
        4
 91
        0
  1

 92
        4
 93
        0
  2

 94
        4
 95
        0
  3

  0
ENDSEC
  0
EOF
